%TF.GenerationSoftware,KiCad,Pcbnew,9.0.7*%
%TF.CreationDate,2026-03-21T23:32:05-04:00*%
%TF.ProjectId,K-Logic-Devboard,4b2d4c6f-6769-4632-9d44-6576626f6172,rev?*%
%TF.SameCoordinates,Original*%
%TF.FileFunction,Copper,L1,Top*%
%TF.FilePolarity,Positive*%
%FSLAX46Y46*%
G04 Gerber Fmt 4.6, Leading zero omitted, Abs format (unit mm)*
G04 Created by KiCad (PCBNEW 9.0.7) date 2026-03-21 23:32:05*
%MOMM*%
%LPD*%
G01*
G04 APERTURE LIST*
G04 Aperture macros list*
%AMRoundRect*
0 Rectangle with rounded corners*
0 $1 Rounding radius*
0 $2 $3 $4 $5 $6 $7 $8 $9 X,Y pos of 4 corners*
0 Add a 4 corners polygon primitive as box body*
4,1,4,$2,$3,$4,$5,$6,$7,$8,$9,$2,$3,0*
0 Add four circle primitives for the rounded corners*
1,1,$1+$1,$2,$3*
1,1,$1+$1,$4,$5*
1,1,$1+$1,$6,$7*
1,1,$1+$1,$8,$9*
0 Add four rect primitives between the rounded corners*
20,1,$1+$1,$2,$3,$4,$5,0*
20,1,$1+$1,$4,$5,$6,$7,0*
20,1,$1+$1,$6,$7,$8,$9,0*
20,1,$1+$1,$8,$9,$2,$3,0*%
G04 Aperture macros list end*
%TA.AperFunction,SMDPad,CuDef*%
%ADD10RoundRect,0.225000X0.225000X0.250000X-0.225000X0.250000X-0.225000X-0.250000X0.225000X-0.250000X0*%
%TD*%
%TA.AperFunction,SMDPad,CuDef*%
%ADD11RoundRect,0.140000X0.170000X-0.140000X0.170000X0.140000X-0.170000X0.140000X-0.170000X-0.140000X0*%
%TD*%
%TA.AperFunction,SMDPad,CuDef*%
%ADD12RoundRect,0.140000X-0.170000X0.140000X-0.170000X-0.140000X0.170000X-0.140000X0.170000X0.140000X0*%
%TD*%
%TA.AperFunction,SMDPad,CuDef*%
%ADD13RoundRect,0.140000X-0.140000X-0.170000X0.140000X-0.170000X0.140000X0.170000X-0.140000X0.170000X0*%
%TD*%
%TA.AperFunction,SMDPad,CuDef*%
%ADD14RoundRect,0.135000X0.135000X0.185000X-0.135000X0.185000X-0.135000X-0.185000X0.135000X-0.185000X0*%
%TD*%
%TA.AperFunction,ComponentPad*%
%ADD15R,1.700000X1.700000*%
%TD*%
%TA.AperFunction,ComponentPad*%
%ADD16C,1.700000*%
%TD*%
%TA.AperFunction,SMDPad,CuDef*%
%ADD17R,0.600000X1.450000*%
%TD*%
%TA.AperFunction,SMDPad,CuDef*%
%ADD18R,0.300000X1.450000*%
%TD*%
%TA.AperFunction,HeatsinkPad*%
%ADD19O,1.000000X2.100000*%
%TD*%
%TA.AperFunction,HeatsinkPad*%
%ADD20O,1.000000X1.600000*%
%TD*%
%TA.AperFunction,SMDPad,CuDef*%
%ADD21RoundRect,0.135000X0.185000X-0.135000X0.185000X0.135000X-0.185000X0.135000X-0.185000X-0.135000X0*%
%TD*%
%TA.AperFunction,SMDPad,CuDef*%
%ADD22RoundRect,0.140000X0.140000X0.170000X-0.140000X0.170000X-0.140000X-0.170000X0.140000X-0.170000X0*%
%TD*%
%TA.AperFunction,SMDPad,CuDef*%
%ADD23RoundRect,0.050000X-0.387500X-0.050000X0.387500X-0.050000X0.387500X0.050000X-0.387500X0.050000X0*%
%TD*%
%TA.AperFunction,SMDPad,CuDef*%
%ADD24RoundRect,0.050000X-0.050000X-0.387500X0.050000X-0.387500X0.050000X0.387500X-0.050000X0.387500X0*%
%TD*%
%TA.AperFunction,HeatsinkPad*%
%ADD25R,3.200000X3.200000*%
%TD*%
%TA.AperFunction,SMDPad,CuDef*%
%ADD26RoundRect,0.200000X-0.800000X0.200000X-0.800000X-0.200000X0.800000X-0.200000X0.800000X0.200000X0*%
%TD*%
%TA.AperFunction,SMDPad,CuDef*%
%ADD27RoundRect,0.150000X0.150000X-0.512500X0.150000X0.512500X-0.150000X0.512500X-0.150000X-0.512500X0*%
%TD*%
%TA.AperFunction,SMDPad,CuDef*%
%ADD28RoundRect,0.135000X-0.185000X0.135000X-0.185000X-0.135000X0.185000X-0.135000X0.185000X0.135000X0*%
%TD*%
%TA.AperFunction,SMDPad,CuDef*%
%ADD29RoundRect,0.062500X-0.387500X-0.062500X0.387500X-0.062500X0.387500X0.062500X-0.387500X0.062500X0*%
%TD*%
%TA.AperFunction,HeatsinkPad*%
%ADD30R,0.200000X1.600000*%
%TD*%
%TA.AperFunction,SMDPad,CuDef*%
%ADD31RoundRect,0.250000X0.450000X0.350000X-0.450000X0.350000X-0.450000X-0.350000X0.450000X-0.350000X0*%
%TD*%
%TA.AperFunction,ViaPad*%
%ADD32C,0.600000*%
%TD*%
%TA.AperFunction,Conductor*%
%ADD33C,0.200000*%
%TD*%
G04 APERTURE END LIST*
D10*
%TO.P,C14,1*%
%TO.N,+3V3*%
X89250000Y-58612500D03*
%TO.P,C14,2*%
%TO.N,GND*%
X87700000Y-58612500D03*
%TD*%
D11*
%TO.P,C16,1*%
%TO.N,XIN*%
X88181877Y-82132312D03*
%TO.P,C16,2*%
%TO.N,GND*%
X88181877Y-81172312D03*
%TD*%
D12*
%TO.P,C11,1*%
%TO.N,+1V1*%
X94500000Y-78990000D03*
%TO.P,C11,2*%
%TO.N,GND*%
X94500000Y-79950000D03*
%TD*%
D10*
%TO.P,C13,1*%
%TO.N,VBUS*%
X88750000Y-52750000D03*
%TO.P,C13,2*%
%TO.N,GND*%
X87200000Y-52750000D03*
%TD*%
D13*
%TO.P,C5,1*%
%TO.N,+3V3*%
X97040000Y-74500000D03*
%TO.P,C5,2*%
%TO.N,GND*%
X98000000Y-74500000D03*
%TD*%
D11*
%TO.P,C10,1*%
%TO.N,+1V1*%
X94750000Y-68710000D03*
%TO.P,C10,2*%
%TO.N,GND*%
X94750000Y-67750000D03*
%TD*%
D14*
%TO.P,R7,1*%
%TO.N,+3V3*%
X88250000Y-64000000D03*
%TO.P,R7,2*%
%TO.N,QSPI_SS*%
X87230000Y-64000000D03*
%TD*%
D15*
%TO.P,J4,1,Pin_1*%
%TO.N,SWCLK*%
X88960000Y-93390000D03*
D16*
%TO.P,J4,2,Pin_2*%
%TO.N,GND*%
X91500000Y-93390000D03*
%TO.P,J4,3,Pin_3*%
%TO.N,SWDIO*%
X94040000Y-93390000D03*
%TD*%
D17*
%TO.P,J1,A1,GND*%
%TO.N,GND*%
X94930000Y-50445000D03*
%TO.P,J1,A4,VBUS*%
%TO.N,VBUS*%
X94130000Y-50445000D03*
D18*
%TO.P,J1,A5,CC1*%
%TO.N,Net-(J1-CC1)*%
X92930000Y-50445000D03*
%TO.P,J1,A6,D+*%
%TO.N,USB_D+*%
X91930000Y-50445000D03*
%TO.P,J1,A7,D-*%
%TO.N,USB_D-*%
X91430000Y-50445000D03*
%TO.P,J1,A8*%
%TO.N,N/C*%
X90430000Y-50445000D03*
D17*
%TO.P,J1,A9,VBUS*%
%TO.N,VBUS*%
X89230000Y-50445000D03*
%TO.P,J1,A12,GND*%
%TO.N,GND*%
X88430000Y-50445000D03*
%TO.P,J1,B1,GND*%
X88430000Y-50445000D03*
%TO.P,J1,B4,VBUS*%
%TO.N,VBUS*%
X89230000Y-50445000D03*
D18*
%TO.P,J1,B5,CC2*%
%TO.N,Net-(J1-CC2)*%
X89930000Y-50445000D03*
%TO.P,J1,B6,D+*%
%TO.N,USB_D+*%
X90930000Y-50445000D03*
%TO.P,J1,B7,D-*%
%TO.N,USB_D-*%
X92430000Y-50445000D03*
%TO.P,J1,B8*%
%TO.N,N/C*%
X93430000Y-50445000D03*
D17*
%TO.P,J1,B9,VBUS*%
%TO.N,VBUS*%
X94130000Y-50445000D03*
%TO.P,J1,B12,GND*%
%TO.N,GND*%
X94930000Y-50445000D03*
D19*
%TO.P,J1,S1,SHIELD*%
X96000000Y-49530000D03*
D20*
X96000000Y-45350000D03*
D19*
X87360000Y-49530000D03*
D20*
X87360000Y-45350000D03*
%TD*%
D21*
%TO.P,R4,1*%
%TO.N,Net-(U1-USB_DP)*%
X92250000Y-67876473D03*
%TO.P,R4,2*%
%TO.N,USB_D+*%
X92250000Y-66856473D03*
%TD*%
D22*
%TO.P,C6,1*%
%TO.N,+3V3*%
X86340470Y-74925346D03*
%TO.P,C6,2*%
%TO.N,GND*%
X85380470Y-74925346D03*
%TD*%
D15*
%TO.P,J3,1,Pin_1*%
%TO.N,VBUS*%
X100390000Y-45370000D03*
D16*
%TO.P,J3,2,Pin_2*%
%TO.N,GPIO29_ADC3*%
X100390000Y-47910000D03*
%TO.P,J3,3,Pin_3*%
%TO.N,GND*%
X100390000Y-50450000D03*
%TO.P,J3,4,Pin_4*%
%TO.N,GPIO28_ADC2*%
X100390000Y-52990000D03*
%TO.P,J3,5,Pin_5*%
%TO.N,+3V3*%
X100390000Y-55530000D03*
%TO.P,J3,6,Pin_6*%
%TO.N,GPIO27_ADC1*%
X100390000Y-58070000D03*
%TO.P,J3,7,Pin_7*%
%TO.N,GPIO26_ADC0*%
X100390000Y-60610000D03*
%TO.P,J3,8,Pin_8*%
%TO.N,GND*%
X100390000Y-63150000D03*
%TO.P,J3,9,Pin_9*%
%TO.N,GPIO24*%
X100390000Y-65690000D03*
%TO.P,J3,10,Pin_10*%
%TO.N,GPIO23*%
X100390000Y-68230000D03*
%TO.P,J3,11,Pin_11*%
%TO.N,RUN*%
X100390000Y-70770000D03*
%TO.P,J3,12,Pin_12*%
%TO.N,GPIO22*%
X100390000Y-73310000D03*
%TO.P,J3,13,Pin_13*%
%TO.N,GND*%
X100390000Y-75850000D03*
%TO.P,J3,14,Pin_14*%
%TO.N,GPIO21*%
X100390000Y-78390000D03*
%TO.P,J3,15,Pin_15*%
%TO.N,GPIO20*%
X100390000Y-80930000D03*
%TO.P,J3,16,Pin_16*%
%TO.N,GPIO19*%
X100390000Y-83470000D03*
%TO.P,J3,17,Pin_17*%
%TO.N,GPIO18*%
X100390000Y-86010000D03*
%TO.P,J3,18,Pin_18*%
%TO.N,GND*%
X100390000Y-88550000D03*
%TO.P,J3,19,Pin_19*%
%TO.N,GPIO17*%
X100390000Y-91090000D03*
%TO.P,J3,20,Pin_20*%
%TO.N,GPIO16*%
X100390000Y-93630000D03*
%TD*%
D21*
%TO.P,R3,1*%
%TO.N,Net-(U1-USB_DM)*%
X93470945Y-67880415D03*
%TO.P,R3,2*%
%TO.N,USB_D-*%
X93470945Y-66860415D03*
%TD*%
D23*
%TO.P,U1,1,IOVDD*%
%TO.N,+3V3*%
X88062500Y-70900000D03*
%TO.P,U1,2,GPIO0*%
%TO.N,GPIO0*%
X88062500Y-71300000D03*
%TO.P,U1,3,GPIO1*%
%TO.N,GPIO1*%
X88062500Y-71700000D03*
%TO.P,U1,4,GPIO2*%
%TO.N,GPIO2*%
X88062500Y-72100000D03*
%TO.P,U1,5,GPIO3*%
%TO.N,GPIO3*%
X88062500Y-72500000D03*
%TO.P,U1,6,GPIO4*%
%TO.N,GPIO4*%
X88062500Y-72900000D03*
%TO.P,U1,7,GPIO5*%
%TO.N,GPIO5*%
X88062500Y-73300000D03*
%TO.P,U1,8,GPIO6*%
%TO.N,GPIO6*%
X88062500Y-73700000D03*
%TO.P,U1,9,GPIO7*%
%TO.N,GPIO7*%
X88062500Y-74100000D03*
%TO.P,U1,10,IOVDD*%
%TO.N,+3V3*%
X88062500Y-74500000D03*
%TO.P,U1,11,GPIO8*%
%TO.N,GPIO8*%
X88062500Y-74900000D03*
%TO.P,U1,12,GPIO9*%
%TO.N,GPIO9*%
X88062500Y-75300000D03*
%TO.P,U1,13,GPIO10*%
%TO.N,GPIO10*%
X88062500Y-75700000D03*
%TO.P,U1,14,GPIO11*%
%TO.N,GPIO11*%
X88062500Y-76100000D03*
D24*
%TO.P,U1,15,GPIO12*%
%TO.N,GPIO12*%
X88900000Y-76937500D03*
%TO.P,U1,16,GPIO13*%
%TO.N,GPIO13*%
X89300000Y-76937500D03*
%TO.P,U1,17,GPIO14*%
%TO.N,GPIO14*%
X89700000Y-76937500D03*
%TO.P,U1,18,GPIO15*%
%TO.N,GPIO15*%
X90100000Y-76937500D03*
%TO.P,U1,19,TESTEN*%
%TO.N,GND*%
X90500000Y-76937500D03*
%TO.P,U1,20,XIN*%
%TO.N,XIN*%
X90900000Y-76937500D03*
%TO.P,U1,21,XOUT*%
%TO.N,XOUT*%
X91300000Y-76937500D03*
%TO.P,U1,22,IOVDD*%
%TO.N,+3V3*%
X91700000Y-76937500D03*
%TO.P,U1,23,DVDD*%
%TO.N,+1V1*%
X92100000Y-76937500D03*
%TO.P,U1,24,SWCLK*%
%TO.N,SWCLK*%
X92500000Y-76937500D03*
%TO.P,U1,25,SWDIO*%
%TO.N,SWDIO*%
X92900000Y-76937500D03*
%TO.P,U1,26,RUN*%
%TO.N,RUN*%
X93300000Y-76937500D03*
%TO.P,U1,27,GPIO16*%
%TO.N,GPIO16*%
X93700000Y-76937500D03*
%TO.P,U1,28,GPIO17*%
%TO.N,GPIO17*%
X94100000Y-76937500D03*
D23*
%TO.P,U1,29,GPIO18*%
%TO.N,GPIO18*%
X94937500Y-76100000D03*
%TO.P,U1,30,GPIO19*%
%TO.N,GPIO19*%
X94937500Y-75700000D03*
%TO.P,U1,31,GPIO20*%
%TO.N,GPIO20*%
X94937500Y-75300000D03*
%TO.P,U1,32,GPIO21*%
%TO.N,GPIO21*%
X94937500Y-74900000D03*
%TO.P,U1,33,IOVDD*%
%TO.N,+3V3*%
X94937500Y-74500000D03*
%TO.P,U1,34,GPIO22*%
%TO.N,GPIO22*%
X94937500Y-74100000D03*
%TO.P,U1,35,GPIO23*%
%TO.N,GPIO23*%
X94937500Y-73700000D03*
%TO.P,U1,36,GPIO24*%
%TO.N,GPIO24*%
X94937500Y-73300000D03*
%TO.P,U1,37,GPIO25*%
%TO.N,unconnected-(U1-GPIO25-Pad37)*%
X94937500Y-72900000D03*
%TO.P,U1,38,GPIO26/ADC0*%
%TO.N,GPIO26_ADC0*%
X94937500Y-72500000D03*
%TO.P,U1,39,GPIO27/ADC1*%
%TO.N,GPIO27_ADC1*%
X94937500Y-72100000D03*
%TO.P,U1,40,GPIO28/ADC2*%
%TO.N,GPIO28_ADC2*%
X94937500Y-71700000D03*
%TO.P,U1,41,GPIO29/ADC3*%
%TO.N,GPIO29_ADC3*%
X94937500Y-71300000D03*
%TO.P,U1,42,IOVDD*%
%TO.N,+3V3*%
X94937500Y-70900000D03*
D24*
%TO.P,U1,43,ADC_AVDD*%
X94100000Y-70062500D03*
%TO.P,U1,44,VREG_VIN*%
X93700000Y-70062500D03*
%TO.P,U1,45,VREG_VOUT*%
%TO.N,+1V1*%
X93300000Y-70062500D03*
%TO.P,U1,46,USB_DM*%
%TO.N,Net-(U1-USB_DM)*%
X92900000Y-70062500D03*
%TO.P,U1,47,USB_DP*%
%TO.N,Net-(U1-USB_DP)*%
X92500000Y-70062500D03*
%TO.P,U1,48,USB_VDD*%
%TO.N,+3V3*%
X92100000Y-70062500D03*
%TO.P,U1,49,IOVDD*%
X91700000Y-70062500D03*
%TO.P,U1,50,DVDD*%
%TO.N,+1V1*%
X91300000Y-70062500D03*
%TO.P,U1,51,QSPI_SD3*%
%TO.N,QSPI_SD3*%
X90900000Y-70062500D03*
%TO.P,U1,52,QSPI_SCLK*%
%TO.N,QSPI_SCLK*%
X90500000Y-70062500D03*
%TO.P,U1,53,QSPI_SD0*%
%TO.N,QSPI_SD0*%
X90100000Y-70062500D03*
%TO.P,U1,54,QSPI_SD2*%
%TO.N,QSPI_SD2*%
X89700000Y-70062500D03*
%TO.P,U1,55,QSPI_SD1*%
%TO.N,QSPI_SD1*%
X89300000Y-70062500D03*
%TO.P,U1,56,~{QSPI_SS}*%
%TO.N,QSPI_SS*%
X88900000Y-70062500D03*
D25*
%TO.P,U1,57,GND*%
%TO.N,GND*%
X91500000Y-73500000D03*
%TD*%
D13*
%TO.P,C2,1*%
%TO.N,+3V3*%
X96119424Y-70755678D03*
%TO.P,C2,2*%
%TO.N,GND*%
X97079424Y-70755678D03*
%TD*%
D11*
%TO.P,C12,1*%
%TO.N,+1V1*%
X91000000Y-63980000D03*
%TO.P,C12,2*%
%TO.N,GND*%
X91000000Y-63020000D03*
%TD*%
D26*
%TO.P,SW1,1,1*%
%TO.N,GND*%
X95250000Y-57900000D03*
%TO.P,SW1,2,2*%
%TO.N,Net-(R6-Pad1)*%
X95250000Y-62100000D03*
%TD*%
D12*
%TO.P,C15,1*%
%TO.N,Net-(C15-Pad1)*%
X93348422Y-81160543D03*
%TO.P,C15,2*%
%TO.N,GND*%
X93348422Y-82120543D03*
%TD*%
D13*
%TO.P,C1,1*%
%TO.N,+3V3*%
X95790000Y-69750000D03*
%TO.P,C1,2*%
%TO.N,GND*%
X96750000Y-69750000D03*
%TD*%
D27*
%TO.P,U2,1,GND*%
%TO.N,GND*%
X87412500Y-56750000D03*
%TO.P,U2,2,VO*%
%TO.N,+3V3*%
X89312500Y-56750000D03*
%TO.P,U2,3,VI*%
%TO.N,VBUS*%
X88362500Y-54475000D03*
%TD*%
D28*
%TO.P,R2,1*%
%TO.N,Net-(J1-CC2)*%
X90000000Y-52490000D03*
%TO.P,R2,2*%
%TO.N,GND*%
X90000000Y-53510000D03*
%TD*%
D14*
%TO.P,R5,1*%
%TO.N,Net-(C15-Pad1)*%
X92459670Y-79556346D03*
%TO.P,R5,2*%
%TO.N,XOUT*%
X91439670Y-79556346D03*
%TD*%
D15*
%TO.P,J2,1,Pin_1*%
%TO.N,GPIO0*%
X82610000Y-45370000D03*
D16*
%TO.P,J2,2,Pin_2*%
%TO.N,GPIO1*%
X82610000Y-47910000D03*
%TO.P,J2,3,Pin_3*%
%TO.N,GND*%
X82610000Y-50450000D03*
%TO.P,J2,4,Pin_4*%
%TO.N,GPIO2*%
X82610000Y-52990000D03*
%TO.P,J2,5,Pin_5*%
%TO.N,GPIO3*%
X82610000Y-55530000D03*
%TO.P,J2,6,Pin_6*%
%TO.N,GPIO4*%
X82610000Y-58070000D03*
%TO.P,J2,7,Pin_7*%
%TO.N,GPIO5*%
X82610000Y-60610000D03*
%TO.P,J2,8,Pin_8*%
%TO.N,GND*%
X82610000Y-63150000D03*
%TO.P,J2,9,Pin_9*%
%TO.N,GPIO6*%
X82610000Y-65690000D03*
%TO.P,J2,10,Pin_10*%
%TO.N,GPIO7*%
X82610000Y-68230000D03*
%TO.P,J2,11,Pin_11*%
%TO.N,GPIO8*%
X82610000Y-70770000D03*
%TO.P,J2,12,Pin_12*%
%TO.N,GPIO9*%
X82610000Y-73310000D03*
%TO.P,J2,13,Pin_13*%
%TO.N,GND*%
X82610000Y-75850000D03*
%TO.P,J2,14,Pin_14*%
%TO.N,GPIO10*%
X82610000Y-78390000D03*
%TO.P,J2,15,Pin_15*%
%TO.N,GPIO11*%
X82610000Y-80930000D03*
%TO.P,J2,16,Pin_16*%
%TO.N,GPIO12*%
X82610000Y-83470000D03*
%TO.P,J2,17,Pin_17*%
%TO.N,GPIO13*%
X82610000Y-86010000D03*
%TO.P,J2,18,Pin_18*%
%TO.N,GND*%
X82610000Y-88550000D03*
%TO.P,J2,19,Pin_19*%
%TO.N,GPIO14*%
X82610000Y-91090000D03*
%TO.P,J2,20,Pin_20*%
%TO.N,GPIO15*%
X82610000Y-93630000D03*
%TD*%
D29*
%TO.P,U3,1,~{CS}*%
%TO.N,QSPI_SS*%
X86900000Y-65000000D03*
%TO.P,U3,2,DO/IO_{1}*%
%TO.N,QSPI_SD1*%
X86900000Y-65500000D03*
%TO.P,U3,3,~{WP}/IO_{2}*%
%TO.N,QSPI_SD2*%
X86900000Y-66000000D03*
%TO.P,U3,4,GND*%
%TO.N,GND*%
X86900000Y-66500000D03*
%TO.P,U3,5,DI/IO_{0}*%
%TO.N,QSPI_SD0*%
X89750000Y-66500000D03*
%TO.P,U3,6,CLK*%
%TO.N,QSPI_SCLK*%
X89750000Y-66000000D03*
%TO.P,U3,7,~{HOLD}/~{RESET}/IO_{3}*%
%TO.N,QSPI_SD3*%
X89750000Y-65500000D03*
%TO.P,U3,8,VCC*%
%TO.N,+3V3*%
X89750000Y-65000000D03*
D30*
%TO.P,U3,9*%
%TO.N,N/C*%
X88325000Y-65750000D03*
%TD*%
D22*
%TO.P,C9,1*%
%TO.N,+3V3*%
X87230000Y-69250000D03*
%TO.P,C9,2*%
%TO.N,GND*%
X86270000Y-69250000D03*
%TD*%
D31*
%TO.P,Y1,1,1*%
%TO.N,Net-(C15-Pad1)*%
X91850000Y-81000000D03*
%TO.P,Y1,2,G*%
%TO.N,GND*%
X89650000Y-81000000D03*
%TO.P,Y1,3,3*%
%TO.N,XIN*%
X89650000Y-82700000D03*
%TO.P,Y1,4,G*%
%TO.N,GND*%
X91850000Y-82700000D03*
%TD*%
D11*
%TO.P,C7,1*%
%TO.N,+3V3*%
X95750000Y-68710000D03*
%TO.P,C7,2*%
%TO.N,GND*%
X95750000Y-67750000D03*
%TD*%
D13*
%TO.P,C17,1*%
%TO.N,GND*%
X89095000Y-64000000D03*
%TO.P,C17,2*%
%TO.N,+3V3*%
X90055000Y-64000000D03*
%TD*%
D28*
%TO.P,R1,1*%
%TO.N,Net-(J1-CC1)*%
X93250000Y-52230000D03*
%TO.P,R1,2*%
%TO.N,GND*%
X93250000Y-53250000D03*
%TD*%
D11*
%TO.P,C4,1*%
%TO.N,+3V3*%
X92000000Y-65000000D03*
%TO.P,C4,2*%
%TO.N,GND*%
X92000000Y-64040000D03*
%TD*%
D12*
%TO.P,C8,1*%
%TO.N,+3V3*%
X93500000Y-78970000D03*
%TO.P,C8,2*%
%TO.N,GND*%
X93500000Y-79930000D03*
%TD*%
D14*
%TO.P,R6,1*%
%TO.N,Net-(R6-Pad1)*%
X96500000Y-63250000D03*
%TO.P,R6,2*%
%TO.N,QSPI_SS*%
X95480000Y-63250000D03*
%TD*%
D11*
%TO.P,C3,1*%
%TO.N,+3V3*%
X93000000Y-65250000D03*
%TO.P,C3,2*%
%TO.N,GND*%
X93000000Y-64290000D03*
%TD*%
D32*
%TO.N,*%
X46500000Y-47000000D03*
%TO.N,+3V3*%
X89275500Y-72974500D03*
X91150057Y-75750000D03*
X96750000Y-67750000D03*
X92500000Y-71250000D03*
X90701000Y-65000000D03*
X92000000Y-63000000D03*
X92000000Y-66000000D03*
X91250000Y-56750000D03*
X93750000Y-73750000D03*
X92000000Y-68750000D03*
%TO.N,GND*%
X84250000Y-76750000D03*
X98250000Y-85250000D03*
X89095000Y-64000000D03*
X85500000Y-51250000D03*
X96750000Y-66250000D03*
X96250000Y-52250000D03*
X99250000Y-74750000D03*
X84500000Y-88500000D03*
X98500000Y-52250000D03*
X99250000Y-64250000D03*
X90000000Y-79250000D03*
X88500000Y-57250000D03*
X87250000Y-88000000D03*
X95000000Y-85000000D03*
X91000000Y-73500000D03*
X86270000Y-69250000D03*
X88174265Y-67325735D03*
X89000000Y-75800003D03*
X89000000Y-75800003D03*
%TO.N,+1V1*%
X93750000Y-74750000D03*
X95500000Y-80250000D03*
X94750000Y-66750000D03*
X90345194Y-70989929D03*
%TO.N,GPIO5*%
X85400000Y-63500000D03*
X85338151Y-60605228D03*
%TO.N,GPIO4*%
X86250000Y-57750000D03*
X85750000Y-64500000D03*
%TO.N,GPIO8*%
X89000000Y-75000000D03*
%TO.N,GPIO0*%
X86750000Y-70250000D03*
%TO.N,GPIO9*%
X86000000Y-75750000D03*
X84500000Y-75000000D03*
%TO.N,GPIO2*%
X86053000Y-71450735D03*
%TO.N,GPIO3*%
X86250000Y-68250000D03*
X86250000Y-58750000D03*
%TO.N,GPIO1*%
X86053000Y-70650732D03*
%TO.N,GPIO28_ADC2*%
X93750000Y-72250000D03*
X97750000Y-58300003D03*
%TO.N,GPIO29_ADC3*%
X97000000Y-57350000D03*
X94017967Y-71230619D03*
%TO.N,RUN*%
X94000000Y-75723989D03*
%TO.N,SWCLK*%
X92000000Y-75750000D03*
%TO.N,SWDIO*%
X92785814Y-75599999D03*
%TO.N,QSPI_SS*%
X95500000Y-64250000D03*
X88500000Y-62250000D03*
%TD*%
D33*
%TO.N,+3V3*%
X94937500Y-74500000D02*
X94404226Y-74500000D01*
X90055000Y-64354000D02*
X90701000Y-65000000D01*
X96119424Y-70755678D02*
X95081822Y-70755678D01*
X89444000Y-63389000D02*
X90055000Y-64000000D01*
X91700000Y-77950000D02*
X91700000Y-76937500D01*
X92000000Y-68750000D02*
X91701000Y-69049000D01*
X95790000Y-69750000D02*
X95790000Y-69710000D01*
X89250000Y-59399550D02*
X89250000Y-58612500D01*
X89599000Y-71599000D02*
X89275500Y-71922500D01*
X91700000Y-70062500D02*
X91700000Y-70450000D01*
X92250000Y-78500000D02*
X91700000Y-77950000D01*
X92000000Y-63000000D02*
X91800225Y-62800225D01*
X88062500Y-70062500D02*
X88062500Y-70900000D01*
X88541001Y-63389000D02*
X89444000Y-63389000D01*
X87250000Y-74501000D02*
X87526226Y-74501000D01*
X88062500Y-74500000D02*
X87251000Y-74500000D01*
X91700000Y-70450000D02*
X92500000Y-71250000D01*
X88250000Y-64000000D02*
X88250000Y-63680001D01*
X87251000Y-74500000D02*
X87250000Y-74501000D01*
X89312500Y-58550000D02*
X89250000Y-58612500D01*
X95750000Y-68710000D02*
X94397500Y-70062500D01*
X89312500Y-56750000D02*
X89312500Y-58550000D01*
X92000000Y-64980000D02*
X92000000Y-66000000D01*
X90055000Y-64000000D02*
X90055000Y-64354000D01*
X86764816Y-74501000D02*
X87250000Y-74501000D01*
X94397500Y-70062500D02*
X93700000Y-70062500D01*
X92000000Y-65000000D02*
X92750000Y-65000000D01*
X95081822Y-70755678D02*
X94937500Y-70900000D01*
X93030000Y-78500000D02*
X92250000Y-78500000D01*
X88801000Y-71103226D02*
X88597774Y-70900000D01*
X93700000Y-70062500D02*
X93700000Y-70700057D01*
X92100000Y-70850000D02*
X92500000Y-71250000D01*
X92099000Y-70061500D02*
X92100000Y-70062500D01*
X89275500Y-72974500D02*
X88801000Y-72500000D01*
X93150057Y-71250000D02*
X92500000Y-71250000D01*
X92151000Y-71599000D02*
X89599000Y-71599000D01*
X91800225Y-61949775D02*
X89250000Y-59399550D01*
X88801000Y-72500000D02*
X88801000Y-71103226D01*
X90055000Y-64695000D02*
X89750000Y-65000000D01*
X95790000Y-69750000D02*
X95790000Y-70426254D01*
X88801000Y-74349057D02*
X88801000Y-72500000D01*
X92099000Y-68849000D02*
X92099000Y-70061500D01*
X91700000Y-76299943D02*
X91700000Y-76937500D01*
X93500000Y-78970000D02*
X93030000Y-78500000D01*
X95790000Y-70426254D02*
X96119424Y-70755678D01*
X90055000Y-64000000D02*
X90055000Y-64695000D01*
X88062500Y-74500000D02*
X88650057Y-74500000D01*
X93750000Y-73847774D02*
X94403226Y-74501000D01*
X88597774Y-70900000D02*
X88062500Y-70900000D01*
X91701000Y-69049000D02*
X91701000Y-70062500D01*
X97040000Y-74500000D02*
X94937500Y-74500000D01*
X96750000Y-68750000D02*
X96750000Y-67750000D01*
X93700000Y-70700057D02*
X93150057Y-71250000D01*
X95790000Y-69710000D02*
X96750000Y-68750000D01*
X93710000Y-64540000D02*
X93710000Y-63859550D01*
X96571178Y-67928822D02*
X96750000Y-67750000D01*
X95790000Y-68750000D02*
X95750000Y-68710000D01*
X86340470Y-74925346D02*
X86764816Y-74501000D01*
X93710000Y-63859550D02*
X91800225Y-61949775D01*
X95790000Y-69750000D02*
X95790000Y-68750000D01*
X93000000Y-65250000D02*
X93710000Y-64540000D01*
X94404226Y-74500000D02*
X94403226Y-74501000D01*
X87250000Y-69250000D02*
X88062500Y-70062500D01*
X88650057Y-74500000D02*
X88801000Y-74349057D01*
X92100000Y-70062500D02*
X92100000Y-70850000D01*
X88250000Y-63680001D02*
X88541001Y-63389000D01*
X93750000Y-73750000D02*
X93750000Y-73847774D01*
X92500000Y-71250000D02*
X92151000Y-71599000D01*
X91800225Y-62800225D02*
X91800225Y-61949775D01*
X89275500Y-71922500D02*
X89275500Y-72974500D01*
X92000000Y-68750000D02*
X92099000Y-68849000D01*
X91150057Y-75750000D02*
X91700000Y-76299943D01*
X92750000Y-65000000D02*
X93000000Y-65250000D01*
X89312500Y-56750000D02*
X91250000Y-56750000D01*
X95750000Y-68710000D02*
X95852356Y-68710000D01*
%TO.N,GND*%
X90000000Y-79250000D02*
X90000000Y-79500000D01*
X88174265Y-67325735D02*
X88174265Y-66924265D01*
X85380470Y-76369530D02*
X85380470Y-74925346D01*
X82660000Y-88500000D02*
X82610000Y-88550000D01*
X100390000Y-63150000D02*
X100350000Y-63150000D01*
X84700000Y-50450000D02*
X85500000Y-51250000D01*
X96750000Y-69750000D02*
X97351000Y-69149000D01*
X92270000Y-64290000D02*
X91000000Y-63020000D01*
X89000000Y-75800003D02*
X89199997Y-76000000D01*
X82610000Y-50450000D02*
X84700000Y-50450000D01*
X94500000Y-79950000D02*
X93520000Y-79950000D01*
X89897200Y-74902803D02*
X89897200Y-73677292D01*
X91000000Y-73500000D02*
X91500000Y-73500000D01*
X90074492Y-73500000D02*
X91000000Y-73500000D01*
X90500000Y-76402226D02*
X90500000Y-76937500D01*
X94930000Y-50445000D02*
X94930000Y-50930000D01*
X97351000Y-66851000D02*
X96750000Y-66250000D01*
X88174265Y-66924265D02*
X87750000Y-66500000D01*
X89199997Y-76000000D02*
X90097774Y-76000000D01*
X97079424Y-70755678D02*
X97079424Y-70079424D01*
X88181877Y-81172312D02*
X89477688Y-81172312D01*
X90097774Y-76000000D02*
X90500000Y-76402226D01*
X94930000Y-50930000D02*
X96250000Y-52250000D01*
X89897200Y-73677292D02*
X90074492Y-73500000D01*
X88500000Y-57812500D02*
X87700000Y-58612500D01*
X89248943Y-75601000D02*
X89601000Y-75248943D01*
X84500000Y-88500000D02*
X82660000Y-88500000D01*
X94750000Y-67750000D02*
X95750000Y-67750000D01*
X99000000Y-74500000D02*
X99250000Y-74750000D01*
X89601000Y-75248943D02*
X89601000Y-75199003D01*
X89601000Y-75199003D02*
X89897200Y-74902803D01*
X93520000Y-79950000D02*
X93500000Y-79930000D01*
X93000000Y-64290000D02*
X92270000Y-64290000D01*
X97079424Y-70079424D02*
X96750000Y-69750000D01*
X85000000Y-76750000D02*
X85380470Y-76369530D01*
X87750000Y-66500000D02*
X86900000Y-66500000D01*
X97351000Y-69149000D02*
X97351000Y-66851000D01*
X89000000Y-75800003D02*
X89199003Y-75601000D01*
X89650000Y-79850000D02*
X89650000Y-81000000D01*
X90000000Y-79500000D02*
X89650000Y-79850000D01*
X88500000Y-57250000D02*
X88500000Y-57812500D01*
X92768965Y-82700000D02*
X93348422Y-82120543D01*
X84250000Y-76750000D02*
X85000000Y-76750000D01*
X91850000Y-82700000D02*
X92768965Y-82700000D01*
X89199003Y-75601000D02*
X89248943Y-75601000D01*
X84510000Y-61250000D02*
X88000000Y-61250000D01*
X98000000Y-74500000D02*
X99000000Y-74500000D01*
X82610000Y-63150000D02*
X84510000Y-61250000D01*
X89477688Y-81172312D02*
X89650000Y-81000000D01*
X100350000Y-63150000D02*
X99250000Y-64250000D01*
%TO.N,+1V1*%
X91301000Y-68500000D02*
X91301000Y-69526226D01*
X90345194Y-70989929D02*
X91010071Y-70989929D01*
X94750000Y-68710000D02*
X94139000Y-68099000D01*
X94750000Y-68710000D02*
X94750000Y-69000000D01*
X91300000Y-70700000D02*
X91300000Y-70062500D01*
X93300000Y-70062500D02*
X93300000Y-69527226D01*
X92100000Y-77782900D02*
X92101000Y-77783900D01*
X94750000Y-69000000D02*
X94361387Y-69388613D01*
X91010071Y-70989929D02*
X91300000Y-70700000D01*
X94361387Y-69388613D02*
X94296774Y-69324000D01*
X94500000Y-78990000D02*
X95500000Y-79990000D01*
X94296774Y-69324000D02*
X93503226Y-69324000D01*
X91000000Y-63980000D02*
X90980000Y-63980000D01*
X93750000Y-78389000D02*
X93460000Y-78099000D01*
X91300000Y-68501000D02*
X91301000Y-68500000D01*
X93460000Y-78099000D02*
X92416100Y-78099000D01*
X94139000Y-68099000D02*
X94139000Y-67361000D01*
X91000000Y-63980000D02*
X91301000Y-64281000D01*
X95500000Y-79990000D02*
X95500000Y-80250000D01*
X94139000Y-67361000D02*
X94750000Y-66750000D01*
X94500000Y-78990000D02*
X93899000Y-78389000D01*
X93503226Y-69324000D02*
X93300000Y-69527226D01*
X92416100Y-78099000D02*
X92101000Y-77783900D01*
X92100000Y-76937500D02*
X92100000Y-77782900D01*
X93899000Y-78389000D02*
X93750000Y-78389000D01*
X91301000Y-64281000D02*
X91301000Y-68500000D01*
X92101000Y-77783900D02*
X92101000Y-77473774D01*
X91300000Y-70062500D02*
X91300000Y-68501000D01*
%TO.N,VBUS*%
X93894000Y-48719992D02*
X95363992Y-47250000D01*
X88750000Y-52750000D02*
X89230000Y-52270000D01*
X95363992Y-47250000D02*
X98510000Y-47250000D01*
X88362500Y-54475000D02*
X88362500Y-53137500D01*
X98510000Y-47250000D02*
X100390000Y-45370000D01*
X89230000Y-49520000D02*
X90030008Y-48719992D01*
X89230000Y-50445000D02*
X89230000Y-49520000D01*
X88362500Y-53137500D02*
X88750000Y-52750000D01*
X94130000Y-50445000D02*
X93894000Y-50209000D01*
X93894000Y-48750000D02*
X93894000Y-48719992D01*
X90030008Y-48719992D02*
X93894000Y-48719992D01*
X93894000Y-50209000D02*
X93894000Y-48750000D01*
X89230000Y-52270000D02*
X89230000Y-50445000D01*
%TO.N,Net-(C15-Pad1)*%
X91850000Y-81000000D02*
X93187879Y-81000000D01*
X91850000Y-80166016D02*
X92459670Y-79556346D01*
X93187879Y-81000000D02*
X93348422Y-81160543D01*
X91850000Y-81000000D02*
X91850000Y-80166016D01*
%TO.N,XIN*%
X90868670Y-79500000D02*
X90849000Y-79519670D01*
X90849000Y-79519670D02*
X90849000Y-81501000D01*
X90900000Y-78619986D02*
X90868670Y-78651316D01*
X90868670Y-78651316D02*
X90868670Y-79500000D01*
X90900000Y-76937500D02*
X90900000Y-78619986D01*
X88181877Y-82132312D02*
X89082312Y-82132312D01*
X89082312Y-82132312D02*
X89650000Y-82700000D01*
X90849000Y-81501000D02*
X89650000Y-82700000D01*
%TO.N,Net-(J1-CC1)*%
X92930000Y-51910000D02*
X93250000Y-52230000D01*
X92930000Y-50445000D02*
X92930000Y-51910000D01*
%TO.N,USB_D+*%
X91881000Y-51471000D02*
X90979000Y-51471000D01*
X91930000Y-51422000D02*
X91881000Y-51471000D01*
X93167550Y-66250000D02*
X92856473Y-66250000D01*
X91930000Y-51532501D02*
X91955000Y-51557501D01*
X94111000Y-65306550D02*
X93167550Y-66250000D01*
X92856473Y-66250000D02*
X92250000Y-66856473D01*
X90930000Y-51422000D02*
X90930000Y-50445000D01*
X91930000Y-50445000D02*
X91955000Y-50470000D01*
X94111000Y-63693450D02*
X94111000Y-65306550D01*
X91955000Y-51557501D02*
X91955000Y-61537450D01*
X90979000Y-51471000D02*
X90930000Y-51422000D01*
X91955000Y-50470000D02*
X91955000Y-50949491D01*
X91930000Y-50445000D02*
X91930000Y-51422000D01*
X91955000Y-61537450D02*
X94111000Y-63693450D01*
X91930000Y-50445000D02*
X91930000Y-51532501D01*
%TO.N,USB_D-*%
X92430000Y-49468000D02*
X92430000Y-50445000D01*
X93470945Y-66860415D02*
X94560980Y-65770380D01*
X92405000Y-58987451D02*
X92405000Y-58823381D01*
X92405000Y-58653886D02*
X92405000Y-51557501D01*
X94560980Y-65770380D02*
X94560980Y-63507062D01*
X92405000Y-58823381D02*
X92405000Y-58653886D01*
X92405000Y-61351082D02*
X92405000Y-60023381D01*
X92405000Y-51557501D02*
X92430000Y-51532501D01*
X92840930Y-59587451D02*
X92840930Y-59423381D01*
X92430000Y-50445000D02*
X92405000Y-50470000D01*
X91430000Y-49468000D02*
X91479000Y-49419000D01*
X92405000Y-50470000D02*
X92405000Y-50949491D01*
X91430000Y-50445000D02*
X91430000Y-49468000D01*
X91479000Y-49419000D02*
X92381000Y-49419000D01*
X94560980Y-63507062D02*
X92405000Y-61351082D01*
X92430000Y-51532501D02*
X92430000Y-50445000D01*
X92381000Y-49419000D02*
X92430000Y-49468000D01*
X92622965Y-59205416D02*
G75*
G02*
X92405084Y-58987451I35J217916D01*
G01*
X92840930Y-59423381D02*
G75*
G03*
X92622965Y-59205470I-217930J-19D01*
G01*
X92405000Y-60023381D02*
G75*
G02*
X92622965Y-59805400I218000J-19D01*
G01*
X92622965Y-59805416D02*
G75*
G03*
X92840916Y-59587451I35J217916D01*
G01*
%TO.N,Net-(J1-CC2)*%
X89930000Y-52420000D02*
X89930000Y-50445000D01*
X90000000Y-52490000D02*
X89930000Y-52420000D01*
%TO.N,GPIO11*%
X83820000Y-80930000D02*
X82610000Y-80930000D01*
X84698000Y-80052000D02*
X83820000Y-80930000D01*
X87000000Y-77162500D02*
X87000000Y-77198000D01*
X86167800Y-77198000D02*
X84698000Y-78667800D01*
X87000000Y-77198000D02*
X86167800Y-77198000D01*
X88062500Y-76100000D02*
X87000000Y-77162500D01*
X84698000Y-78667800D02*
X84698000Y-80052000D01*
%TO.N,GPIO6*%
X85200000Y-73700000D02*
X84250000Y-72750000D01*
X84250000Y-72750000D02*
X84250000Y-69302900D01*
X84250000Y-69302900D02*
X83707430Y-68760330D01*
X83707430Y-68760330D02*
X83761000Y-68706760D01*
X83761000Y-68706760D02*
X83761000Y-67511000D01*
X83761000Y-67511000D02*
X82610000Y-66360000D01*
X82610000Y-66360000D02*
X82610000Y-65690000D01*
X88062500Y-73700000D02*
X85200000Y-73700000D01*
%TO.N,GPIO14*%
X85901000Y-79166100D02*
X85901000Y-89849000D01*
X89166100Y-78401000D02*
X86666100Y-78401000D01*
X85901000Y-89849000D02*
X84660000Y-91090000D01*
X89701000Y-77866100D02*
X89166100Y-78401000D01*
X89700000Y-77532900D02*
X89701000Y-77533900D01*
X89700000Y-76937500D02*
X89700000Y-77532900D01*
X84660000Y-91090000D02*
X82610000Y-91090000D01*
X89701000Y-77533900D02*
X89701000Y-77866100D01*
X86666100Y-78401000D02*
X85901000Y-79166100D01*
%TO.N,GPIO15*%
X90102000Y-77367800D02*
X90102000Y-78032200D01*
X90100000Y-77365800D02*
X90102000Y-77367800D01*
X89332200Y-78802000D02*
X86948000Y-78802000D01*
X86302000Y-79448000D02*
X86302000Y-92448000D01*
X85120000Y-93630000D02*
X82610000Y-93630000D01*
X86302000Y-92448000D02*
X85120000Y-93630000D01*
X86948000Y-78802000D02*
X86302000Y-79448000D01*
X90100000Y-76937500D02*
X90100000Y-77365800D01*
X90102000Y-78032200D02*
X89332200Y-78802000D01*
%TO.N,GPIO13*%
X84990000Y-86010000D02*
X82610000Y-86010000D01*
X85500000Y-79000000D02*
X85500000Y-85500000D01*
X89000000Y-78000000D02*
X86500000Y-78000000D01*
X89300000Y-76937500D02*
X89300000Y-77700000D01*
X86500000Y-78000000D02*
X85500000Y-79000000D01*
X89300000Y-77700000D02*
X89000000Y-78000000D01*
X85500000Y-85500000D02*
X84990000Y-86010000D01*
%TO.N,GPIO5*%
X84651000Y-72401000D02*
X84651000Y-64249000D01*
X88062500Y-73300000D02*
X85550000Y-73300000D01*
X85550000Y-73300000D02*
X84651000Y-72401000D01*
X84651000Y-64249000D02*
X85400000Y-63500000D01*
X85338151Y-60605228D02*
X85333379Y-60610000D01*
X85333379Y-60610000D02*
X82610000Y-60610000D01*
X82714000Y-60714000D02*
X82610000Y-60610000D01*
%TO.N,GPIO10*%
X84360000Y-78390000D02*
X82610000Y-78390000D01*
X86500000Y-76250000D02*
X84360000Y-78390000D01*
X87300000Y-75700000D02*
X86750000Y-76250000D01*
X88062500Y-75700000D02*
X87300000Y-75700000D01*
X86750000Y-76250000D02*
X86500000Y-76250000D01*
%TO.N,GPIO4*%
X85900000Y-72900000D02*
X88062500Y-72900000D01*
X86498943Y-59351000D02*
X83891000Y-59351000D01*
X83750000Y-59500000D02*
X83750000Y-59210000D01*
X83750000Y-59210000D02*
X82610000Y-58070000D01*
X85750000Y-64500000D02*
X85750000Y-65000000D01*
X85052000Y-65698000D02*
X85052000Y-72052000D01*
X85750000Y-65000000D02*
X85052000Y-65698000D01*
X86250000Y-57750000D02*
X86851000Y-58351000D01*
X86851000Y-58998943D02*
X86498943Y-59351000D01*
X85052000Y-72052000D02*
X85900000Y-72900000D01*
X86851000Y-58351000D02*
X86851000Y-58998943D01*
X83891000Y-59351000D02*
X82610000Y-58070000D01*
%TO.N,GPIO12*%
X84030000Y-83470000D02*
X82610000Y-83470000D01*
X85099000Y-82401000D02*
X84030000Y-83470000D01*
X85099000Y-78833900D02*
X85099000Y-82401000D01*
X87901000Y-77599000D02*
X86333900Y-77599000D01*
X88562500Y-76937500D02*
X87901000Y-77599000D01*
X86333900Y-77599000D02*
X85099000Y-78833900D01*
X88900000Y-76937500D02*
X88562500Y-76937500D01*
%TO.N,GPIO8*%
X88900000Y-74900000D02*
X89000000Y-75000000D01*
X88062500Y-74900000D02*
X88900000Y-74900000D01*
%TO.N,GPIO0*%
X86750000Y-70522774D02*
X86750000Y-70250000D01*
X87527226Y-71300000D02*
X86750000Y-70522774D01*
X88062500Y-71300000D02*
X87527226Y-71300000D01*
%TO.N,GPIO9*%
X87134900Y-75300000D02*
X87133900Y-75299000D01*
X84500000Y-74317100D02*
X83492900Y-73310000D01*
X86000000Y-75750000D02*
X86682900Y-75750000D01*
X86682900Y-75750000D02*
X87133900Y-75299000D01*
X87133900Y-75299000D02*
X87526226Y-75299000D01*
X88062500Y-75300000D02*
X87134900Y-75300000D01*
X84500000Y-75000000D02*
X84500000Y-74317100D01*
X83492900Y-73310000D02*
X82610000Y-73310000D01*
%TO.N,GPIO7*%
X88062500Y-74100000D02*
X84850000Y-74100000D01*
X83761000Y-73011000D02*
X83761000Y-69381000D01*
X83761000Y-69381000D02*
X82610000Y-68230000D01*
X84850000Y-74100000D02*
X83761000Y-73011000D01*
%TO.N,GPIO2*%
X86702265Y-72100000D02*
X86053000Y-71450735D01*
X86053000Y-71450735D02*
X86100000Y-71450735D01*
X88062500Y-72100000D02*
X86702265Y-72100000D01*
%TO.N,GPIO3*%
X85453000Y-69047000D02*
X86250000Y-68250000D01*
X88062500Y-72500000D02*
X86250000Y-72500000D01*
X85830000Y-58750000D02*
X82610000Y-55530000D01*
X85453000Y-71703000D02*
X85453000Y-69047000D01*
X86250000Y-58750000D02*
X85830000Y-58750000D01*
X86250000Y-72500000D02*
X85453000Y-71703000D01*
%TO.N,GPIO1*%
X86053000Y-70650732D02*
X86150732Y-70650732D01*
X87200000Y-71700000D02*
X88062500Y-71700000D01*
X86150732Y-70650732D02*
X87200000Y-71700000D01*
%TO.N,GPIO19*%
X98198000Y-76198000D02*
X98198000Y-81278000D01*
X98000000Y-76000000D02*
X98198000Y-76198000D01*
X98198000Y-81278000D02*
X100390000Y-83470000D01*
X94937500Y-75700000D02*
X95950000Y-75700000D01*
X96250000Y-76000000D02*
X98000000Y-76000000D01*
X95950000Y-75700000D02*
X96250000Y-76000000D01*
%TO.N,GPIO28_ADC2*%
X97800003Y-58250000D02*
X97849943Y-58250000D01*
X98750000Y-57349943D02*
X98750000Y-54630000D01*
X94402226Y-71700000D02*
X94937500Y-71700000D01*
X97849943Y-58250000D02*
X98750000Y-57349943D01*
X98750000Y-54630000D02*
X100390000Y-52990000D01*
X94102226Y-72000000D02*
X94402226Y-71700000D01*
X97750000Y-58300003D02*
X97800003Y-58250000D01*
X93750000Y-72250000D02*
X94000000Y-72000000D01*
X94000000Y-72000000D02*
X94102226Y-72000000D01*
%TO.N,GPIO18*%
X95901000Y-76401000D02*
X97651000Y-76401000D01*
X95600000Y-76100000D02*
X95901000Y-76401000D01*
X94937500Y-76100000D02*
X95600000Y-76100000D01*
X97797000Y-83417000D02*
X100390000Y-86010000D01*
X97651000Y-76401000D02*
X97797000Y-76547000D01*
X97797000Y-76547000D02*
X97797000Y-83417000D01*
%TO.N,GPIO22*%
X99950000Y-73750000D02*
X100390000Y-73310000D01*
X96852450Y-73750000D02*
X99950000Y-73750000D01*
X96502450Y-74100000D02*
X96852450Y-73750000D01*
X94937500Y-74100000D02*
X96502450Y-74100000D01*
%TO.N,GPIO21*%
X99000000Y-75750000D02*
X99000000Y-77000000D01*
X94937500Y-74900000D02*
X96502450Y-74900000D01*
X99000000Y-77000000D02*
X100390000Y-78390000D01*
X98361000Y-75111000D02*
X99000000Y-75750000D01*
X96502450Y-74900000D02*
X96713450Y-75111000D01*
X96713450Y-75111000D02*
X98361000Y-75111000D01*
%TO.N,GPIO29_ADC3*%
X94017967Y-71267967D02*
X94050000Y-71300000D01*
X97750000Y-56600000D02*
X97750000Y-50550000D01*
X94017967Y-71230619D02*
X94017967Y-71267967D01*
X97750000Y-50550000D02*
X100390000Y-47910000D01*
X94050000Y-71300000D02*
X94937500Y-71300000D01*
X97000000Y-57350000D02*
X97750000Y-56600000D01*
%TO.N,GPIO27_ADC1*%
X98000000Y-71750000D02*
X98000000Y-60460000D01*
X94937500Y-72100000D02*
X97650000Y-72100000D01*
X97650000Y-72100000D02*
X98000000Y-71750000D01*
X98000000Y-60460000D02*
X100390000Y-58070000D01*
%TO.N,RUN*%
X94000000Y-75723989D02*
X93973989Y-75750000D01*
X93678090Y-75750000D02*
X93300000Y-76128090D01*
X93973989Y-75750000D02*
X93678090Y-75750000D01*
X93300000Y-76128090D02*
X93300000Y-76937500D01*
%TO.N,GPIO20*%
X94937500Y-75300000D02*
X96335350Y-75300000D01*
X98599000Y-79139000D02*
X100390000Y-80930000D01*
X98599000Y-75916100D02*
X98599000Y-79139000D01*
X96547350Y-75512000D02*
X98194900Y-75512000D01*
X98194900Y-75512000D02*
X98599000Y-75916100D01*
X96335350Y-75300000D02*
X96547350Y-75512000D01*
%TO.N,GPIO26_ADC0*%
X98437000Y-62563000D02*
X100390000Y-60610000D01*
X98000000Y-72500000D02*
X98250000Y-72250000D01*
X94937500Y-72500000D02*
X98000000Y-72500000D01*
X98437000Y-72250000D02*
X98437000Y-62563000D01*
X98250000Y-72250000D02*
X98437000Y-72250000D01*
%TO.N,GPIO24*%
X94937500Y-73300000D02*
X96168250Y-73300000D01*
X98838000Y-72662000D02*
X98838000Y-67242000D01*
X96520250Y-72948000D02*
X98552000Y-72948000D01*
X98838000Y-67242000D02*
X100390000Y-65690000D01*
X96168250Y-73300000D02*
X96520250Y-72948000D01*
X98552000Y-72948000D02*
X98838000Y-72662000D01*
%TO.N,GPIO23*%
X99151000Y-73349000D02*
X96686350Y-73349000D01*
X99239000Y-70293240D02*
X99239000Y-73261000D01*
X100390000Y-69142240D02*
X99239000Y-70293240D01*
X96335350Y-73700000D02*
X94937500Y-73700000D01*
X100390000Y-68230000D02*
X100390000Y-69142240D01*
X96686350Y-73349000D02*
X96335350Y-73700000D01*
X99239000Y-73261000D02*
X99151000Y-73349000D01*
%TO.N,GPIO16*%
X94000000Y-78000000D02*
X96500000Y-78000000D01*
X96995000Y-78495000D02*
X96995000Y-90235000D01*
X96995000Y-90235000D02*
X100390000Y-93630000D01*
X93700000Y-77700000D02*
X94000000Y-78000000D01*
X93700000Y-76937500D02*
X93700000Y-77700000D01*
X96500000Y-78000000D02*
X96995000Y-78495000D01*
%TO.N,GPIO17*%
X97396000Y-88096000D02*
X100390000Y-91090000D01*
X94100000Y-76937500D02*
X96937500Y-76937500D01*
X96937500Y-76937500D02*
X97396000Y-77396000D01*
X97396000Y-77396000D02*
X97396000Y-88096000D01*
%TO.N,SWCLK*%
X92500000Y-76937500D02*
X92500000Y-76250000D01*
X92500000Y-76250000D02*
X92000000Y-75750000D01*
%TO.N,SWDIO*%
X92785814Y-75687286D02*
X92900000Y-75801472D01*
X92785814Y-75599999D02*
X92785814Y-75687286D01*
X92900000Y-75801472D02*
X92900000Y-76937500D01*
%TO.N,Net-(U1-USB_DM)*%
X93470945Y-68029055D02*
X93002000Y-68498000D01*
X92900000Y-70062500D02*
X92900000Y-69360126D01*
X92900000Y-69360126D02*
X93002000Y-69258126D01*
X93002000Y-68498000D02*
X93002000Y-69258126D01*
X93470945Y-67880415D02*
X93470945Y-68029055D01*
%TO.N,Net-(U1-USB_DP)*%
X92601000Y-68227473D02*
X92601000Y-68998943D01*
X92601000Y-68998943D02*
X92500000Y-69099943D01*
X92250000Y-67876473D02*
X92601000Y-68227473D01*
X92500000Y-69099943D02*
X92500000Y-70062500D01*
%TO.N,XOUT*%
X91300000Y-79416676D02*
X91300000Y-76937500D01*
X91439670Y-79556346D02*
X91300000Y-79416676D01*
%TO.N,Net-(R6-Pad1)*%
X95350000Y-62100000D02*
X95250000Y-62100000D01*
X96500000Y-63250000D02*
X95350000Y-62100000D01*
%TO.N,QSPI_SS*%
X86333900Y-67651000D02*
X87000000Y-67651000D01*
X86498943Y-63899000D02*
X86599943Y-64000000D01*
X86000000Y-63750000D02*
X86149000Y-63899000D01*
X85599000Y-65768102D02*
X85599000Y-66916100D01*
X86599943Y-64000000D02*
X87230000Y-64000000D01*
X95500000Y-64250000D02*
X95500000Y-63270000D01*
X95500000Y-63270000D02*
X95480000Y-63250000D01*
X88500000Y-62250000D02*
X86750000Y-62250000D01*
X87230000Y-64670000D02*
X86900000Y-65000000D01*
X87000000Y-67651000D02*
X88900000Y-69551000D01*
X86000000Y-63000000D02*
X86000000Y-63750000D01*
X86149000Y-63899000D02*
X86498943Y-63899000D01*
X86367102Y-65000000D02*
X85599000Y-65768102D01*
X87230000Y-64000000D02*
X87230000Y-64670000D01*
X85599000Y-66916100D02*
X86333900Y-67651000D01*
X86900000Y-65000000D02*
X86367102Y-65000000D01*
X88900000Y-69551000D02*
X88900000Y-70062500D01*
X86750000Y-62250000D02*
X86000000Y-63000000D01*
%TO.N,QSPI_SD2*%
X87365798Y-66000000D02*
X86900000Y-66000000D01*
X87750000Y-65000000D02*
X87750000Y-65615798D01*
X89700000Y-70062500D02*
X89700000Y-67450000D01*
X88101000Y-64649000D02*
X87750000Y-65000000D01*
X89000000Y-64750000D02*
X88899000Y-64649000D01*
X87750000Y-65615798D02*
X87365798Y-66000000D01*
X89700000Y-67450000D02*
X89000000Y-66750000D01*
X88899000Y-64649000D02*
X88101000Y-64649000D01*
X89000000Y-66750000D02*
X89000000Y-64750000D01*
%TO.N,QSPI_SD3*%
X90900000Y-66117102D02*
X90900000Y-70062500D01*
X89750000Y-65500000D02*
X90282898Y-65500000D01*
X90282898Y-65500000D02*
X90900000Y-66117102D01*
%TO.N,QSPI_SD0*%
X90100000Y-66850000D02*
X90100000Y-70062500D01*
X89750000Y-66500000D02*
X90100000Y-66850000D01*
%TO.N,QSPI_SD1*%
X86000000Y-65934202D02*
X86000000Y-66750000D01*
X86434202Y-65500000D02*
X86000000Y-65934202D01*
X89300000Y-69300000D02*
X89300000Y-70062500D01*
X86500000Y-67250000D02*
X87250000Y-67250000D01*
X87250000Y-67250000D02*
X89300000Y-69300000D01*
X86900000Y-65500000D02*
X86434202Y-65500000D01*
X86000000Y-66750000D02*
X86500000Y-67250000D01*
%TO.N,QSPI_SCLK*%
X90500000Y-66284202D02*
X90500000Y-70062500D01*
X90215798Y-66000000D02*
X90500000Y-66284202D01*
X89750000Y-66000000D02*
X90215798Y-66000000D01*
%TD*%
%TA.AperFunction,Conductor*%
%TO.N,GND*%
G36*
X90405979Y-78397124D02*
G01*
X90461913Y-78438995D01*
X90486330Y-78504460D01*
X90482423Y-78545390D01*
X90479694Y-78555578D01*
X90479692Y-78555585D01*
X90468170Y-78598585D01*
X90468170Y-79377208D01*
X90463945Y-79409301D01*
X90451377Y-79456207D01*
X90451376Y-79456212D01*
X90448500Y-79466943D01*
X90448500Y-80120429D01*
X90428815Y-80187468D01*
X90376011Y-80233223D01*
X90306853Y-80243167D01*
X90283546Y-80237471D01*
X90184602Y-80202850D01*
X90154207Y-80200000D01*
X89775000Y-80200000D01*
X89775000Y-80876000D01*
X89772449Y-80884685D01*
X89773738Y-80893647D01*
X89762759Y-80917687D01*
X89755315Y-80943039D01*
X89748474Y-80948966D01*
X89744713Y-80957203D01*
X89722478Y-80971492D01*
X89702511Y-80988794D01*
X89691996Y-80991081D01*
X89685935Y-80994977D01*
X89651000Y-81000000D01*
X89649000Y-81000000D01*
X89581961Y-80980315D01*
X89536206Y-80927511D01*
X89525000Y-80876000D01*
X89525000Y-80200000D01*
X89145804Y-80200000D01*
X89115393Y-80202851D01*
X88987354Y-80247653D01*
X88878207Y-80328207D01*
X88797653Y-80437354D01*
X88752850Y-80565395D01*
X88752850Y-80565399D01*
X88750000Y-80595793D01*
X88750000Y-80651413D01*
X88730315Y-80718452D01*
X88677511Y-80764207D01*
X88608353Y-80774151D01*
X88554878Y-80752989D01*
X88549901Y-80749504D01*
X88441230Y-80698830D01*
X88441231Y-80698830D01*
X88391727Y-80692313D01*
X88391710Y-80692312D01*
X88306877Y-80692312D01*
X88306877Y-81048312D01*
X88304326Y-81056997D01*
X88305615Y-81065959D01*
X88294636Y-81089999D01*
X88287192Y-81115351D01*
X88280351Y-81121278D01*
X88276590Y-81129515D01*
X88254355Y-81143804D01*
X88234388Y-81161106D01*
X88223873Y-81163393D01*
X88217812Y-81167289D01*
X88182877Y-81172312D01*
X88181877Y-81172312D01*
X88181877Y-81173312D01*
X88162192Y-81240351D01*
X88109388Y-81286106D01*
X88057877Y-81297312D01*
X87671877Y-81297312D01*
X87671877Y-81352145D01*
X87671878Y-81352162D01*
X87678395Y-81401666D01*
X87733654Y-81520168D01*
X87731099Y-81521359D01*
X87748141Y-81571893D01*
X87731129Y-81639660D01*
X87703281Y-81670574D01*
X87703449Y-81670742D01*
X87700247Y-81673943D01*
X87697878Y-81676574D01*
X87696881Y-81677309D01*
X87696879Y-81677311D01*
X87618024Y-81784156D01*
X87574168Y-81909485D01*
X87574166Y-81909497D01*
X87571377Y-81939241D01*
X87571377Y-82325382D01*
X87574166Y-82355126D01*
X87574168Y-82355138D01*
X87610361Y-82458567D01*
X87618025Y-82480469D01*
X87696878Y-82587311D01*
X87803720Y-82666164D01*
X87841880Y-82679516D01*
X87929050Y-82710020D01*
X87929054Y-82710020D01*
X87929058Y-82710022D01*
X87943934Y-82711417D01*
X87958807Y-82712812D01*
X87958811Y-82712812D01*
X88404947Y-82712812D01*
X88418166Y-82711572D01*
X88434696Y-82710022D01*
X88484544Y-82692578D01*
X88554322Y-82689016D01*
X88614950Y-82723744D01*
X88647178Y-82785737D01*
X88649500Y-82809620D01*
X88649500Y-83093102D01*
X88654483Y-83134600D01*
X88660122Y-83181561D01*
X88715639Y-83322343D01*
X88807077Y-83442922D01*
X88927656Y-83534360D01*
X88927657Y-83534360D01*
X88927658Y-83534361D01*
X89068436Y-83589877D01*
X89156898Y-83600500D01*
X89156903Y-83600500D01*
X90143097Y-83600500D01*
X90143102Y-83600500D01*
X90231564Y-83589877D01*
X90372342Y-83534361D01*
X90492922Y-83442922D01*
X90584361Y-83322342D01*
X90639877Y-83181564D01*
X90649168Y-83104196D01*
X90950001Y-83104196D01*
X90952851Y-83134606D01*
X90997653Y-83262645D01*
X91078207Y-83371792D01*
X91187354Y-83452346D01*
X91315397Y-83497149D01*
X91345792Y-83499999D01*
X91724999Y-83499999D01*
X91975000Y-83499999D01*
X92354196Y-83499999D01*
X92384606Y-83497148D01*
X92512645Y-83452346D01*
X92621792Y-83371792D01*
X92702346Y-83262645D01*
X92747149Y-83134604D01*
X92747149Y-83134600D01*
X92750000Y-83104206D01*
X92750000Y-82825000D01*
X91975000Y-82825000D01*
X91975000Y-83499999D01*
X91724999Y-83499999D01*
X91725000Y-83499998D01*
X91725000Y-82825000D01*
X90950001Y-82825000D01*
X90950001Y-83104196D01*
X90649168Y-83104196D01*
X90650500Y-83093102D01*
X90650500Y-82317254D01*
X90670185Y-82250215D01*
X90686818Y-82229574D01*
X90713537Y-82202855D01*
X90740828Y-82175563D01*
X90802149Y-82142079D01*
X90871840Y-82147063D01*
X90927774Y-82188934D01*
X90952192Y-82254398D01*
X90951967Y-82274819D01*
X90950000Y-82295800D01*
X90950000Y-82575000D01*
X92749999Y-82575000D01*
X92765510Y-82559488D01*
X92769684Y-82545275D01*
X92822488Y-82499520D01*
X92891646Y-82489576D01*
X92955202Y-82518601D01*
X92961680Y-82524633D01*
X92980397Y-82543350D01*
X93089068Y-82594024D01*
X93089067Y-82594024D01*
X93138571Y-82600541D01*
X93138589Y-82600543D01*
X93223422Y-82600543D01*
X93473422Y-82600543D01*
X93558255Y-82600543D01*
X93558272Y-82600541D01*
X93607776Y-82594024D01*
X93716446Y-82543350D01*
X93801229Y-82458567D01*
X93851903Y-82349897D01*
X93858420Y-82300393D01*
X93858422Y-82300376D01*
X93858422Y-82245543D01*
X93473422Y-82245543D01*
X93473422Y-82600543D01*
X93223422Y-82600543D01*
X93223422Y-82244543D01*
X93225972Y-82235857D01*
X93224684Y-82226896D01*
X93235662Y-82202855D01*
X93243107Y-82177504D01*
X93249947Y-82171576D01*
X93253709Y-82163340D01*
X93275943Y-82149050D01*
X93295911Y-82131749D01*
X93306425Y-82129461D01*
X93312487Y-82125566D01*
X93347422Y-82120543D01*
X93348422Y-82120543D01*
X93348422Y-82119543D01*
X93368107Y-82052504D01*
X93420911Y-82006749D01*
X93472422Y-81995543D01*
X93858422Y-81995543D01*
X93858422Y-81940709D01*
X93858420Y-81940692D01*
X93851903Y-81891188D01*
X93796645Y-81772687D01*
X93799200Y-81771495D01*
X93782158Y-81720967D01*
X93799166Y-81653199D01*
X93827018Y-81622281D01*
X93826850Y-81622113D01*
X93830071Y-81618891D01*
X93832429Y-81616273D01*
X93833421Y-81615542D01*
X93912274Y-81508700D01*
X93956132Y-81383362D01*
X93958922Y-81353609D01*
X93958922Y-80967477D01*
X93956132Y-80937724D01*
X93956130Y-80937720D01*
X93956130Y-80937716D01*
X93922966Y-80842943D01*
X93912274Y-80812386D01*
X93833421Y-80705544D01*
X93726579Y-80626691D01*
X93726578Y-80626690D01*
X93720567Y-80622254D01*
X93678316Y-80566606D01*
X93672858Y-80496950D01*
X93705926Y-80435401D01*
X93730880Y-80415870D01*
X93926679Y-80299580D01*
X93946074Y-80294620D01*
X93963642Y-80285028D01*
X93979229Y-80286142D01*
X93994371Y-80282271D01*
X94013366Y-80288584D01*
X94033334Y-80290012D01*
X94050116Y-80300798D01*
X94060675Y-80304307D01*
X94066162Y-80311110D01*
X94077681Y-80318513D01*
X94131975Y-80372807D01*
X94240646Y-80423481D01*
X94240645Y-80423481D01*
X94290149Y-80429998D01*
X94290167Y-80430000D01*
X94375000Y-80430000D01*
X94375000Y-80075000D01*
X93931362Y-80075000D01*
X93864323Y-80055315D01*
X93863932Y-80055000D01*
X93624000Y-80055000D01*
X93615314Y-80052449D01*
X93606353Y-80053738D01*
X93582312Y-80042759D01*
X93556961Y-80035315D01*
X93551033Y-80028474D01*
X93542797Y-80024713D01*
X93528507Y-80002478D01*
X93511206Y-79982511D01*
X93508918Y-79971996D01*
X93505023Y-79965935D01*
X93500000Y-79931000D01*
X93500000Y-79929000D01*
X93519685Y-79861961D01*
X93572489Y-79816206D01*
X93624000Y-79805000D01*
X94068638Y-79805000D01*
X94135677Y-79824685D01*
X94136068Y-79825000D01*
X94376000Y-79825000D01*
X94384685Y-79827550D01*
X94393647Y-79826262D01*
X94417687Y-79837240D01*
X94443039Y-79844685D01*
X94448966Y-79851525D01*
X94457203Y-79855287D01*
X94471492Y-79877521D01*
X94488794Y-79897489D01*
X94491081Y-79908003D01*
X94494977Y-79914065D01*
X94500000Y-79949000D01*
X94500000Y-79950000D01*
X94501000Y-79950000D01*
X94568039Y-79969685D01*
X94613794Y-80022489D01*
X94625000Y-80074000D01*
X94625000Y-80430000D01*
X94709833Y-80430000D01*
X94709850Y-80429998D01*
X94759354Y-80423481D01*
X94759355Y-80423481D01*
X94773473Y-80416898D01*
X94842550Y-80406405D01*
X94906335Y-80434924D01*
X94935608Y-80475179D01*
X94936359Y-80474746D01*
X95019475Y-80618709D01*
X95019479Y-80618714D01*
X95019480Y-80618716D01*
X95131284Y-80730520D01*
X95131286Y-80730521D01*
X95131290Y-80730524D01*
X95244852Y-80796088D01*
X95268216Y-80809577D01*
X95420943Y-80850500D01*
X95420945Y-80850500D01*
X95579055Y-80850500D01*
X95579057Y-80850500D01*
X95731784Y-80809577D01*
X95868716Y-80730520D01*
X95980520Y-80618716D01*
X96059577Y-80481784D01*
X96100500Y-80329057D01*
X96100500Y-80170943D01*
X96059577Y-80018216D01*
X96020193Y-79950000D01*
X95980524Y-79881290D01*
X95980518Y-79881282D01*
X95868718Y-79769482D01*
X95868716Y-79769480D01*
X95828801Y-79746435D01*
X95803129Y-79726736D01*
X95745913Y-79669520D01*
X95745910Y-79669518D01*
X95146819Y-79070426D01*
X95113334Y-79009103D01*
X95110500Y-78982745D01*
X95110500Y-78796929D01*
X95107710Y-78767185D01*
X95107710Y-78767181D01*
X95107708Y-78767177D01*
X95107708Y-78767173D01*
X95077204Y-78680003D01*
X95063852Y-78641843D01*
X95031592Y-78598133D01*
X95007622Y-78532505D01*
X95022937Y-78464334D01*
X95072678Y-78415266D01*
X95131363Y-78400500D01*
X96282745Y-78400500D01*
X96349784Y-78420185D01*
X96370426Y-78436819D01*
X96558181Y-78624573D01*
X96591666Y-78685896D01*
X96594500Y-78712254D01*
X96594500Y-90182273D01*
X96594500Y-90287727D01*
X96608146Y-90338657D01*
X96621793Y-90389589D01*
X96636403Y-90414893D01*
X96674520Y-90480913D01*
X96674522Y-90480915D01*
X99284325Y-93090718D01*
X99317810Y-93152041D01*
X99314575Y-93216716D01*
X99267829Y-93360587D01*
X99239500Y-93539448D01*
X99239500Y-93720551D01*
X99267829Y-93899410D01*
X99323787Y-94071636D01*
X99323788Y-94071639D01*
X99406003Y-94232993D01*
X99456586Y-94302615D01*
X99480065Y-94368422D01*
X99464239Y-94436476D01*
X99414133Y-94485170D01*
X99356267Y-94499500D01*
X94851887Y-94499500D01*
X94784848Y-94479815D01*
X94739093Y-94427011D01*
X94729149Y-94357853D01*
X94758174Y-94294297D01*
X94779002Y-94275182D01*
X94789494Y-94267558D01*
X94789492Y-94267558D01*
X94789501Y-94267553D01*
X94917553Y-94139501D01*
X95023996Y-93992994D01*
X95106211Y-93831639D01*
X95162171Y-93659409D01*
X95181171Y-93539448D01*
X95190500Y-93480551D01*
X95190500Y-93299448D01*
X95166800Y-93149819D01*
X95162171Y-93120591D01*
X95106211Y-92948361D01*
X95106211Y-92948360D01*
X95071633Y-92880499D01*
X95023996Y-92787006D01*
X94998883Y-92752441D01*
X94917558Y-92640505D01*
X94917554Y-92640500D01*
X94789499Y-92512445D01*
X94789494Y-92512441D01*
X94642997Y-92406006D01*
X94642996Y-92406005D01*
X94642994Y-92406004D01*
X94566906Y-92367235D01*
X94481639Y-92323788D01*
X94481636Y-92323787D01*
X94309410Y-92267829D01*
X94130551Y-92239500D01*
X94130546Y-92239500D01*
X93949454Y-92239500D01*
X93949449Y-92239500D01*
X93770589Y-92267829D01*
X93598363Y-92323787D01*
X93598360Y-92323788D01*
X93437002Y-92406006D01*
X93290505Y-92512441D01*
X93290500Y-92512445D01*
X93162445Y-92640500D01*
X93162441Y-92640505D01*
X93056006Y-92787002D01*
X92973788Y-92948360D01*
X92973787Y-92948363D01*
X92917829Y-93120589D01*
X92889500Y-93299448D01*
X92889500Y-93480551D01*
X92917829Y-93659410D01*
X92973787Y-93831636D01*
X92973788Y-93831639D01*
X93056006Y-93992997D01*
X93162441Y-94139494D01*
X93162445Y-94139499D01*
X93290500Y-94267554D01*
X93290505Y-94267558D01*
X93300998Y-94275182D01*
X93343664Y-94330512D01*
X93349643Y-94400125D01*
X93317037Y-94461920D01*
X93256199Y-94496277D01*
X93228113Y-94499500D01*
X92138239Y-94499500D01*
X92071200Y-94479815D01*
X92025445Y-94427011D01*
X92015501Y-94357853D01*
X92044526Y-94294297D01*
X92069348Y-94272398D01*
X92151038Y-94217814D01*
X91753953Y-93820729D01*
X91807007Y-93790099D01*
X91900099Y-93697007D01*
X91930729Y-93643953D01*
X92327814Y-94041038D01*
X92430499Y-93887359D01*
X92509649Y-93696274D01*
X92509651Y-93696266D01*
X92549999Y-93493420D01*
X92550000Y-93493417D01*
X92550000Y-93286583D01*
X92549999Y-93286579D01*
X92509651Y-93083733D01*
X92509649Y-93083725D01*
X92430499Y-92892640D01*
X92327814Y-92738961D01*
X91930729Y-93136045D01*
X91900099Y-93082993D01*
X91807007Y-92989901D01*
X91753953Y-92959270D01*
X92151037Y-92562185D01*
X92151037Y-92562184D01*
X91997368Y-92459505D01*
X91997358Y-92459500D01*
X91806274Y-92380350D01*
X91806266Y-92380348D01*
X91603420Y-92340000D01*
X91396579Y-92340000D01*
X91193733Y-92380348D01*
X91193725Y-92380350D01*
X91002636Y-92459502D01*
X91002635Y-92459502D01*
X90848961Y-92562183D01*
X90848961Y-92562185D01*
X91246046Y-92959270D01*
X91192993Y-92989901D01*
X91099901Y-93082993D01*
X91069270Y-93136046D01*
X90672185Y-92738961D01*
X90672183Y-92738961D01*
X90569502Y-92892635D01*
X90569502Y-92892636D01*
X90490350Y-93083725D01*
X90490348Y-93083733D01*
X90450000Y-93286579D01*
X90450000Y-93493420D01*
X90490348Y-93696266D01*
X90490350Y-93696274D01*
X90569500Y-93887358D01*
X90569505Y-93887368D01*
X90672185Y-94041037D01*
X91069270Y-93643952D01*
X91099901Y-93697007D01*
X91192993Y-93790099D01*
X91246046Y-93820729D01*
X90848961Y-94217814D01*
X90930652Y-94272398D01*
X90975457Y-94326010D01*
X90984164Y-94395335D01*
X90954010Y-94458362D01*
X90894567Y-94495082D01*
X90861761Y-94499500D01*
X90214210Y-94499500D01*
X90147171Y-94479815D01*
X90101416Y-94427011D01*
X90091472Y-94357853D01*
X90100775Y-94325414D01*
X90100776Y-94325412D01*
X90107585Y-94309991D01*
X90110500Y-94284865D01*
X90110499Y-92495136D01*
X90110497Y-92495117D01*
X90107586Y-92470012D01*
X90107585Y-92470010D01*
X90107585Y-92470009D01*
X90062206Y-92367235D01*
X89982765Y-92287794D01*
X89969885Y-92282107D01*
X89879992Y-92242415D01*
X89854865Y-92239500D01*
X88065143Y-92239500D01*
X88065117Y-92239502D01*
X88040012Y-92242413D01*
X88040008Y-92242415D01*
X87937235Y-92287793D01*
X87857794Y-92367234D01*
X87812415Y-92470006D01*
X87812415Y-92470008D01*
X87809500Y-92495131D01*
X87809500Y-94284856D01*
X87809502Y-94284882D01*
X87812413Y-94309986D01*
X87812414Y-94309990D01*
X87812415Y-94309991D01*
X87819225Y-94325414D01*
X87828297Y-94394690D01*
X87798475Y-94457876D01*
X87739226Y-94494907D01*
X87705791Y-94499500D01*
X83643733Y-94499500D01*
X83576694Y-94479815D01*
X83530939Y-94427011D01*
X83520995Y-94357853D01*
X83543414Y-94302615D01*
X83568887Y-94267554D01*
X83593996Y-94232994D01*
X83662675Y-94098205D01*
X83710650Y-94047409D01*
X83773160Y-94030500D01*
X85172725Y-94030500D01*
X85172727Y-94030500D01*
X85274588Y-94003207D01*
X85365913Y-93950480D01*
X86622480Y-92693913D01*
X86650140Y-92646004D01*
X86653319Y-92640499D01*
X86675204Y-92602592D01*
X86675203Y-92602592D01*
X86675207Y-92602587D01*
X86702500Y-92500727D01*
X86702500Y-80992478D01*
X87671877Y-80992478D01*
X87671877Y-81047312D01*
X88056877Y-81047312D01*
X88056877Y-80692312D01*
X87972044Y-80692312D01*
X87972026Y-80692313D01*
X87922522Y-80698830D01*
X87813852Y-80749504D01*
X87729069Y-80834287D01*
X87678395Y-80942957D01*
X87671878Y-80992461D01*
X87671877Y-80992478D01*
X86702500Y-80992478D01*
X86702500Y-79665255D01*
X86722185Y-79598216D01*
X86738819Y-79577574D01*
X87077574Y-79238819D01*
X87138897Y-79205334D01*
X87165255Y-79202500D01*
X89384925Y-79202500D01*
X89384927Y-79202500D01*
X89486788Y-79175207D01*
X89578113Y-79122480D01*
X90274967Y-78425623D01*
X90336288Y-78392140D01*
X90405979Y-78397124D01*
G37*
%TD.AperFunction*%
%TA.AperFunction,Conductor*%
G36*
X85419834Y-86249073D02*
G01*
X85475767Y-86290945D01*
X85500184Y-86356409D01*
X85500500Y-86365255D01*
X85500500Y-89631745D01*
X85480815Y-89698784D01*
X85464181Y-89719426D01*
X84530426Y-90653181D01*
X84469103Y-90686666D01*
X84442745Y-90689500D01*
X83773160Y-90689500D01*
X83706121Y-90669815D01*
X83662675Y-90621795D01*
X83626459Y-90550718D01*
X83593996Y-90487006D01*
X83531401Y-90400851D01*
X83487558Y-90340505D01*
X83487554Y-90340500D01*
X83359499Y-90212445D01*
X83359494Y-90212441D01*
X83212997Y-90106006D01*
X83212996Y-90106005D01*
X83212994Y-90106004D01*
X83140580Y-90069107D01*
X83051639Y-90023788D01*
X83051636Y-90023787D01*
X82879410Y-89967829D01*
X82700551Y-89939500D01*
X82700546Y-89939500D01*
X82519454Y-89939500D01*
X82519449Y-89939500D01*
X82340589Y-89967829D01*
X82168363Y-90023787D01*
X82168360Y-90023788D01*
X82007002Y-90106006D01*
X81860505Y-90212441D01*
X81860500Y-90212445D01*
X81732445Y-90340500D01*
X81732441Y-90340505D01*
X81724818Y-90350998D01*
X81669488Y-90393664D01*
X81599875Y-90399643D01*
X81538080Y-90367037D01*
X81503723Y-90306199D01*
X81500500Y-90278113D01*
X81500500Y-89188240D01*
X81520185Y-89121201D01*
X81572989Y-89075446D01*
X81642147Y-89065502D01*
X81705703Y-89094527D01*
X81727602Y-89119349D01*
X81782185Y-89201037D01*
X82179270Y-88803952D01*
X82209901Y-88857007D01*
X82302993Y-88950099D01*
X82356046Y-88980729D01*
X81958961Y-89377814D01*
X82112640Y-89480499D01*
X82303725Y-89559649D01*
X82303733Y-89559651D01*
X82506579Y-89599999D01*
X82506583Y-89600000D01*
X82713417Y-89600000D01*
X82713420Y-89599999D01*
X82916266Y-89559651D01*
X82916274Y-89559649D01*
X83107359Y-89480499D01*
X83261038Y-89377814D01*
X82863953Y-88980729D01*
X82917007Y-88950099D01*
X83010099Y-88857007D01*
X83040729Y-88803953D01*
X83437814Y-89201038D01*
X83540499Y-89047359D01*
X83619649Y-88856274D01*
X83619651Y-88856266D01*
X83659999Y-88653420D01*
X83660000Y-88653417D01*
X83660000Y-88446583D01*
X83659999Y-88446579D01*
X83619651Y-88243733D01*
X83619649Y-88243725D01*
X83540499Y-88052640D01*
X83437814Y-87898961D01*
X83040729Y-88296045D01*
X83010099Y-88242993D01*
X82917007Y-88149901D01*
X82863953Y-88119270D01*
X83261037Y-87722185D01*
X83261037Y-87722184D01*
X83107368Y-87619505D01*
X83107358Y-87619500D01*
X82916274Y-87540350D01*
X82916266Y-87540348D01*
X82713420Y-87500000D01*
X82506579Y-87500000D01*
X82303733Y-87540348D01*
X82303725Y-87540350D01*
X82112636Y-87619502D01*
X82112635Y-87619502D01*
X81958961Y-87722183D01*
X81958961Y-87722185D01*
X82356046Y-88119270D01*
X82302993Y-88149901D01*
X82209901Y-88242993D01*
X82179270Y-88296046D01*
X81782185Y-87898961D01*
X81782184Y-87898961D01*
X81727602Y-87980650D01*
X81701580Y-88002397D01*
X81676011Y-88024553D01*
X81674873Y-88024716D01*
X81673990Y-88025455D01*
X81640377Y-88029676D01*
X81606853Y-88034497D01*
X81605805Y-88034018D01*
X81604665Y-88034162D01*
X81574120Y-88019548D01*
X81543297Y-88005472D01*
X81542674Y-88004504D01*
X81541638Y-88004008D01*
X81523836Y-87975190D01*
X81505523Y-87946694D01*
X81505307Y-87945195D01*
X81504918Y-87944565D01*
X81500500Y-87911759D01*
X81500500Y-86821886D01*
X81520185Y-86754847D01*
X81572989Y-86709092D01*
X81642147Y-86699148D01*
X81705703Y-86728173D01*
X81724821Y-86749004D01*
X81732446Y-86759500D01*
X81860500Y-86887554D01*
X81860505Y-86887558D01*
X81988287Y-86980396D01*
X82007006Y-86993996D01*
X82112484Y-87047740D01*
X82168360Y-87076211D01*
X82168363Y-87076212D01*
X82254476Y-87104191D01*
X82340591Y-87132171D01*
X82423429Y-87145291D01*
X82519449Y-87160500D01*
X82519454Y-87160500D01*
X82700551Y-87160500D01*
X82787259Y-87146765D01*
X82879409Y-87132171D01*
X83051639Y-87076211D01*
X83212994Y-86993996D01*
X83359501Y-86887553D01*
X83487553Y-86759501D01*
X83593996Y-86612994D01*
X83662675Y-86478205D01*
X83710650Y-86427409D01*
X83773160Y-86410500D01*
X85042725Y-86410500D01*
X85042727Y-86410500D01*
X85144588Y-86383207D01*
X85235913Y-86330480D01*
X85288819Y-86277574D01*
X85350142Y-86244089D01*
X85419834Y-86249073D01*
G37*
%TD.AperFunction*%
%TA.AperFunction,Conductor*%
G36*
X98001703Y-84188541D02*
G01*
X98008181Y-84194573D01*
X99284325Y-85470717D01*
X99317810Y-85532040D01*
X99314575Y-85596715D01*
X99267829Y-85740587D01*
X99239500Y-85919448D01*
X99239500Y-86100551D01*
X99267829Y-86279410D01*
X99323787Y-86451636D01*
X99323788Y-86451639D01*
X99406006Y-86612997D01*
X99512441Y-86759494D01*
X99512445Y-86759499D01*
X99640500Y-86887554D01*
X99640505Y-86887558D01*
X99768287Y-86980396D01*
X99787006Y-86993996D01*
X99892484Y-87047740D01*
X99948360Y-87076211D01*
X99948363Y-87076212D01*
X100034476Y-87104191D01*
X100120591Y-87132171D01*
X100203429Y-87145291D01*
X100299449Y-87160500D01*
X100299454Y-87160500D01*
X100480551Y-87160500D01*
X100567259Y-87146765D01*
X100659409Y-87132171D01*
X100831639Y-87076211D01*
X100992994Y-86993996D01*
X101139501Y-86887553D01*
X101267553Y-86759501D01*
X101275180Y-86749003D01*
X101330508Y-86706336D01*
X101400121Y-86700355D01*
X101461917Y-86732959D01*
X101496277Y-86793796D01*
X101499500Y-86821886D01*
X101499500Y-87911760D01*
X101479815Y-87978799D01*
X101427011Y-88024554D01*
X101357853Y-88034498D01*
X101294297Y-88005473D01*
X101272398Y-87980651D01*
X101217814Y-87898960D01*
X100820728Y-88296045D01*
X100790099Y-88242993D01*
X100697007Y-88149901D01*
X100643953Y-88119270D01*
X101041037Y-87722185D01*
X101041037Y-87722184D01*
X100887368Y-87619505D01*
X100887358Y-87619500D01*
X100696274Y-87540350D01*
X100696266Y-87540348D01*
X100493420Y-87500000D01*
X100286579Y-87500000D01*
X100083733Y-87540348D01*
X100083725Y-87540350D01*
X99892636Y-87619502D01*
X99892635Y-87619502D01*
X99738961Y-87722183D01*
X99738961Y-87722185D01*
X100136046Y-88119270D01*
X100082993Y-88149901D01*
X99989901Y-88242993D01*
X99959270Y-88296046D01*
X99562185Y-87898961D01*
X99562183Y-87898961D01*
X99459502Y-88052635D01*
X99459502Y-88052636D01*
X99380350Y-88243725D01*
X99380348Y-88243733D01*
X99340000Y-88446579D01*
X99340000Y-88653420D01*
X99380348Y-88856266D01*
X99380350Y-88856274D01*
X99459500Y-89047358D01*
X99459505Y-89047368D01*
X99562185Y-89201037D01*
X99959270Y-88803952D01*
X99989901Y-88857007D01*
X100082993Y-88950099D01*
X100136046Y-88980729D01*
X99738961Y-89377814D01*
X99892640Y-89480499D01*
X100083725Y-89559649D01*
X100083733Y-89559651D01*
X100286579Y-89599999D01*
X100286583Y-89600000D01*
X100493417Y-89600000D01*
X100493420Y-89599999D01*
X100696266Y-89559651D01*
X100696274Y-89559649D01*
X100887359Y-89480499D01*
X101041038Y-89377814D01*
X100643953Y-88980729D01*
X100697007Y-88950099D01*
X100790099Y-88857007D01*
X100820729Y-88803953D01*
X101217813Y-89201037D01*
X101272398Y-89119347D01*
X101326010Y-89074542D01*
X101395335Y-89065835D01*
X101458362Y-89095989D01*
X101495082Y-89155432D01*
X101499500Y-89188238D01*
X101499500Y-90278113D01*
X101479815Y-90345152D01*
X101427011Y-90390907D01*
X101357853Y-90400851D01*
X101294297Y-90371826D01*
X101275182Y-90350998D01*
X101267558Y-90340505D01*
X101267554Y-90340500D01*
X101139499Y-90212445D01*
X101139494Y-90212441D01*
X100992997Y-90106006D01*
X100992996Y-90106005D01*
X100992994Y-90106004D01*
X100920580Y-90069107D01*
X100831639Y-90023788D01*
X100831636Y-90023787D01*
X100659410Y-89967829D01*
X100480551Y-89939500D01*
X100480546Y-89939500D01*
X100299454Y-89939500D01*
X100299449Y-89939500D01*
X100120587Y-89967829D01*
X99976716Y-90014575D01*
X99906875Y-90016570D01*
X99850718Y-89984325D01*
X97832819Y-87966426D01*
X97818115Y-87939498D01*
X97801523Y-87913680D01*
X97800631Y-87907479D01*
X97799334Y-87905103D01*
X97796500Y-87878745D01*
X97796500Y-84282254D01*
X97816185Y-84215215D01*
X97868989Y-84169460D01*
X97938147Y-84159516D01*
X98001703Y-84188541D01*
G37*
%TD.AperFunction*%
%TA.AperFunction,Conductor*%
G36*
X81705703Y-74028173D02*
G01*
X81724821Y-74049004D01*
X81732446Y-74059500D01*
X81860500Y-74187554D01*
X81860505Y-74187558D01*
X81919638Y-74230520D01*
X82007006Y-74293996D01*
X82092742Y-74337681D01*
X82168360Y-74376211D01*
X82168363Y-74376212D01*
X82225924Y-74394914D01*
X82340591Y-74432171D01*
X82421976Y-74445061D01*
X82519449Y-74460500D01*
X82519454Y-74460500D01*
X82700551Y-74460500D01*
X82798024Y-74445061D01*
X82879409Y-74432171D01*
X83051639Y-74376211D01*
X83212994Y-74293996D01*
X83359501Y-74187553D01*
X83487553Y-74059501D01*
X83487553Y-74059500D01*
X83490998Y-74056056D01*
X83491820Y-74056878D01*
X83545737Y-74021671D01*
X83615605Y-74021163D01*
X83669217Y-74052710D01*
X84045954Y-74429447D01*
X84079439Y-74490770D01*
X84074455Y-74560462D01*
X84045956Y-74604808D01*
X84019478Y-74631286D01*
X84019475Y-74631290D01*
X83940426Y-74768209D01*
X83940423Y-74768216D01*
X83899500Y-74920943D01*
X83899500Y-75079057D01*
X83940085Y-75230520D01*
X83940423Y-75231783D01*
X83940426Y-75231790D01*
X84019475Y-75368709D01*
X84019479Y-75368714D01*
X84019480Y-75368716D01*
X84131284Y-75480520D01*
X84131286Y-75480521D01*
X84131290Y-75480524D01*
X84239491Y-75542993D01*
X84268216Y-75559577D01*
X84420943Y-75600500D01*
X84420945Y-75600500D01*
X84579055Y-75600500D01*
X84579057Y-75600500D01*
X84731784Y-75559577D01*
X84868716Y-75480520D01*
X84932382Y-75416854D01*
X84993705Y-75383369D01*
X85063397Y-75388353D01*
X85072468Y-75392153D01*
X85151116Y-75428827D01*
X85151115Y-75428827D01*
X85200619Y-75435344D01*
X85200637Y-75435346D01*
X85219170Y-75435346D01*
X85255470Y-75350402D01*
X85255470Y-75049346D01*
X85275155Y-74982307D01*
X85327959Y-74936552D01*
X85379470Y-74925346D01*
X85381470Y-74925346D01*
X85448509Y-74945031D01*
X85494264Y-74997835D01*
X85505470Y-75049346D01*
X85505470Y-75372325D01*
X85501837Y-75385880D01*
X85502604Y-75390418D01*
X85493495Y-75424517D01*
X85490575Y-75431348D01*
X85440423Y-75518216D01*
X85418520Y-75599956D01*
X85418518Y-75599963D01*
X85403234Y-75657007D01*
X85399500Y-75670943D01*
X85399500Y-75829057D01*
X85431534Y-75948607D01*
X85440423Y-75981783D01*
X85440426Y-75981790D01*
X85519475Y-76118709D01*
X85519479Y-76118714D01*
X85519480Y-76118716D01*
X85631284Y-76230520D01*
X85631285Y-76230521D01*
X85631287Y-76230522D01*
X85647728Y-76240014D01*
X85695347Y-76267507D01*
X85743564Y-76318072D01*
X85756788Y-76386679D01*
X85730821Y-76451544D01*
X85721030Y-76462575D01*
X84230426Y-77953181D01*
X84169103Y-77986666D01*
X84142745Y-77989500D01*
X83773160Y-77989500D01*
X83706121Y-77969815D01*
X83662675Y-77921795D01*
X83626459Y-77850718D01*
X83593996Y-77787006D01*
X83547826Y-77723458D01*
X83487558Y-77640505D01*
X83487554Y-77640500D01*
X83359499Y-77512445D01*
X83359494Y-77512441D01*
X83212997Y-77406006D01*
X83212996Y-77406005D01*
X83212994Y-77406004D01*
X83136749Y-77367155D01*
X83051639Y-77323788D01*
X83051636Y-77323787D01*
X82879410Y-77267829D01*
X82700551Y-77239500D01*
X82700546Y-77239500D01*
X82519454Y-77239500D01*
X82519449Y-77239500D01*
X82340589Y-77267829D01*
X82168363Y-77323787D01*
X82168360Y-77323788D01*
X82007002Y-77406006D01*
X81860505Y-77512441D01*
X81860500Y-77512445D01*
X81732445Y-77640500D01*
X81732441Y-77640505D01*
X81724818Y-77650998D01*
X81669488Y-77693664D01*
X81599875Y-77699643D01*
X81538080Y-77667037D01*
X81503723Y-77606199D01*
X81500500Y-77578113D01*
X81500500Y-76488240D01*
X81520185Y-76421201D01*
X81572989Y-76375446D01*
X81642147Y-76365502D01*
X81705703Y-76394527D01*
X81727602Y-76419349D01*
X81782185Y-76501037D01*
X82179270Y-76103952D01*
X82209901Y-76157007D01*
X82302993Y-76250099D01*
X82356046Y-76280729D01*
X81958961Y-76677814D01*
X82112640Y-76780499D01*
X82303725Y-76859649D01*
X82303733Y-76859651D01*
X82506579Y-76899999D01*
X82506583Y-76900000D01*
X82713417Y-76900000D01*
X82713420Y-76899999D01*
X82916266Y-76859651D01*
X82916274Y-76859649D01*
X83107359Y-76780499D01*
X83261038Y-76677814D01*
X82863953Y-76280729D01*
X82917007Y-76250099D01*
X83010099Y-76157007D01*
X83040729Y-76103953D01*
X83437814Y-76501038D01*
X83540499Y-76347359D01*
X83619649Y-76156274D01*
X83619651Y-76156266D01*
X83659999Y-75953420D01*
X83660000Y-75953417D01*
X83660000Y-75746583D01*
X83659999Y-75746579D01*
X83619651Y-75543733D01*
X83619649Y-75543725D01*
X83540499Y-75352640D01*
X83437814Y-75198961D01*
X83040729Y-75596045D01*
X83010099Y-75542993D01*
X82917007Y-75449901D01*
X82863953Y-75419270D01*
X83261037Y-75022185D01*
X83261037Y-75022184D01*
X83107368Y-74919505D01*
X83107358Y-74919500D01*
X82916274Y-74840350D01*
X82916266Y-74840348D01*
X82713420Y-74800000D01*
X82506579Y-74800000D01*
X82303733Y-74840348D01*
X82303725Y-74840350D01*
X82112636Y-74919502D01*
X82112635Y-74919502D01*
X81958961Y-75022183D01*
X81958961Y-75022185D01*
X82356046Y-75419270D01*
X82302993Y-75449901D01*
X82209901Y-75542993D01*
X82179270Y-75596046D01*
X81782185Y-75198961D01*
X81782184Y-75198961D01*
X81727602Y-75280650D01*
X81701580Y-75302397D01*
X81676011Y-75324553D01*
X81674873Y-75324716D01*
X81673990Y-75325455D01*
X81640377Y-75329676D01*
X81606853Y-75334497D01*
X81605805Y-75334018D01*
X81604665Y-75334162D01*
X81574120Y-75319548D01*
X81543297Y-75305472D01*
X81542674Y-75304504D01*
X81541638Y-75304008D01*
X81523836Y-75275190D01*
X81505523Y-75246694D01*
X81505307Y-75245195D01*
X81504918Y-75244565D01*
X81500500Y-75211759D01*
X81500500Y-74121886D01*
X81520185Y-74054847D01*
X81572989Y-74009092D01*
X81642147Y-73999148D01*
X81705703Y-74028173D01*
G37*
%TD.AperFunction*%
%TA.AperFunction,Conductor*%
G36*
X99989901Y-76157007D02*
G01*
X100082993Y-76250099D01*
X100136046Y-76280729D01*
X99738961Y-76677814D01*
X99892640Y-76780499D01*
X100083725Y-76859649D01*
X100083733Y-76859651D01*
X100286579Y-76899999D01*
X100286583Y-76900000D01*
X100493417Y-76900000D01*
X100493420Y-76899999D01*
X100696266Y-76859651D01*
X100696274Y-76859649D01*
X100887359Y-76780499D01*
X101041038Y-76677814D01*
X100643953Y-76280729D01*
X100697007Y-76250099D01*
X100790099Y-76157007D01*
X100820729Y-76103953D01*
X101217813Y-76501037D01*
X101272398Y-76419347D01*
X101326010Y-76374542D01*
X101395335Y-76365835D01*
X101458362Y-76395989D01*
X101495082Y-76455432D01*
X101499500Y-76488238D01*
X101499500Y-77578113D01*
X101479815Y-77645152D01*
X101427011Y-77690907D01*
X101357853Y-77700851D01*
X101294297Y-77671826D01*
X101275182Y-77650998D01*
X101267558Y-77640505D01*
X101267554Y-77640500D01*
X101139499Y-77512445D01*
X101139494Y-77512441D01*
X100992997Y-77406006D01*
X100992996Y-77406005D01*
X100992994Y-77406004D01*
X100916749Y-77367155D01*
X100831639Y-77323788D01*
X100831636Y-77323787D01*
X100659410Y-77267829D01*
X100480551Y-77239500D01*
X100480546Y-77239500D01*
X100299454Y-77239500D01*
X100299449Y-77239500D01*
X100120587Y-77267829D01*
X99976716Y-77314575D01*
X99906875Y-77316570D01*
X99850718Y-77284325D01*
X99436819Y-76870426D01*
X99422115Y-76843498D01*
X99405523Y-76817680D01*
X99404631Y-76811479D01*
X99403334Y-76809103D01*
X99400500Y-76782745D01*
X99400500Y-76621925D01*
X99420185Y-76554886D01*
X99472989Y-76509131D01*
X99536656Y-76498522D01*
X99562186Y-76501036D01*
X99959270Y-76103952D01*
X99989901Y-76157007D01*
G37*
%TD.AperFunction*%
%TA.AperFunction,Conductor*%
G36*
X93267941Y-71670185D02*
G01*
X93313696Y-71722989D01*
X93323640Y-71792147D01*
X93294615Y-71855703D01*
X93288583Y-71862181D01*
X93269481Y-71881282D01*
X93269475Y-71881290D01*
X93190426Y-72018209D01*
X93190423Y-72018216D01*
X93149500Y-72170943D01*
X93149500Y-72329056D01*
X93190423Y-72481783D01*
X93190426Y-72481790D01*
X93269475Y-72618709D01*
X93269479Y-72618714D01*
X93269480Y-72618716D01*
X93381284Y-72730520D01*
X93381286Y-72730521D01*
X93381290Y-72730524D01*
X93486500Y-72791266D01*
X93518216Y-72809577D01*
X93670943Y-72850500D01*
X93670945Y-72850500D01*
X93829055Y-72850500D01*
X93829057Y-72850500D01*
X93981784Y-72809577D01*
X94013500Y-72791266D01*
X94047353Y-72783052D01*
X94081133Y-72774781D01*
X94081264Y-72774826D01*
X94081401Y-72774793D01*
X94114421Y-72786222D01*
X94147209Y-72797491D01*
X94147295Y-72797600D01*
X94147427Y-72797646D01*
X94168895Y-72824945D01*
X94190518Y-72852318D01*
X94190549Y-72852479D01*
X94190618Y-72852567D01*
X94198913Y-72886600D01*
X94199500Y-72892610D01*
X94199500Y-72983260D01*
X94209427Y-73051393D01*
X94216401Y-73065659D01*
X94218578Y-73087947D01*
X94216060Y-73101163D01*
X94218323Y-73114425D01*
X94211090Y-73139055D01*
X94212266Y-73139419D01*
X94209876Y-73147151D01*
X94207789Y-73150298D01*
X94206571Y-73154449D01*
X94205203Y-73157248D01*
X94204976Y-73157137D01*
X94199277Y-73163139D01*
X94171272Y-73205387D01*
X94107311Y-73233507D01*
X94038300Y-73222583D01*
X94029407Y-73217918D01*
X93981786Y-73190424D01*
X93981785Y-73190423D01*
X93981784Y-73190423D01*
X93829057Y-73149500D01*
X93670943Y-73149500D01*
X93518216Y-73190423D01*
X93518209Y-73190426D01*
X93381290Y-73269475D01*
X93381282Y-73269481D01*
X93269481Y-73381282D01*
X93269475Y-73381290D01*
X93190426Y-73518209D01*
X93190423Y-73518216D01*
X93149500Y-73670943D01*
X93149500Y-73829056D01*
X93190423Y-73981783D01*
X93190426Y-73981790D01*
X93269475Y-74118709D01*
X93269481Y-74118717D01*
X93313083Y-74162319D01*
X93346568Y-74223642D01*
X93341584Y-74293334D01*
X93313083Y-74337681D01*
X93269481Y-74381282D01*
X93269475Y-74381290D01*
X93190426Y-74518209D01*
X93190423Y-74518216D01*
X93149500Y-74670943D01*
X93149500Y-74829057D01*
X93152526Y-74840350D01*
X93165131Y-74887392D01*
X93163468Y-74957242D01*
X93124305Y-75015104D01*
X93060077Y-75042608D01*
X93013263Y-75039260D01*
X92920843Y-75014496D01*
X92864871Y-74999499D01*
X92706757Y-74999499D01*
X92554030Y-75040422D01*
X92554023Y-75040425D01*
X92417104Y-75119474D01*
X92417096Y-75119480D01*
X92371241Y-75165335D01*
X92309918Y-75198819D01*
X92240226Y-75193834D01*
X92236111Y-75192215D01*
X92231787Y-75190424D01*
X92231784Y-75190423D01*
X92079057Y-75149500D01*
X91920943Y-75149500D01*
X91768216Y-75190423D01*
X91768215Y-75190423D01*
X91637027Y-75266164D01*
X91569127Y-75282636D01*
X91513028Y-75266163D01*
X91381843Y-75190424D01*
X91381842Y-75190423D01*
X91381841Y-75190423D01*
X91229114Y-75149500D01*
X91071000Y-75149500D01*
X90918273Y-75190423D01*
X90918266Y-75190426D01*
X90781347Y-75269475D01*
X90781339Y-75269481D01*
X90669538Y-75381282D01*
X90669532Y-75381290D01*
X90590483Y-75518209D01*
X90590480Y-75518216D01*
X90549557Y-75670943D01*
X90549557Y-75829057D01*
X90581591Y-75948607D01*
X90590480Y-75981783D01*
X90590480Y-75981784D01*
X90664446Y-76109899D01*
X90671008Y-76136953D01*
X90680741Y-76163037D01*
X90679131Y-76170439D01*
X90680917Y-76177799D01*
X90671811Y-76204107D01*
X90665897Y-76231312D01*
X90659384Y-76240014D01*
X90658065Y-76243826D01*
X90644750Y-76259569D01*
X90643517Y-76260801D01*
X90643517Y-76260802D01*
X90640646Y-76263672D01*
X90579330Y-76297163D01*
X90552957Y-76300000D01*
X90447044Y-76300000D01*
X90380005Y-76280315D01*
X90359363Y-76263681D01*
X90356485Y-76260803D01*
X90334589Y-76250099D01*
X90269590Y-76218323D01*
X90251391Y-76209426D01*
X90183261Y-76199500D01*
X90183260Y-76199500D01*
X90016740Y-76199500D01*
X90016739Y-76199500D01*
X89948611Y-76209425D01*
X89939408Y-76212270D01*
X89938488Y-76209294D01*
X89885575Y-76218323D01*
X89860955Y-76211094D01*
X89860592Y-76212270D01*
X89851388Y-76209425D01*
X89783261Y-76199500D01*
X89783260Y-76199500D01*
X89616740Y-76199500D01*
X89616739Y-76199500D01*
X89548611Y-76209425D01*
X89539408Y-76212270D01*
X89538488Y-76209294D01*
X89485575Y-76218323D01*
X89460955Y-76211094D01*
X89460592Y-76212270D01*
X89451388Y-76209425D01*
X89383261Y-76199500D01*
X89383260Y-76199500D01*
X89216740Y-76199500D01*
X89216739Y-76199500D01*
X89148611Y-76209425D01*
X89139408Y-76212270D01*
X89138500Y-76209333D01*
X89086192Y-76218394D01*
X89064842Y-76216001D01*
X89051393Y-76209427D01*
X88983260Y-76199500D01*
X88917573Y-76199500D01*
X88910692Y-76198729D01*
X88884598Y-76187783D01*
X88857461Y-76179815D01*
X88852812Y-76174450D01*
X88846261Y-76171702D01*
X88830225Y-76148384D01*
X88811706Y-76127011D01*
X88809937Y-76118880D01*
X88806671Y-76114131D01*
X88806296Y-76102146D01*
X88800500Y-76075500D01*
X88800500Y-76016745D01*
X88800500Y-76016740D01*
X88790573Y-75948607D01*
X88790571Y-75948604D01*
X88790571Y-75948600D01*
X88787730Y-75939404D01*
X88790709Y-75938483D01*
X88781673Y-75885610D01*
X88788910Y-75860960D01*
X88787730Y-75860596D01*
X88790571Y-75851399D01*
X88790571Y-75851396D01*
X88790573Y-75851393D01*
X88800500Y-75783260D01*
X88800500Y-75724500D01*
X88820185Y-75657461D01*
X88872989Y-75611706D01*
X88924500Y-75600500D01*
X89079055Y-75600500D01*
X89079057Y-75600500D01*
X89231784Y-75559577D01*
X89368716Y-75480520D01*
X89480520Y-75368716D01*
X89559577Y-75231784D01*
X89600500Y-75079057D01*
X89600500Y-74920943D01*
X89559577Y-74768216D01*
X89559573Y-74768209D01*
X89480524Y-74631290D01*
X89480518Y-74631282D01*
X89368717Y-74519481D01*
X89368712Y-74519477D01*
X89263501Y-74458734D01*
X89255217Y-74450046D01*
X89244300Y-74445061D01*
X89231553Y-74425227D01*
X89215286Y-74408167D01*
X89212070Y-74394914D01*
X89206524Y-74386284D01*
X89201501Y-74351347D01*
X89201501Y-74337681D01*
X89201501Y-74296330D01*
X89201500Y-74296326D01*
X89201500Y-73699000D01*
X89221185Y-73631961D01*
X89273989Y-73586206D01*
X89325500Y-73575000D01*
X89354555Y-73575000D01*
X89354557Y-73575000D01*
X89507284Y-73534077D01*
X89644216Y-73455020D01*
X89756020Y-73343216D01*
X89835077Y-73206284D01*
X89876000Y-73053557D01*
X89876000Y-72895443D01*
X89835077Y-72742716D01*
X89764719Y-72620851D01*
X89756024Y-72605790D01*
X89756018Y-72605782D01*
X89712319Y-72562083D01*
X89678834Y-72500760D01*
X89676000Y-72474402D01*
X89676000Y-72139755D01*
X89684644Y-72110314D01*
X89691168Y-72080328D01*
X89694922Y-72075312D01*
X89695685Y-72072716D01*
X89712319Y-72052074D01*
X89728574Y-72035819D01*
X89789897Y-72002334D01*
X89816255Y-71999500D01*
X92203725Y-71999500D01*
X92203727Y-71999500D01*
X92305588Y-71972207D01*
X92396913Y-71919480D01*
X92429574Y-71886819D01*
X92490897Y-71853334D01*
X92517255Y-71850500D01*
X92579055Y-71850500D01*
X92579057Y-71850500D01*
X92731784Y-71809577D01*
X92868716Y-71730520D01*
X92912417Y-71686819D01*
X92973740Y-71653334D01*
X93000098Y-71650500D01*
X93200902Y-71650500D01*
X93267941Y-71670185D01*
G37*
%TD.AperFunction*%
%TA.AperFunction,Conductor*%
G36*
X101461917Y-74032959D02*
G01*
X101496277Y-74093796D01*
X101499500Y-74121886D01*
X101499500Y-75211760D01*
X101479815Y-75278799D01*
X101427011Y-75324554D01*
X101357853Y-75334498D01*
X101294297Y-75305473D01*
X101272398Y-75280651D01*
X101217814Y-75198960D01*
X100820728Y-75596045D01*
X100790099Y-75542993D01*
X100697007Y-75449901D01*
X100643953Y-75419270D01*
X101041037Y-75022185D01*
X101041037Y-75022184D01*
X100887368Y-74919505D01*
X100887358Y-74919500D01*
X100696274Y-74840350D01*
X100696266Y-74840348D01*
X100493420Y-74800000D01*
X100286579Y-74800000D01*
X100083733Y-74840348D01*
X100083725Y-74840350D01*
X99892636Y-74919502D01*
X99892635Y-74919502D01*
X99738961Y-75022183D01*
X99738961Y-75022185D01*
X100136046Y-75419270D01*
X100082993Y-75449901D01*
X99989901Y-75542993D01*
X99959270Y-75596046D01*
X99562185Y-75198961D01*
X99562183Y-75198961D01*
X99459502Y-75352635D01*
X99459501Y-75352638D01*
X99445441Y-75386581D01*
X99401599Y-75440984D01*
X99335304Y-75463047D01*
X99267605Y-75445766D01*
X99243200Y-75426807D01*
X98606915Y-74790522D01*
X98606913Y-74790520D01*
X98561250Y-74764156D01*
X98515589Y-74737793D01*
X98464657Y-74724146D01*
X98413727Y-74710500D01*
X98413726Y-74710500D01*
X97744500Y-74710500D01*
X97677461Y-74690815D01*
X97631706Y-74638011D01*
X97620500Y-74586500D01*
X97620500Y-74274500D01*
X97640185Y-74207461D01*
X97692989Y-74161706D01*
X97744500Y-74150500D01*
X99552084Y-74150500D01*
X99619123Y-74170185D01*
X99636784Y-74184417D01*
X99636803Y-74184396D01*
X99637549Y-74185033D01*
X99639765Y-74186819D01*
X99640500Y-74187554D01*
X99640505Y-74187558D01*
X99699638Y-74230520D01*
X99787006Y-74293996D01*
X99872742Y-74337681D01*
X99948360Y-74376211D01*
X99948363Y-74376212D01*
X100005924Y-74394914D01*
X100120591Y-74432171D01*
X100201976Y-74445061D01*
X100299449Y-74460500D01*
X100299454Y-74460500D01*
X100480551Y-74460500D01*
X100578024Y-74445061D01*
X100659409Y-74432171D01*
X100831639Y-74376211D01*
X100992994Y-74293996D01*
X101139501Y-74187553D01*
X101267553Y-74059501D01*
X101275180Y-74049003D01*
X101330508Y-74006336D01*
X101400121Y-74000355D01*
X101461917Y-74032959D01*
G37*
%TD.AperFunction*%
%TA.AperFunction,Conductor*%
G36*
X100299914Y-46540184D02*
G01*
X100345669Y-46592988D01*
X100355613Y-46662146D01*
X100326588Y-46725702D01*
X100267810Y-46763476D01*
X100252273Y-46766972D01*
X100120589Y-46787829D01*
X99948363Y-46843787D01*
X99948360Y-46843788D01*
X99787003Y-46926005D01*
X99655754Y-47021361D01*
X99655744Y-47021370D01*
X99640499Y-47032447D01*
X99512447Y-47160499D01*
X99501368Y-47175747D01*
X99501364Y-47175752D01*
X99406003Y-47307006D01*
X99323788Y-47468360D01*
X99323787Y-47468363D01*
X99267829Y-47640589D01*
X99239500Y-47819448D01*
X99239500Y-48000551D01*
X99267829Y-48179410D01*
X99314575Y-48323281D01*
X99316570Y-48393122D01*
X99284325Y-48449280D01*
X97429522Y-50304084D01*
X97429520Y-50304087D01*
X97378481Y-50392489D01*
X97376793Y-50395412D01*
X97360850Y-50454913D01*
X97360850Y-50454914D01*
X97360849Y-50454913D01*
X97349500Y-50497269D01*
X97349500Y-56382745D01*
X97329815Y-56449784D01*
X97313181Y-56470426D01*
X97070426Y-56713181D01*
X97009103Y-56746666D01*
X96982745Y-56749500D01*
X96920943Y-56749500D01*
X96768216Y-56790423D01*
X96768209Y-56790426D01*
X96631290Y-56869475D01*
X96631282Y-56869481D01*
X96519481Y-56981282D01*
X96519475Y-56981290D01*
X96440426Y-57118209D01*
X96440423Y-57118214D01*
X96401833Y-57262234D01*
X96365467Y-57321895D01*
X96302620Y-57352423D01*
X96233245Y-57344128D01*
X96225764Y-57340625D01*
X96175147Y-57314834D01*
X96175144Y-57314833D01*
X96081486Y-57300000D01*
X95375000Y-57300000D01*
X95375000Y-57775000D01*
X96470613Y-57775000D01*
X96486518Y-57766314D01*
X96556210Y-57771295D01*
X96600562Y-57799798D01*
X96631284Y-57830520D01*
X96631286Y-57830521D01*
X96631290Y-57830524D01*
X96768209Y-57909573D01*
X96768216Y-57909577D01*
X96920943Y-57950500D01*
X96920945Y-57950500D01*
X97060366Y-57950500D01*
X97127405Y-57970185D01*
X97173160Y-58022989D01*
X97183104Y-58092147D01*
X97180141Y-58106588D01*
X97149500Y-58220946D01*
X97149500Y-58379060D01*
X97185025Y-58511639D01*
X97190423Y-58531786D01*
X97190426Y-58531793D01*
X97269475Y-58668712D01*
X97269479Y-58668717D01*
X97269480Y-58668719D01*
X97381284Y-58780523D01*
X97381286Y-58780524D01*
X97381290Y-58780527D01*
X97448796Y-58819501D01*
X97518216Y-58859580D01*
X97670943Y-58900503D01*
X97670945Y-58900503D01*
X97829055Y-58900503D01*
X97829057Y-58900503D01*
X97981784Y-58859580D01*
X98118716Y-58780523D01*
X98230520Y-58668719D01*
X98309577Y-58531787D01*
X98350500Y-58379060D01*
X98350500Y-58367198D01*
X98370185Y-58300159D01*
X98386819Y-58279517D01*
X98715837Y-57950499D01*
X99070480Y-57595856D01*
X99123207Y-57504531D01*
X99150500Y-57402670D01*
X99150500Y-57297216D01*
X99150500Y-56148037D01*
X99152294Y-56141924D01*
X99151119Y-56135663D01*
X99162020Y-56108804D01*
X99170185Y-56080998D01*
X99174998Y-56076826D01*
X99177395Y-56070923D01*
X99201089Y-56054219D01*
X99222989Y-56035243D01*
X99229292Y-56034336D01*
X99234501Y-56030665D01*
X99263460Y-56029423D01*
X99292147Y-56025299D01*
X99297942Y-56027945D01*
X99304307Y-56027673D01*
X99329336Y-56042282D01*
X99355703Y-56054324D01*
X99360527Y-56060489D01*
X99364649Y-56062895D01*
X99384985Y-56091742D01*
X99406006Y-56132997D01*
X99512441Y-56279494D01*
X99512445Y-56279499D01*
X99640500Y-56407554D01*
X99640505Y-56407558D01*
X99768287Y-56500396D01*
X99787006Y-56513996D01*
X99892484Y-56567740D01*
X99948360Y-56596211D01*
X99948363Y-56596212D01*
X100034476Y-56624191D01*
X100120591Y-56652171D01*
X100193639Y-56663740D01*
X100280678Y-56677527D01*
X100343813Y-56707456D01*
X100380744Y-56766768D01*
X100379746Y-56836631D01*
X100341136Y-56894863D01*
X100280678Y-56922473D01*
X100120589Y-56947829D01*
X99948363Y-57003787D01*
X99948360Y-57003788D01*
X99787002Y-57086006D01*
X99640505Y-57192441D01*
X99640500Y-57192445D01*
X99512445Y-57320500D01*
X99512441Y-57320505D01*
X99406004Y-57467004D01*
X99367907Y-57541771D01*
X99367893Y-57541801D01*
X99323789Y-57628361D01*
X99307474Y-57678572D01*
X99307469Y-57678585D01*
X99267829Y-57800587D01*
X99239500Y-57979448D01*
X99239500Y-58160551D01*
X99267829Y-58339410D01*
X99314575Y-58483281D01*
X99316570Y-58553122D01*
X99284325Y-58609280D01*
X97679522Y-60214084D01*
X97679520Y-60214087D01*
X97626793Y-60305412D01*
X97617367Y-60340591D01*
X97608564Y-60373445D01*
X97599500Y-60407270D01*
X97599500Y-71532745D01*
X97579815Y-71599784D01*
X97563181Y-71620426D01*
X97520426Y-71663181D01*
X97459103Y-71696666D01*
X97432745Y-71699500D01*
X95794800Y-71699500D01*
X95764308Y-71690546D01*
X95733367Y-71683213D01*
X95731012Y-71680769D01*
X95727761Y-71679815D01*
X95706953Y-71655802D01*
X95684886Y-71632901D01*
X95683560Y-71628804D01*
X95682006Y-71627011D01*
X95673166Y-71599609D01*
X95672554Y-71596524D01*
X95665573Y-71548607D01*
X95661340Y-71539950D01*
X95658201Y-71524109D01*
X95659945Y-71504759D01*
X95656673Y-71485610D01*
X95663888Y-71461033D01*
X95663895Y-71460956D01*
X95662730Y-71460596D01*
X95664422Y-71455119D01*
X95664476Y-71454522D01*
X95664692Y-71454243D01*
X95665572Y-71451397D01*
X95665573Y-71451393D01*
X95667294Y-71439580D01*
X95696434Y-71376081D01*
X95755282Y-71338415D01*
X95825151Y-71338543D01*
X95830934Y-71340408D01*
X95896605Y-71363388D01*
X95911481Y-71364783D01*
X95926354Y-71366178D01*
X95926358Y-71366178D01*
X96312494Y-71366178D01*
X96325713Y-71364938D01*
X96342243Y-71363388D01*
X96342247Y-71363386D01*
X96342250Y-71363386D01*
X96391260Y-71346235D01*
X96467581Y-71319530D01*
X96574423Y-71240677D01*
X96653276Y-71133835D01*
X96697134Y-71008497D01*
X96699924Y-70978744D01*
X96699924Y-70532612D01*
X96697134Y-70502859D01*
X96697132Y-70502855D01*
X96697132Y-70502851D01*
X96654507Y-70381038D01*
X96654506Y-70381036D01*
X96653276Y-70377521D01*
X96647992Y-70370361D01*
X96645150Y-70365704D01*
X96640251Y-70347455D01*
X96625259Y-70306408D01*
X96625000Y-70298405D01*
X96625000Y-70260000D01*
X96875000Y-70260000D01*
X96929833Y-70260000D01*
X96929850Y-70259998D01*
X96979354Y-70253481D01*
X97088024Y-70202807D01*
X97172807Y-70118024D01*
X97223481Y-70009354D01*
X97229998Y-69959850D01*
X97230000Y-69959833D01*
X97230000Y-69875000D01*
X96875000Y-69875000D01*
X96875000Y-70260000D01*
X96625000Y-70260000D01*
X96625000Y-69874000D01*
X96644685Y-69806961D01*
X96697489Y-69761206D01*
X96749000Y-69750000D01*
X96750000Y-69750000D01*
X96750000Y-69749000D01*
X96769685Y-69681961D01*
X96822489Y-69636206D01*
X96874000Y-69625000D01*
X97230000Y-69625000D01*
X97230000Y-69540166D01*
X97229998Y-69540149D01*
X97223481Y-69490645D01*
X97172807Y-69381975D01*
X97088023Y-69297191D01*
X97031088Y-69270641D01*
X96978649Y-69224468D01*
X96959498Y-69157275D01*
X96979715Y-69090394D01*
X96995804Y-69070588D01*
X97070480Y-68995913D01*
X97123207Y-68904588D01*
X97150500Y-68802727D01*
X97150500Y-68697273D01*
X97150500Y-68250098D01*
X97170185Y-68183059D01*
X97186819Y-68162417D01*
X97230520Y-68118716D01*
X97309577Y-67981784D01*
X97350500Y-67829057D01*
X97350500Y-67670943D01*
X97309577Y-67518216D01*
X97274969Y-67458273D01*
X97230524Y-67381290D01*
X97230518Y-67381282D01*
X97118717Y-67269481D01*
X97118709Y-67269475D01*
X96981790Y-67190426D01*
X96981786Y-67190424D01*
X96981784Y-67190423D01*
X96829057Y-67149500D01*
X96670943Y-67149500D01*
X96518216Y-67190423D01*
X96518209Y-67190426D01*
X96381290Y-67269475D01*
X96381282Y-67269481D01*
X96308479Y-67342285D01*
X96247156Y-67375770D01*
X96177464Y-67370786D01*
X96133117Y-67342285D01*
X96118024Y-67327192D01*
X96009353Y-67276518D01*
X96009354Y-67276518D01*
X95959850Y-67270001D01*
X95959833Y-67270000D01*
X95875000Y-67270000D01*
X95875000Y-67626000D01*
X95872449Y-67634685D01*
X95873738Y-67643647D01*
X95862759Y-67667687D01*
X95855315Y-67693039D01*
X95848474Y-67698966D01*
X95844713Y-67707203D01*
X95822478Y-67721492D01*
X95802511Y-67738794D01*
X95791996Y-67741081D01*
X95785935Y-67744977D01*
X95751000Y-67750000D01*
X95750000Y-67750000D01*
X95750000Y-67751000D01*
X95730315Y-67818039D01*
X95677511Y-67863794D01*
X95626000Y-67875000D01*
X94874000Y-67875000D01*
X94865314Y-67872449D01*
X94856353Y-67873738D01*
X94832312Y-67862759D01*
X94806961Y-67855315D01*
X94801033Y-67848474D01*
X94792797Y-67844713D01*
X94778507Y-67822478D01*
X94761206Y-67802511D01*
X94758918Y-67791996D01*
X94755023Y-67785935D01*
X94750000Y-67751000D01*
X94750000Y-67749000D01*
X94769685Y-67681961D01*
X94822489Y-67636206D01*
X94874000Y-67625000D01*
X95625000Y-67625000D01*
X95625000Y-67270000D01*
X95540167Y-67270000D01*
X95540149Y-67270001D01*
X95490645Y-67276518D01*
X95381975Y-67327192D01*
X95337681Y-67371487D01*
X95329735Y-67375825D01*
X95324310Y-67383073D01*
X95299550Y-67392307D01*
X95276358Y-67404972D01*
X95267328Y-67404326D01*
X95258846Y-67407490D01*
X95233025Y-67401873D01*
X95206666Y-67399988D01*
X95197612Y-67394169D01*
X95190573Y-67392638D01*
X95162319Y-67371487D01*
X95157715Y-67366883D01*
X95124230Y-67305560D01*
X95129214Y-67235868D01*
X95157715Y-67191521D01*
X95190137Y-67159099D01*
X95230520Y-67118716D01*
X95309577Y-66981784D01*
X95350500Y-66829057D01*
X95350500Y-66670943D01*
X95309577Y-66518216D01*
X95298810Y-66499567D01*
X95230524Y-66381290D01*
X95230518Y-66381282D01*
X95118717Y-66269481D01*
X95118709Y-66269475D01*
X94981790Y-66190426D01*
X94981785Y-66190423D01*
X94975487Y-66188735D01*
X94963926Y-66185638D01*
X94904268Y-66149274D01*
X94873739Y-66086426D01*
X94882034Y-66017051D01*
X94888628Y-66003876D01*
X94934187Y-65924968D01*
X94961480Y-65823107D01*
X94961480Y-65717653D01*
X94961480Y-64847257D01*
X94981165Y-64780218D01*
X95033969Y-64734463D01*
X95103127Y-64724519D01*
X95147477Y-64739868D01*
X95268216Y-64809577D01*
X95420943Y-64850500D01*
X95420945Y-64850500D01*
X95579055Y-64850500D01*
X95579057Y-64850500D01*
X95731784Y-64809577D01*
X95868716Y-64730520D01*
X95980520Y-64618716D01*
X96059577Y-64481784D01*
X96100500Y-64329057D01*
X96100500Y-64170943D01*
X96059577Y-64018216D01*
X96059573Y-64018209D01*
X96056466Y-64010706D01*
X96058496Y-64009865D01*
X96044733Y-63953145D01*
X96067582Y-63887117D01*
X96122500Y-63843923D01*
X96192053Y-63837278D01*
X96209548Y-63841997D01*
X96283119Y-63867741D01*
X96290796Y-63868460D01*
X96312543Y-63870500D01*
X96687456Y-63870499D01*
X96716879Y-63867741D01*
X96840794Y-63824381D01*
X96946423Y-63746423D01*
X97024381Y-63640794D01*
X97061713Y-63534107D01*
X97067741Y-63516881D01*
X97067741Y-63516879D01*
X97068471Y-63509095D01*
X97070500Y-63487457D01*
X97070499Y-63012544D01*
X97067741Y-62983121D01*
X97024381Y-62859206D01*
X96973781Y-62790645D01*
X96946423Y-62753576D01*
X96849406Y-62681975D01*
X96840794Y-62675619D01*
X96840792Y-62675618D01*
X96716880Y-62632258D01*
X96687461Y-62629500D01*
X96687457Y-62629500D01*
X96639878Y-62629500D01*
X96572839Y-62609815D01*
X96527084Y-62557011D01*
X96517140Y-62487853D01*
X96523696Y-62462168D01*
X96544089Y-62407488D01*
X96544088Y-62407488D01*
X96544091Y-62407483D01*
X96550500Y-62347873D01*
X96550499Y-61852128D01*
X96544091Y-61792517D01*
X96532149Y-61760500D01*
X96493797Y-61657671D01*
X96493793Y-61657664D01*
X96407547Y-61542455D01*
X96407544Y-61542452D01*
X96292335Y-61456206D01*
X96292328Y-61456202D01*
X96157482Y-61405908D01*
X96157483Y-61405908D01*
X96097883Y-61399501D01*
X96097881Y-61399500D01*
X96097873Y-61399500D01*
X96097864Y-61399500D01*
X94402129Y-61399500D01*
X94402123Y-61399501D01*
X94342516Y-61405908D01*
X94207671Y-61456202D01*
X94207664Y-61456206D01*
X94092455Y-61542452D01*
X94092452Y-61542455D01*
X94006206Y-61657664D01*
X94006202Y-61657671D01*
X93955908Y-61792517D01*
X93949501Y-61852116D01*
X93949501Y-61852123D01*
X93949500Y-61852135D01*
X93949500Y-62029827D01*
X93929815Y-62096866D01*
X93877011Y-62142621D01*
X93807853Y-62152565D01*
X93744297Y-62123540D01*
X93737819Y-62117508D01*
X92841819Y-61221508D01*
X92808334Y-61160185D01*
X92805500Y-61133827D01*
X92805500Y-60263929D01*
X92825185Y-60196890D01*
X92875704Y-60152206D01*
X92897325Y-60141795D01*
X92954094Y-60114460D01*
X93063077Y-60027549D01*
X93149982Y-59918560D01*
X93210448Y-59792963D01*
X93241444Y-59657058D01*
X93241430Y-59587361D01*
X93241430Y-59586608D01*
X93241430Y-59489845D01*
X93241435Y-59489762D01*
X93241434Y-59480931D01*
X93241435Y-59480929D01*
X93241434Y-59474768D01*
X93241487Y-59474586D01*
X93241483Y-59423346D01*
X93241484Y-59423346D01*
X93241478Y-59353656D01*
X93210450Y-59217775D01*
X93207001Y-59210616D01*
X93149963Y-59092207D01*
X93149962Y-59092206D01*
X93149962Y-59092205D01*
X93063047Y-58983244D01*
X93063043Y-58983241D01*
X93063040Y-58983237D01*
X92954063Y-58896354D01*
X92875713Y-58858636D01*
X92823847Y-58811821D01*
X92805500Y-58746909D01*
X92805500Y-58131479D01*
X94050001Y-58131479D01*
X94064835Y-58225149D01*
X94064837Y-58225155D01*
X94122356Y-58338041D01*
X94122363Y-58338050D01*
X94211949Y-58427636D01*
X94211953Y-58427639D01*
X94324855Y-58485166D01*
X94418514Y-58499999D01*
X95124999Y-58499999D01*
X95375000Y-58499999D01*
X96081479Y-58499999D01*
X96175149Y-58485164D01*
X96175155Y-58485162D01*
X96288041Y-58427643D01*
X96288050Y-58427636D01*
X96377636Y-58338050D01*
X96377639Y-58338046D01*
X96435166Y-58225144D01*
X96450000Y-58131486D01*
X96450000Y-58025000D01*
X95375000Y-58025000D01*
X95375000Y-58499999D01*
X95124999Y-58499999D01*
X95125000Y-58499998D01*
X95125000Y-58025000D01*
X94050001Y-58025000D01*
X94050001Y-58131479D01*
X92805500Y-58131479D01*
X92805500Y-57668513D01*
X94050000Y-57668513D01*
X94050000Y-57775000D01*
X95125000Y-57775000D01*
X95125000Y-57300000D01*
X94418520Y-57300000D01*
X94324850Y-57314835D01*
X94324844Y-57314837D01*
X94211958Y-57372356D01*
X94211949Y-57372363D01*
X94122363Y-57461949D01*
X94122360Y-57461953D01*
X94064833Y-57574855D01*
X94050000Y-57668513D01*
X92805500Y-57668513D01*
X92805500Y-53828265D01*
X92825185Y-53761226D01*
X92877989Y-53715471D01*
X92947147Y-53705527D01*
X92967645Y-53711635D01*
X92967853Y-53710923D01*
X92976959Y-53713577D01*
X93025735Y-53719998D01*
X93025751Y-53719999D01*
X93375000Y-53719999D01*
X93474256Y-53719999D01*
X93523038Y-53713577D01*
X93523045Y-53713575D01*
X93630112Y-53663648D01*
X93713648Y-53580112D01*
X93763577Y-53473040D01*
X93769998Y-53424265D01*
X93770000Y-53424248D01*
X93770000Y-53375000D01*
X93375000Y-53375000D01*
X93375000Y-53719999D01*
X93025751Y-53719999D01*
X93125000Y-53719998D01*
X93125000Y-53374000D01*
X93127550Y-53365314D01*
X93126262Y-53356353D01*
X93137240Y-53332312D01*
X93144685Y-53306961D01*
X93151525Y-53301033D01*
X93155287Y-53292797D01*
X93177521Y-53278507D01*
X93197489Y-53261206D01*
X93208003Y-53258918D01*
X93214065Y-53255023D01*
X93249000Y-53250000D01*
X93250000Y-53250000D01*
X93250000Y-53249000D01*
X93269685Y-53181961D01*
X93322489Y-53136206D01*
X93374000Y-53125000D01*
X93769999Y-53125000D01*
X93769999Y-53075743D01*
X93763577Y-53026961D01*
X93763575Y-53026954D01*
X93713648Y-52919887D01*
X93689372Y-52895611D01*
X93655887Y-52834288D01*
X93660871Y-52764596D01*
X93702743Y-52708663D01*
X93703123Y-52708379D01*
X93746423Y-52676423D01*
X93824381Y-52570794D01*
X93846061Y-52508836D01*
X93867741Y-52446881D01*
X93867741Y-52446879D01*
X93870500Y-52417457D01*
X93870499Y-52042544D01*
X93867741Y-52013121D01*
X93824381Y-51889206D01*
X93752256Y-51791480D01*
X93746423Y-51783576D01*
X93685647Y-51738722D01*
X93640794Y-51705619D01*
X93638978Y-51704983D01*
X93637260Y-51703751D01*
X93632579Y-51701277D01*
X93632917Y-51700636D01*
X93616096Y-51688569D01*
X93591497Y-51674858D01*
X93588084Y-51668476D01*
X93582205Y-51664259D01*
X93571830Y-51638082D01*
X93558548Y-51613246D01*
X93559127Y-51606031D01*
X93556461Y-51599305D01*
X93561885Y-51571672D01*
X93564139Y-51543600D01*
X93568526Y-51537844D01*
X93569920Y-51530744D01*
X93589423Y-51510429D01*
X93606496Y-51488033D01*
X93614754Y-51484046D01*
X93618309Y-51480344D01*
X93637619Y-51471389D01*
X93647206Y-51467907D01*
X93649991Y-51467585D01*
X93658761Y-51463712D01*
X93662679Y-51462290D01*
X93693533Y-51460353D01*
X93724183Y-51456338D01*
X93730051Y-51458061D01*
X93732412Y-51457913D01*
X93735600Y-51459690D01*
X93755084Y-51465410D01*
X93760009Y-51467585D01*
X93785135Y-51470500D01*
X94474864Y-51470499D01*
X94474879Y-51470497D01*
X94474882Y-51470497D01*
X94499987Y-51467586D01*
X94499988Y-51467585D01*
X94499991Y-51467585D01*
X94602765Y-51422206D01*
X94618652Y-51406319D01*
X94679975Y-51372834D01*
X94706333Y-51370000D01*
X94805000Y-51370000D01*
X94805000Y-50569000D01*
X94807550Y-50560314D01*
X94806262Y-50551353D01*
X94817240Y-50527312D01*
X94824685Y-50501961D01*
X94831525Y-50496033D01*
X94835287Y-50487797D01*
X94857521Y-50473507D01*
X94877489Y-50456206D01*
X94888003Y-50453918D01*
X94894065Y-50450023D01*
X94929000Y-50445000D01*
X94931000Y-50445000D01*
X94998039Y-50464685D01*
X95043794Y-50517489D01*
X95055000Y-50569000D01*
X95055000Y-51370000D01*
X95249699Y-51370000D01*
X95249702Y-51369999D01*
X95308033Y-51358397D01*
X95308034Y-51358396D01*
X95374191Y-51314191D01*
X95418396Y-51248034D01*
X95418397Y-51248033D01*
X95429999Y-51189702D01*
X95430000Y-51189699D01*
X95430000Y-50773008D01*
X95449685Y-50705969D01*
X95502489Y-50660214D01*
X95571647Y-50650270D01*
X95622891Y-50669906D01*
X95668421Y-50700328D01*
X95668433Y-50700335D01*
X95795814Y-50753097D01*
X95795826Y-50753100D01*
X95875000Y-50768849D01*
X95875000Y-50354242D01*
X95884204Y-50359556D01*
X95960504Y-50380000D01*
X96039496Y-50380000D01*
X96115796Y-50359556D01*
X96125000Y-50354242D01*
X96125000Y-50768848D01*
X96204173Y-50753100D01*
X96204185Y-50753097D01*
X96331566Y-50700335D01*
X96331579Y-50700328D01*
X96446226Y-50623724D01*
X96543724Y-50526226D01*
X96620328Y-50411579D01*
X96620335Y-50411566D01*
X96673097Y-50284186D01*
X96673100Y-50284176D01*
X96700000Y-50148946D01*
X96700000Y-49655000D01*
X96300000Y-49655000D01*
X96300000Y-49405000D01*
X96700000Y-49405000D01*
X96700000Y-48911053D01*
X96673100Y-48775823D01*
X96673097Y-48775813D01*
X96620335Y-48648433D01*
X96620328Y-48648420D01*
X96543724Y-48533773D01*
X96446226Y-48436275D01*
X96331579Y-48359671D01*
X96331566Y-48359664D01*
X96204184Y-48306901D01*
X96204176Y-48306899D01*
X96125000Y-48291149D01*
X96125000Y-48705757D01*
X96115796Y-48700444D01*
X96039496Y-48680000D01*
X95960504Y-48680000D01*
X95884204Y-48700444D01*
X95875000Y-48705757D01*
X95875000Y-48291150D01*
X95874999Y-48291149D01*
X95795823Y-48306899D01*
X95795815Y-48306901D01*
X95668433Y-48359664D01*
X95668420Y-48359671D01*
X95553773Y-48436275D01*
X95456275Y-48533773D01*
X95379671Y-48648420D01*
X95379666Y-48648430D01*
X95330470Y-48767199D01*
X95286628Y-48821603D01*
X95220334Y-48843667D01*
X95152635Y-48826387D01*
X95108522Y-48781746D01*
X95061672Y-48700601D01*
X95030515Y-48646635D01*
X94923365Y-48539485D01*
X94912090Y-48532975D01*
X94884236Y-48516893D01*
X94836021Y-48466325D01*
X94822800Y-48397718D01*
X94848769Y-48332854D01*
X94858549Y-48321834D01*
X95493565Y-47686819D01*
X95554888Y-47653334D01*
X95581246Y-47650500D01*
X98562725Y-47650500D01*
X98562727Y-47650500D01*
X98664588Y-47623207D01*
X98755913Y-47570480D01*
X99769574Y-46556817D01*
X99830897Y-46523333D01*
X99857255Y-46520499D01*
X100232875Y-46520499D01*
X100299914Y-46540184D01*
G37*
%TD.AperFunction*%
%TA.AperFunction,Conductor*%
G36*
X86622227Y-68812189D02*
G01*
X86665420Y-68867108D01*
X86672064Y-68936661D01*
X86667345Y-68954154D01*
X86652291Y-68997173D01*
X86652289Y-68997185D01*
X86649500Y-69026929D01*
X86649500Y-69473070D01*
X86652289Y-69502814D01*
X86652291Y-69502825D01*
X86656676Y-69515356D01*
X86660237Y-69585135D01*
X86625507Y-69645762D01*
X86571730Y-69676083D01*
X86518218Y-69690422D01*
X86518209Y-69690426D01*
X86381290Y-69769475D01*
X86381282Y-69769481D01*
X86269481Y-69881282D01*
X86269475Y-69881290D01*
X86207734Y-69988231D01*
X86199047Y-69996513D01*
X86194060Y-70007435D01*
X86174227Y-70020180D01*
X86157168Y-70036447D01*
X86143911Y-70039663D01*
X86135282Y-70045209D01*
X86100347Y-70050232D01*
X85977500Y-70050232D01*
X85910461Y-70030547D01*
X85864706Y-69977743D01*
X85853500Y-69926232D01*
X85853500Y-69264255D01*
X85873185Y-69197216D01*
X85889819Y-69176574D01*
X86179574Y-68886819D01*
X86240897Y-68853334D01*
X86267255Y-68850500D01*
X86329055Y-68850500D01*
X86329057Y-68850500D01*
X86481784Y-68809577D01*
X86488303Y-68805813D01*
X86556199Y-68789339D01*
X86622227Y-68812189D01*
G37*
%TD.AperFunction*%
%TA.AperFunction,Conductor*%
G36*
X87843833Y-66190870D02*
G01*
X87899767Y-66232741D01*
X87924184Y-66298205D01*
X87924500Y-66307052D01*
X87924500Y-66594856D01*
X87924502Y-66594882D01*
X87927413Y-66619987D01*
X87927415Y-66619991D01*
X87972793Y-66722764D01*
X87972794Y-66722765D01*
X88052235Y-66802206D01*
X88155009Y-66847585D01*
X88180135Y-66850500D01*
X88469864Y-66850499D01*
X88469879Y-66850497D01*
X88469882Y-66850497D01*
X88504258Y-66846511D01*
X88504632Y-66849741D01*
X88558102Y-66850794D01*
X88616126Y-66889718D01*
X88628220Y-66907060D01*
X88639599Y-66926768D01*
X88679520Y-66995913D01*
X88679522Y-66995915D01*
X89263181Y-67579574D01*
X89296666Y-67640897D01*
X89299500Y-67667255D01*
X89299500Y-68433745D01*
X89279815Y-68500784D01*
X89227011Y-68546539D01*
X89157853Y-68556483D01*
X89094297Y-68527458D01*
X89087819Y-68521426D01*
X87490166Y-66923773D01*
X87491250Y-66922688D01*
X87455454Y-66873653D01*
X87451307Y-66803907D01*
X87473336Y-66764158D01*
X87469967Y-66761907D01*
X87534770Y-66664921D01*
X87534771Y-66664920D01*
X87542711Y-66625000D01*
X87522553Y-66625000D01*
X87504063Y-66619570D01*
X87484797Y-66619112D01*
X87471229Y-66609929D01*
X87455514Y-66605315D01*
X87442896Y-66590753D01*
X87426934Y-66579950D01*
X87420484Y-66564888D01*
X87409759Y-66552511D01*
X87407016Y-66533438D01*
X87399430Y-66515722D01*
X87402146Y-66499567D01*
X87399815Y-66483353D01*
X87407820Y-66465823D01*
X87411016Y-66446819D01*
X87422035Y-66434697D01*
X87428840Y-66419797D01*
X87445052Y-66409377D01*
X87458015Y-66395119D01*
X87485665Y-66383277D01*
X87487618Y-66382023D01*
X87490418Y-66381236D01*
X87497927Y-66379224D01*
X87530017Y-66375000D01*
X87542710Y-66375000D01*
X87551297Y-66364537D01*
X87585151Y-66335814D01*
X87611711Y-66320480D01*
X87712820Y-66219369D01*
X87774141Y-66185886D01*
X87843833Y-66190870D01*
G37*
%TD.AperFunction*%
%TA.AperFunction,Conductor*%
G36*
X86720333Y-44520185D02*
G01*
X86766088Y-44572989D01*
X86776032Y-44642147D01*
X86756396Y-44693391D01*
X86739671Y-44718420D01*
X86739664Y-44718433D01*
X86686902Y-44845813D01*
X86686899Y-44845823D01*
X86660000Y-44981053D01*
X86660000Y-45225000D01*
X87060000Y-45225000D01*
X87060000Y-45475000D01*
X86660000Y-45475000D01*
X86660000Y-45718946D01*
X86659999Y-45718946D01*
X86686899Y-45854176D01*
X86686902Y-45854186D01*
X86739664Y-45981566D01*
X86739671Y-45981579D01*
X86816275Y-46096226D01*
X86913773Y-46193724D01*
X87028420Y-46270328D01*
X87028433Y-46270335D01*
X87155814Y-46323097D01*
X87155826Y-46323100D01*
X87235000Y-46338849D01*
X87235000Y-45924242D01*
X87244204Y-45929556D01*
X87320504Y-45950000D01*
X87399496Y-45950000D01*
X87475796Y-45929556D01*
X87485000Y-45924242D01*
X87485000Y-46338848D01*
X87564173Y-46323100D01*
X87564185Y-46323097D01*
X87691566Y-46270335D01*
X87691579Y-46270328D01*
X87806226Y-46193724D01*
X87903724Y-46096226D01*
X87980328Y-45981579D01*
X87980335Y-45981566D01*
X88033097Y-45854186D01*
X88033100Y-45854176D01*
X88060000Y-45718946D01*
X88060000Y-45475000D01*
X87660000Y-45475000D01*
X87660000Y-45225000D01*
X88060000Y-45225000D01*
X88060000Y-44981053D01*
X88033100Y-44845823D01*
X88033097Y-44845813D01*
X87980335Y-44718433D01*
X87980328Y-44718420D01*
X87963604Y-44693391D01*
X87942726Y-44626714D01*
X87961210Y-44559334D01*
X88013189Y-44512643D01*
X88066706Y-44500500D01*
X95293294Y-44500500D01*
X95360333Y-44520185D01*
X95406088Y-44572989D01*
X95416032Y-44642147D01*
X95396396Y-44693391D01*
X95379671Y-44718420D01*
X95379664Y-44718433D01*
X95326902Y-44845813D01*
X95326899Y-44845823D01*
X95300000Y-44981053D01*
X95300000Y-45225000D01*
X95700000Y-45225000D01*
X95700000Y-45475000D01*
X95300000Y-45475000D01*
X95300000Y-45718946D01*
X95299999Y-45718946D01*
X95326899Y-45854176D01*
X95326902Y-45854186D01*
X95379664Y-45981566D01*
X95379671Y-45981579D01*
X95456275Y-46096226D01*
X95553773Y-46193724D01*
X95668420Y-46270328D01*
X95668433Y-46270335D01*
X95795814Y-46323097D01*
X95795826Y-46323100D01*
X95875000Y-46338849D01*
X95875000Y-45924242D01*
X95884204Y-45929556D01*
X95960504Y-45950000D01*
X96039496Y-45950000D01*
X96115796Y-45929556D01*
X96125000Y-45924242D01*
X96125000Y-46338848D01*
X96204173Y-46323100D01*
X96204185Y-46323097D01*
X96331566Y-46270335D01*
X96331579Y-46270328D01*
X96446226Y-46193724D01*
X96543724Y-46096226D01*
X96620328Y-45981579D01*
X96620335Y-45981566D01*
X96673097Y-45854186D01*
X96673100Y-45854176D01*
X96700000Y-45718946D01*
X96700000Y-45475000D01*
X96300000Y-45475000D01*
X96300000Y-45225000D01*
X96700000Y-45225000D01*
X96700000Y-44981053D01*
X96673100Y-44845823D01*
X96673097Y-44845813D01*
X96620335Y-44718433D01*
X96620328Y-44718420D01*
X96603604Y-44693391D01*
X96582726Y-44626714D01*
X96601210Y-44559334D01*
X96653189Y-44512643D01*
X96706706Y-44500500D01*
X99115500Y-44500500D01*
X99182539Y-44520185D01*
X99228294Y-44572989D01*
X99239500Y-44624500D01*
X99239500Y-45902744D01*
X99219815Y-45969783D01*
X99203181Y-45990425D01*
X98380426Y-46813181D01*
X98319103Y-46846666D01*
X98292745Y-46849500D01*
X95424331Y-46849500D01*
X95424315Y-46849499D01*
X95416719Y-46849499D01*
X95311265Y-46849499D01*
X95243358Y-46867695D01*
X95209404Y-46876793D01*
X95147026Y-46912807D01*
X95124166Y-46926006D01*
X95118076Y-46929522D01*
X93764426Y-48283173D01*
X93703103Y-48316658D01*
X93676745Y-48319492D01*
X89977281Y-48319492D01*
X89875418Y-48346785D01*
X89784096Y-48399511D01*
X89469633Y-48713973D01*
X89408310Y-48747457D01*
X89338618Y-48742473D01*
X89282685Y-48700601D01*
X89274565Y-48688291D01*
X89257943Y-48659501D01*
X89250515Y-48646635D01*
X89143365Y-48539485D01*
X89077750Y-48501602D01*
X89012136Y-48463719D01*
X88909711Y-48436275D01*
X88865766Y-48424500D01*
X88714234Y-48424500D01*
X88567863Y-48463719D01*
X88436635Y-48539485D01*
X88436632Y-48539487D01*
X88329487Y-48646632D01*
X88329485Y-48646635D01*
X88251477Y-48781747D01*
X88200909Y-48829962D01*
X88132302Y-48843184D01*
X88067437Y-48817216D01*
X88029529Y-48767199D01*
X87980333Y-48648429D01*
X87980328Y-48648420D01*
X87903724Y-48533773D01*
X87806226Y-48436275D01*
X87691579Y-48359671D01*
X87691566Y-48359664D01*
X87564184Y-48306901D01*
X87564176Y-48306899D01*
X87485000Y-48291149D01*
X87485000Y-48705757D01*
X87475796Y-48700444D01*
X87399496Y-48680000D01*
X87320504Y-48680000D01*
X87244204Y-48700444D01*
X87235000Y-48705757D01*
X87235000Y-48291150D01*
X87234999Y-48291149D01*
X87155823Y-48306899D01*
X87155815Y-48306901D01*
X87028433Y-48359664D01*
X87028420Y-48359671D01*
X86913773Y-48436275D01*
X86816275Y-48533773D01*
X86739671Y-48648420D01*
X86739664Y-48648433D01*
X86686902Y-48775813D01*
X86686899Y-48775823D01*
X86660000Y-48911053D01*
X86660000Y-49405000D01*
X87060000Y-49405000D01*
X87060000Y-49655000D01*
X86660000Y-49655000D01*
X86660000Y-50148946D01*
X86659999Y-50148946D01*
X86686899Y-50284176D01*
X86686902Y-50284186D01*
X86739664Y-50411566D01*
X86739671Y-50411579D01*
X86816275Y-50526226D01*
X86913773Y-50623724D01*
X87028420Y-50700328D01*
X87028433Y-50700335D01*
X87155814Y-50753097D01*
X87155826Y-50753100D01*
X87235000Y-50768849D01*
X87235000Y-50354242D01*
X87244204Y-50359556D01*
X87320504Y-50380000D01*
X87399496Y-50380000D01*
X87475796Y-50359556D01*
X87485000Y-50354242D01*
X87485000Y-50768848D01*
X87564173Y-50753100D01*
X87564185Y-50753097D01*
X87691566Y-50700335D01*
X87691578Y-50700328D01*
X87737109Y-50669906D01*
X87803786Y-50649028D01*
X87871166Y-50667512D01*
X87917857Y-50719491D01*
X87930000Y-50773008D01*
X87930000Y-51189702D01*
X87941602Y-51248033D01*
X87941603Y-51248034D01*
X87985808Y-51314191D01*
X88051965Y-51358396D01*
X88051966Y-51358397D01*
X88110297Y-51369999D01*
X88110301Y-51370000D01*
X88305000Y-51370000D01*
X88305000Y-50570000D01*
X87924000Y-50570000D01*
X87915314Y-50567449D01*
X87906353Y-50568738D01*
X87882312Y-50557759D01*
X87856961Y-50550315D01*
X87851033Y-50543474D01*
X87842797Y-50539713D01*
X87828507Y-50517478D01*
X87811206Y-50497511D01*
X87808918Y-50486996D01*
X87805023Y-50480935D01*
X87800000Y-50446000D01*
X87800000Y-50444000D01*
X87819685Y-50376961D01*
X87872489Y-50331206D01*
X87924000Y-50320000D01*
X88306000Y-50320000D01*
X88373039Y-50339685D01*
X88418794Y-50392489D01*
X88430000Y-50444000D01*
X88430000Y-50445000D01*
X88431000Y-50445000D01*
X88498039Y-50464685D01*
X88543794Y-50517489D01*
X88555000Y-50569000D01*
X88555000Y-51370000D01*
X88653667Y-51370000D01*
X88676388Y-51376671D01*
X88699959Y-51378965D01*
X88712560Y-51387293D01*
X88720706Y-51389685D01*
X88730493Y-51396667D01*
X88736202Y-51401173D01*
X88757235Y-51422206D01*
X88769977Y-51427832D01*
X88782326Y-51437579D01*
X88793805Y-51453760D01*
X88808963Y-51466564D01*
X88813607Y-51481674D01*
X88822752Y-51494565D01*
X88823660Y-51514383D01*
X88829490Y-51533350D01*
X88829500Y-51534912D01*
X88829500Y-51850500D01*
X88809815Y-51917539D01*
X88757011Y-51963294D01*
X88705500Y-51974500D01*
X88483856Y-51974500D01*
X88445841Y-51979065D01*
X88399411Y-51984640D01*
X88265023Y-52037636D01*
X88149921Y-52124921D01*
X88062634Y-52240026D01*
X88062634Y-52240027D01*
X88035687Y-52308360D01*
X87992781Y-52363504D01*
X87926873Y-52386697D01*
X87858889Y-52370576D01*
X87810413Y-52320259D01*
X87809848Y-52319165D01*
X87773116Y-52247075D01*
X87773113Y-52247071D01*
X87677928Y-52151886D01*
X87677923Y-52151883D01*
X87557965Y-52090760D01*
X87557966Y-52090760D01*
X87458456Y-52075000D01*
X87325000Y-52075000D01*
X87325000Y-53424999D01*
X87458449Y-53424999D01*
X87557967Y-53409237D01*
X87677923Y-53348116D01*
X87677928Y-53348113D01*
X87750319Y-53275723D01*
X87769755Y-53265110D01*
X87786489Y-53250610D01*
X87799820Y-53248693D01*
X87811642Y-53242238D01*
X87833728Y-53243817D01*
X87855647Y-53240666D01*
X87867898Y-53246261D01*
X87881334Y-53247222D01*
X87899060Y-53260492D01*
X87919203Y-53269691D01*
X87926485Y-53281022D01*
X87937267Y-53289094D01*
X87945004Y-53309839D01*
X87956977Y-53328469D01*
X87960128Y-53350387D01*
X87961684Y-53354558D01*
X87962000Y-53363404D01*
X87962000Y-53524872D01*
X87942315Y-53591911D01*
X87911634Y-53624642D01*
X87890350Y-53640350D01*
X87809707Y-53749617D01*
X87809706Y-53749619D01*
X87764853Y-53877798D01*
X87764853Y-53877800D01*
X87762000Y-53908230D01*
X87762000Y-55041769D01*
X87764853Y-55072199D01*
X87764853Y-55072201D01*
X87809706Y-55200380D01*
X87809707Y-55200382D01*
X87890350Y-55309650D01*
X87999618Y-55390293D01*
X88042345Y-55405244D01*
X88127799Y-55435146D01*
X88158230Y-55438000D01*
X88158234Y-55438000D01*
X88566770Y-55438000D01*
X88597199Y-55435146D01*
X88597201Y-55435146D01*
X88661290Y-55412719D01*
X88725382Y-55390293D01*
X88834650Y-55309650D01*
X88915293Y-55200382D01*
X88937719Y-55136290D01*
X88960146Y-55072201D01*
X88960146Y-55072199D01*
X88963000Y-55041769D01*
X88963000Y-53908230D01*
X88960146Y-53877800D01*
X88960146Y-53877798D01*
X88915293Y-53749619D01*
X88915293Y-53749618D01*
X88895745Y-53723132D01*
X88881547Y-53684256D01*
X89480001Y-53684256D01*
X89486422Y-53733038D01*
X89486424Y-53733045D01*
X89536351Y-53840112D01*
X89619887Y-53923648D01*
X89726960Y-53973577D01*
X89726959Y-53973577D01*
X89775735Y-53979998D01*
X89775751Y-53979999D01*
X90125000Y-53979999D01*
X90224256Y-53979999D01*
X90273038Y-53973577D01*
X90273045Y-53973575D01*
X90380112Y-53923648D01*
X90463648Y-53840112D01*
X90513577Y-53733040D01*
X90519998Y-53684265D01*
X90520000Y-53684248D01*
X90520000Y-53635000D01*
X90125000Y-53635000D01*
X90125000Y-53979999D01*
X89775751Y-53979999D01*
X89875000Y-53979998D01*
X89875000Y-53635000D01*
X89480001Y-53635000D01*
X89480001Y-53684256D01*
X88881547Y-53684256D01*
X88871776Y-53657504D01*
X88887092Y-53589334D01*
X88936832Y-53540266D01*
X88995517Y-53525500D01*
X89016138Y-53525500D01*
X89016144Y-53525500D01*
X89100590Y-53515359D01*
X89219966Y-53468282D01*
X89219969Y-53468282D01*
X89234971Y-53462366D01*
X89234972Y-53462365D01*
X89234975Y-53462364D01*
X89332173Y-53388655D01*
X89397484Y-53363833D01*
X89465848Y-53378261D01*
X89474909Y-53385000D01*
X90519999Y-53385000D01*
X90519999Y-53335743D01*
X90513577Y-53286961D01*
X90513575Y-53286954D01*
X90463648Y-53179887D01*
X90439372Y-53155611D01*
X90405887Y-53094288D01*
X90410871Y-53024596D01*
X90452743Y-52968663D01*
X90453123Y-52968379D01*
X90496423Y-52936423D01*
X90574381Y-52830794D01*
X90612944Y-52720589D01*
X90617741Y-52706881D01*
X90617741Y-52706879D01*
X90620112Y-52681593D01*
X90620500Y-52677457D01*
X90620499Y-52302544D01*
X90617741Y-52273121D01*
X90574381Y-52149206D01*
X90531246Y-52090760D01*
X90496423Y-52043576D01*
X90383317Y-51960101D01*
X90384849Y-51958024D01*
X90373297Y-51952748D01*
X90361761Y-51934798D01*
X90346474Y-51919915D01*
X90342525Y-51904865D01*
X90335523Y-51893970D01*
X90330500Y-51859035D01*
X90330500Y-51647411D01*
X90350185Y-51580372D01*
X90402989Y-51534617D01*
X90472147Y-51524673D01*
X90535703Y-51553698D01*
X90561887Y-51585411D01*
X90609517Y-51667909D01*
X90609519Y-51667911D01*
X90609520Y-51667913D01*
X90658519Y-51716912D01*
X90658520Y-51716913D01*
X90733087Y-51791480D01*
X90824413Y-51844207D01*
X90926273Y-51871500D01*
X91031727Y-51871500D01*
X91430500Y-51871500D01*
X91497539Y-51891185D01*
X91543294Y-51943989D01*
X91554500Y-51995500D01*
X91554500Y-56048307D01*
X91534815Y-56115346D01*
X91482011Y-56161101D01*
X91412853Y-56171045D01*
X91398407Y-56168082D01*
X91365507Y-56159266D01*
X91329057Y-56149500D01*
X91170943Y-56149500D01*
X91018216Y-56190423D01*
X91018209Y-56190426D01*
X90881290Y-56269475D01*
X90881282Y-56269481D01*
X90837583Y-56313181D01*
X90776260Y-56346666D01*
X90749902Y-56349500D01*
X90037000Y-56349500D01*
X89969961Y-56329815D01*
X89924206Y-56277011D01*
X89913000Y-56225500D01*
X89913000Y-56183230D01*
X89910146Y-56152800D01*
X89910146Y-56152798D01*
X89865293Y-56024619D01*
X89865292Y-56024617D01*
X89852997Y-56007958D01*
X89784650Y-55915350D01*
X89675382Y-55834707D01*
X89675380Y-55834706D01*
X89547200Y-55789853D01*
X89516770Y-55787000D01*
X89516766Y-55787000D01*
X89108234Y-55787000D01*
X89108230Y-55787000D01*
X89077800Y-55789853D01*
X89077798Y-55789853D01*
X88949619Y-55834706D01*
X88949617Y-55834707D01*
X88840350Y-55915350D01*
X88759707Y-56024617D01*
X88759706Y-56024619D01*
X88714853Y-56152798D01*
X88714853Y-56152800D01*
X88712000Y-56183230D01*
X88712000Y-57316769D01*
X88714853Y-57347199D01*
X88714853Y-57347201D01*
X88759706Y-57475380D01*
X88759707Y-57475382D01*
X88800433Y-57530564D01*
X88835699Y-57578349D01*
X88840350Y-57584650D01*
X88861632Y-57600357D01*
X88864655Y-57604338D01*
X88869203Y-57606415D01*
X88885570Y-57631884D01*
X88903884Y-57656003D01*
X88905011Y-57662135D01*
X88906977Y-57665193D01*
X88912000Y-57700128D01*
X88912000Y-57757782D01*
X88892315Y-57824821D01*
X88839511Y-57870576D01*
X88833490Y-57873136D01*
X88765027Y-57900134D01*
X88765026Y-57900134D01*
X88649921Y-57987421D01*
X88562634Y-58102526D01*
X88562634Y-58102527D01*
X88535687Y-58170860D01*
X88492781Y-58226004D01*
X88426873Y-58249197D01*
X88358889Y-58233076D01*
X88310413Y-58182759D01*
X88309848Y-58181665D01*
X88273116Y-58109575D01*
X88273113Y-58109571D01*
X88177928Y-58014386D01*
X88177923Y-58014383D01*
X88057965Y-57953260D01*
X88057966Y-57953260D01*
X87958456Y-57937500D01*
X87825000Y-57937500D01*
X87825000Y-59287499D01*
X87958449Y-59287499D01*
X88057967Y-59271737D01*
X88177923Y-59210616D01*
X88177928Y-59210613D01*
X88273113Y-59115428D01*
X88273116Y-59115424D01*
X88309848Y-59043335D01*
X88357823Y-58992539D01*
X88425644Y-58975744D01*
X88491778Y-58998281D01*
X88535230Y-59052996D01*
X88535687Y-59054140D01*
X88562634Y-59122472D01*
X88562634Y-59122473D01*
X88649921Y-59237578D01*
X88765021Y-59324861D01*
X88765025Y-59324864D01*
X88770988Y-59327215D01*
X88826131Y-59370117D01*
X88849327Y-59436024D01*
X88849500Y-59442570D01*
X88849500Y-59452277D01*
X88852232Y-59462473D01*
X88876793Y-59554139D01*
X88880319Y-59560246D01*
X88929520Y-59645463D01*
X90163467Y-60879410D01*
X91363406Y-62079348D01*
X91396891Y-62140671D01*
X91399725Y-62167029D01*
X91399725Y-62423603D01*
X91380040Y-62490642D01*
X91327236Y-62536397D01*
X91259542Y-62546542D01*
X91209855Y-62540001D01*
X91209833Y-62540000D01*
X91125000Y-62540000D01*
X91125000Y-62896000D01*
X91122449Y-62904685D01*
X91123738Y-62913647D01*
X91112759Y-62937687D01*
X91105315Y-62963039D01*
X91098474Y-62968966D01*
X91094713Y-62977203D01*
X91072478Y-62991492D01*
X91052511Y-63008794D01*
X91041996Y-63011081D01*
X91035935Y-63014977D01*
X91001000Y-63020000D01*
X91000000Y-63020000D01*
X91000000Y-63021000D01*
X90980315Y-63088039D01*
X90927511Y-63133794D01*
X90876000Y-63145000D01*
X90490000Y-63145000D01*
X90490000Y-63199833D01*
X90490001Y-63199850D01*
X90496518Y-63249354D01*
X90499173Y-63258461D01*
X90496647Y-63259197D01*
X90504981Y-63314092D01*
X90476456Y-63377874D01*
X90417976Y-63416109D01*
X90348109Y-63416658D01*
X90341153Y-63414451D01*
X90277826Y-63392291D01*
X90277814Y-63392289D01*
X90248070Y-63389500D01*
X90248066Y-63389500D01*
X90062255Y-63389500D01*
X89995216Y-63369815D01*
X89974574Y-63353181D01*
X89689915Y-63068522D01*
X89689913Y-63068520D01*
X89643217Y-63041560D01*
X89598589Y-63015793D01*
X89547657Y-63002146D01*
X89496727Y-62988500D01*
X89496726Y-62988500D01*
X88884656Y-62988500D01*
X88817617Y-62968815D01*
X88771862Y-62916011D01*
X88761918Y-62846853D01*
X88764972Y-62840166D01*
X90490000Y-62840166D01*
X90490000Y-62895000D01*
X90875000Y-62895000D01*
X90875000Y-62540000D01*
X90790167Y-62540000D01*
X90790149Y-62540001D01*
X90740645Y-62546518D01*
X90631975Y-62597192D01*
X90547192Y-62681975D01*
X90496518Y-62790645D01*
X90490001Y-62840149D01*
X90490000Y-62840166D01*
X88764972Y-62840166D01*
X88790943Y-62783297D01*
X88822656Y-62757113D01*
X88868709Y-62730524D01*
X88868716Y-62730520D01*
X88980520Y-62618716D01*
X89059577Y-62481784D01*
X89100500Y-62329057D01*
X89100500Y-62170943D01*
X89059577Y-62018216D01*
X89008369Y-61929520D01*
X88980524Y-61881290D01*
X88980518Y-61881282D01*
X88868717Y-61769481D01*
X88868709Y-61769475D01*
X88731790Y-61690426D01*
X88731786Y-61690424D01*
X88731784Y-61690423D01*
X88579057Y-61649500D01*
X88420943Y-61649500D01*
X88268216Y-61690423D01*
X88268209Y-61690426D01*
X88131290Y-61769475D01*
X88131282Y-61769481D01*
X88087583Y-61813181D01*
X88026260Y-61846666D01*
X87999902Y-61849500D01*
X86697273Y-61849500D01*
X86595410Y-61876793D01*
X86504087Y-61929520D01*
X86504084Y-61929522D01*
X85679522Y-62754084D01*
X85679515Y-62754093D01*
X85627528Y-62844136D01*
X85576961Y-62892351D01*
X85508353Y-62905573D01*
X85488056Y-62901911D01*
X85479057Y-62899500D01*
X85320943Y-62899500D01*
X85168216Y-62940423D01*
X85168209Y-62940426D01*
X85031290Y-63019475D01*
X85031282Y-63019481D01*
X84919481Y-63131282D01*
X84919475Y-63131290D01*
X84840426Y-63268209D01*
X84840423Y-63268216D01*
X84799500Y-63420943D01*
X84799500Y-63482745D01*
X84779815Y-63549784D01*
X84763181Y-63570426D01*
X84330522Y-64003084D01*
X84330520Y-64003087D01*
X84277793Y-64094412D01*
X84261669Y-64154588D01*
X84261669Y-64154589D01*
X84261668Y-64154588D01*
X84250500Y-64196269D01*
X84250500Y-67134745D01*
X84230815Y-67201784D01*
X84178011Y-67247539D01*
X84108853Y-67257483D01*
X84045297Y-67228458D01*
X84038819Y-67222426D01*
X83459404Y-66643011D01*
X83425919Y-66581688D01*
X83430903Y-66511996D01*
X83459401Y-66467651D01*
X83487553Y-66439501D01*
X83495180Y-66429004D01*
X83529313Y-66382023D01*
X83593996Y-66292994D01*
X83676211Y-66131639D01*
X83732171Y-65959409D01*
X83753759Y-65823107D01*
X83760500Y-65780551D01*
X83760500Y-65599448D01*
X83744019Y-65495397D01*
X83732171Y-65420591D01*
X83676211Y-65248361D01*
X83676211Y-65248360D01*
X83647740Y-65192484D01*
X83593996Y-65087006D01*
X83531401Y-65000851D01*
X83487558Y-64940505D01*
X83487554Y-64940500D01*
X83359499Y-64812445D01*
X83359494Y-64812441D01*
X83212997Y-64706006D01*
X83212996Y-64706005D01*
X83212994Y-64706004D01*
X83161300Y-64679664D01*
X83051639Y-64623788D01*
X83051636Y-64623787D01*
X82879410Y-64567829D01*
X82700551Y-64539500D01*
X82700546Y-64539500D01*
X82519454Y-64539500D01*
X82519449Y-64539500D01*
X82340589Y-64567829D01*
X82168363Y-64623787D01*
X82168360Y-64623788D01*
X82007002Y-64706006D01*
X81860505Y-64812441D01*
X81860500Y-64812445D01*
X81732445Y-64940500D01*
X81732441Y-64940505D01*
X81724818Y-64950998D01*
X81669488Y-64993664D01*
X81599875Y-64999643D01*
X81538080Y-64967037D01*
X81503723Y-64906199D01*
X81500500Y-64878113D01*
X81500500Y-63788240D01*
X81520185Y-63721201D01*
X81572989Y-63675446D01*
X81642147Y-63665502D01*
X81705703Y-63694527D01*
X81727602Y-63719349D01*
X81782185Y-63801037D01*
X82179270Y-63403952D01*
X82209901Y-63457007D01*
X82302993Y-63550099D01*
X82356046Y-63580729D01*
X81958961Y-63977814D01*
X82112640Y-64080499D01*
X82303725Y-64159649D01*
X82303733Y-64159651D01*
X82506579Y-64199999D01*
X82506583Y-64200000D01*
X82713417Y-64200000D01*
X82713420Y-64199999D01*
X82916266Y-64159651D01*
X82916274Y-64159649D01*
X83107359Y-64080499D01*
X83261038Y-63977814D01*
X82863953Y-63580729D01*
X82917007Y-63550099D01*
X83010099Y-63457007D01*
X83040729Y-63403953D01*
X83437814Y-63801038D01*
X83540499Y-63647359D01*
X83619649Y-63456274D01*
X83619651Y-63456266D01*
X83659999Y-63253420D01*
X83660000Y-63253417D01*
X83660000Y-63046583D01*
X83659999Y-63046579D01*
X83619651Y-62843733D01*
X83619649Y-62843725D01*
X83540499Y-62652640D01*
X83437814Y-62498961D01*
X83040729Y-62896045D01*
X83010099Y-62842993D01*
X82917007Y-62749901D01*
X82863953Y-62719270D01*
X83261037Y-62322185D01*
X83261037Y-62322184D01*
X83107368Y-62219505D01*
X83107358Y-62219500D01*
X82916274Y-62140350D01*
X82916266Y-62140348D01*
X82713420Y-62100000D01*
X82506579Y-62100000D01*
X82303733Y-62140348D01*
X82303725Y-62140350D01*
X82112636Y-62219502D01*
X82112635Y-62219502D01*
X81958961Y-62322183D01*
X81958961Y-62322185D01*
X82356046Y-62719270D01*
X82302993Y-62749901D01*
X82209901Y-62842993D01*
X82179270Y-62896046D01*
X81782185Y-62498961D01*
X81782184Y-62498961D01*
X81727602Y-62580650D01*
X81701580Y-62602397D01*
X81676011Y-62624553D01*
X81674873Y-62624716D01*
X81673990Y-62625455D01*
X81640377Y-62629676D01*
X81606853Y-62634497D01*
X81605805Y-62634018D01*
X81604665Y-62634162D01*
X81574120Y-62619548D01*
X81543297Y-62605472D01*
X81542674Y-62604504D01*
X81541638Y-62604008D01*
X81523836Y-62575190D01*
X81505523Y-62546694D01*
X81505307Y-62545195D01*
X81504918Y-62544565D01*
X81500500Y-62511759D01*
X81500500Y-61421886D01*
X81520185Y-61354847D01*
X81572989Y-61309092D01*
X81642147Y-61299148D01*
X81705703Y-61328173D01*
X81724821Y-61349004D01*
X81732446Y-61359500D01*
X81860500Y-61487554D01*
X81860505Y-61487558D01*
X81988287Y-61580396D01*
X82007006Y-61593996D01*
X82112484Y-61647740D01*
X82168360Y-61676211D01*
X82168363Y-61676212D01*
X82254476Y-61704191D01*
X82340591Y-61732171D01*
X82423429Y-61745291D01*
X82519449Y-61760500D01*
X82519454Y-61760500D01*
X82700551Y-61760500D01*
X82787259Y-61746765D01*
X82879409Y-61732171D01*
X83051639Y-61676211D01*
X83212994Y-61593996D01*
X83359501Y-61487553D01*
X83487553Y-61359501D01*
X83593996Y-61212994D01*
X83658829Y-61085752D01*
X83662675Y-61078205D01*
X83710650Y-61027409D01*
X83773160Y-61010500D01*
X84842825Y-61010500D01*
X84909864Y-61030185D01*
X84930506Y-61046819D01*
X84969435Y-61085748D01*
X84969437Y-61085749D01*
X84969441Y-61085752D01*
X85098365Y-61160185D01*
X85106367Y-61164805D01*
X85259094Y-61205728D01*
X85259096Y-61205728D01*
X85417206Y-61205728D01*
X85417208Y-61205728D01*
X85569935Y-61164805D01*
X85706867Y-61085748D01*
X85818671Y-60973944D01*
X85897728Y-60837012D01*
X85938651Y-60684285D01*
X85938651Y-60526171D01*
X85897728Y-60373444D01*
X85897724Y-60373437D01*
X85818675Y-60236518D01*
X85818669Y-60236510D01*
X85706868Y-60124709D01*
X85706860Y-60124703D01*
X85569941Y-60045654D01*
X85569937Y-60045652D01*
X85569935Y-60045651D01*
X85417208Y-60004728D01*
X85259094Y-60004728D01*
X85106367Y-60045651D01*
X85106360Y-60045654D01*
X84969441Y-60124703D01*
X84969433Y-60124709D01*
X84920962Y-60173181D01*
X84859639Y-60206666D01*
X84833281Y-60209500D01*
X83773160Y-60209500D01*
X83758557Y-60205212D01*
X83743353Y-60205864D01*
X83725714Y-60195568D01*
X83706121Y-60189815D01*
X83695224Y-60177770D01*
X83683011Y-60170642D01*
X83662675Y-60141795D01*
X83631594Y-60080795D01*
X83618698Y-60012126D01*
X83644974Y-59947385D01*
X83702081Y-59907128D01*
X83742079Y-59900500D01*
X83802725Y-59900500D01*
X83802727Y-59900500D01*
X83904587Y-59873207D01*
X83995913Y-59820480D01*
X84028574Y-59787819D01*
X84089897Y-59754334D01*
X84116255Y-59751500D01*
X86551668Y-59751500D01*
X86551670Y-59751500D01*
X86653531Y-59724207D01*
X86744856Y-59671480D01*
X87096911Y-59319424D01*
X87096913Y-59319423D01*
X87147538Y-59268797D01*
X87177135Y-59252637D01*
X87208857Y-59235315D01*
X87208859Y-59235315D01*
X87218827Y-59236028D01*
X87278549Y-59240299D01*
X87291511Y-59245997D01*
X87342028Y-59271737D01*
X87342033Y-59271739D01*
X87441543Y-59287499D01*
X87574999Y-59287499D01*
X87575000Y-59287498D01*
X87575000Y-57937500D01*
X87441550Y-57937500D01*
X87342032Y-57953262D01*
X87213382Y-58018813D01*
X87212198Y-58016489D01*
X87160097Y-58035073D01*
X87092045Y-58019242D01*
X87065349Y-57998956D01*
X86886819Y-57820426D01*
X86873232Y-57795544D01*
X86856980Y-57772307D01*
X86855452Y-57762983D01*
X86853334Y-57759103D01*
X86850595Y-57737595D01*
X86850500Y-57735167D01*
X86850500Y-57670943D01*
X86847556Y-57659956D01*
X86847014Y-57646107D01*
X86852290Y-57625134D01*
X86852803Y-57603512D01*
X86860646Y-57591920D01*
X86864061Y-57578349D01*
X86879839Y-57563557D01*
X86891960Y-57545646D01*
X86904824Y-57540135D01*
X86915035Y-57530564D01*
X86936303Y-57526651D01*
X86956186Y-57518135D01*
X86969989Y-57520454D01*
X86983752Y-57517923D01*
X87003758Y-57526130D01*
X87025090Y-57529715D01*
X87042202Y-57541900D01*
X87048394Y-57544440D01*
X87050062Y-57546825D01*
X87056311Y-57551287D01*
X87161247Y-57602586D01*
X87229286Y-57612499D01*
X87537500Y-57612499D01*
X87595718Y-57612499D01*
X87663749Y-57602587D01*
X87768691Y-57551284D01*
X87851287Y-57468688D01*
X87902587Y-57363751D01*
X87902588Y-57363748D01*
X87912500Y-57295719D01*
X87912500Y-56875000D01*
X87537500Y-56875000D01*
X87537500Y-57612499D01*
X87229286Y-57612499D01*
X87287499Y-57612498D01*
X87287500Y-57612498D01*
X87287500Y-56875000D01*
X86912501Y-56875000D01*
X86912501Y-57263903D01*
X86892816Y-57330942D01*
X86840012Y-57376697D01*
X86770854Y-57386641D01*
X86707298Y-57357616D01*
X86700820Y-57351584D01*
X86618717Y-57269481D01*
X86618709Y-57269475D01*
X86481790Y-57190426D01*
X86481786Y-57190424D01*
X86481784Y-57190423D01*
X86329057Y-57149500D01*
X86170943Y-57149500D01*
X86018216Y-57190423D01*
X86018209Y-57190426D01*
X85881290Y-57269475D01*
X85881282Y-57269481D01*
X85769481Y-57381282D01*
X85769475Y-57381290D01*
X85690426Y-57518209D01*
X85690423Y-57518216D01*
X85649500Y-57670943D01*
X85649500Y-57703745D01*
X85629815Y-57770784D01*
X85577011Y-57816539D01*
X85507853Y-57826483D01*
X85444297Y-57797458D01*
X85437819Y-57791426D01*
X83850673Y-56204280D01*
X86912500Y-56204280D01*
X86912500Y-56625000D01*
X87287500Y-56625000D01*
X87537500Y-56625000D01*
X87912499Y-56625000D01*
X87912499Y-56204282D01*
X87902587Y-56136250D01*
X87851284Y-56031308D01*
X87768688Y-55948712D01*
X87663751Y-55897412D01*
X87663748Y-55897411D01*
X87595720Y-55887500D01*
X87537500Y-55887500D01*
X87537500Y-56625000D01*
X87287500Y-56625000D01*
X87287500Y-55887500D01*
X87287499Y-55887499D01*
X87229287Y-55887500D01*
X87161251Y-55897412D01*
X87056308Y-55948715D01*
X86973712Y-56031311D01*
X86922412Y-56136248D01*
X86922411Y-56136251D01*
X86912500Y-56204280D01*
X83850673Y-56204280D01*
X83715674Y-56069281D01*
X83682189Y-56007958D01*
X83685423Y-55943284D01*
X83732171Y-55799409D01*
X83734136Y-55787000D01*
X83760500Y-55620551D01*
X83760500Y-55439448D01*
X83739941Y-55309649D01*
X83732171Y-55260591D01*
X83676211Y-55088361D01*
X83676211Y-55088360D01*
X83647740Y-55032484D01*
X83593996Y-54927006D01*
X83531401Y-54840851D01*
X83487558Y-54780505D01*
X83487554Y-54780500D01*
X83359499Y-54652445D01*
X83359494Y-54652441D01*
X83212997Y-54546006D01*
X83212996Y-54546005D01*
X83212994Y-54546004D01*
X83126748Y-54502059D01*
X83051639Y-54463788D01*
X83051636Y-54463787D01*
X82879410Y-54407829D01*
X82719321Y-54382473D01*
X82656186Y-54352544D01*
X82619255Y-54293232D01*
X82620253Y-54223370D01*
X82658863Y-54165137D01*
X82719321Y-54137527D01*
X82789425Y-54126422D01*
X82879409Y-54112171D01*
X83051639Y-54056211D01*
X83212994Y-53973996D01*
X83359501Y-53867553D01*
X83487553Y-53739501D01*
X83593996Y-53592994D01*
X83676211Y-53431639D01*
X83732171Y-53259409D01*
X83748611Y-53155611D01*
X83760500Y-53080551D01*
X83760500Y-53033449D01*
X86550001Y-53033449D01*
X86565762Y-53132967D01*
X86626883Y-53252923D01*
X86626886Y-53252928D01*
X86722071Y-53348113D01*
X86722076Y-53348116D01*
X86842034Y-53409239D01*
X86842033Y-53409239D01*
X86941543Y-53424999D01*
X87074999Y-53424999D01*
X87075000Y-53424998D01*
X87075000Y-52875000D01*
X86550001Y-52875000D01*
X86550001Y-53033449D01*
X83760500Y-53033449D01*
X83760500Y-52899448D01*
X83751565Y-52843036D01*
X83741772Y-52781214D01*
X83732171Y-52720591D01*
X83676211Y-52548361D01*
X83676211Y-52548360D01*
X83660727Y-52517972D01*
X83634522Y-52466543D01*
X86550000Y-52466543D01*
X86550000Y-52625000D01*
X87075000Y-52625000D01*
X87075000Y-52075000D01*
X86941550Y-52075000D01*
X86842032Y-52090762D01*
X86722076Y-52151883D01*
X86722071Y-52151886D01*
X86626886Y-52247071D01*
X86626883Y-52247076D01*
X86565760Y-52367033D01*
X86550000Y-52466543D01*
X83634522Y-52466543D01*
X83593996Y-52387006D01*
X83531401Y-52300851D01*
X83487558Y-52240505D01*
X83487554Y-52240500D01*
X83359499Y-52112445D01*
X83359494Y-52112441D01*
X83212997Y-52006006D01*
X83212996Y-52006005D01*
X83212994Y-52006004D01*
X83151164Y-51974500D01*
X83051639Y-51923788D01*
X83051636Y-51923787D01*
X82879410Y-51867829D01*
X82700551Y-51839500D01*
X82700546Y-51839500D01*
X82519454Y-51839500D01*
X82519449Y-51839500D01*
X82340589Y-51867829D01*
X82168363Y-51923787D01*
X82168360Y-51923788D01*
X82007002Y-52006006D01*
X81860505Y-52112441D01*
X81860500Y-52112445D01*
X81732445Y-52240500D01*
X81732441Y-52240505D01*
X81724818Y-52250998D01*
X81669488Y-52293664D01*
X81599875Y-52299643D01*
X81538080Y-52267037D01*
X81503723Y-52206199D01*
X81500500Y-52178113D01*
X81500500Y-51088240D01*
X81520185Y-51021201D01*
X81572989Y-50975446D01*
X81642147Y-50965502D01*
X81705703Y-50994527D01*
X81727602Y-51019349D01*
X81782185Y-51101037D01*
X82179270Y-50703952D01*
X82209901Y-50757007D01*
X82302993Y-50850099D01*
X82356046Y-50880729D01*
X81958961Y-51277814D01*
X82112640Y-51380499D01*
X82303725Y-51459649D01*
X82303733Y-51459651D01*
X82506579Y-51499999D01*
X82506583Y-51500000D01*
X82713417Y-51500000D01*
X82713420Y-51499999D01*
X82916266Y-51459651D01*
X82916274Y-51459649D01*
X83107359Y-51380499D01*
X83261038Y-51277814D01*
X82863953Y-50880729D01*
X82917007Y-50850099D01*
X83010099Y-50757007D01*
X83040729Y-50703953D01*
X83437814Y-51101038D01*
X83540499Y-50947359D01*
X83619649Y-50756274D01*
X83619651Y-50756266D01*
X83659999Y-50553420D01*
X83660000Y-50553417D01*
X83660000Y-50346583D01*
X83659999Y-50346579D01*
X83619651Y-50143733D01*
X83619649Y-50143725D01*
X83540499Y-49952640D01*
X83437814Y-49798961D01*
X83040729Y-50196045D01*
X83010099Y-50142993D01*
X82917007Y-50049901D01*
X82863953Y-50019270D01*
X83261037Y-49622185D01*
X83107368Y-49519505D01*
X83107358Y-49519500D01*
X82916274Y-49440350D01*
X82916266Y-49440348D01*
X82713420Y-49400000D01*
X82506579Y-49400000D01*
X82303733Y-49440348D01*
X82303725Y-49440350D01*
X82112636Y-49519502D01*
X82112635Y-49519502D01*
X81958961Y-49622183D01*
X81958961Y-49622185D01*
X82356046Y-50019270D01*
X82302993Y-50049901D01*
X82209901Y-50142993D01*
X82179270Y-50196046D01*
X81782185Y-49798961D01*
X81782184Y-49798961D01*
X81727602Y-49880650D01*
X81701580Y-49902397D01*
X81676011Y-49924553D01*
X81674873Y-49924716D01*
X81673990Y-49925455D01*
X81640377Y-49929676D01*
X81606853Y-49934497D01*
X81605805Y-49934018D01*
X81604665Y-49934162D01*
X81574120Y-49919548D01*
X81543297Y-49905472D01*
X81542674Y-49904504D01*
X81541638Y-49904008D01*
X81523836Y-49875190D01*
X81505523Y-49846694D01*
X81505307Y-49845195D01*
X81504918Y-49844565D01*
X81500500Y-49811759D01*
X81500500Y-48721886D01*
X81520185Y-48654847D01*
X81572989Y-48609092D01*
X81642147Y-48599148D01*
X81705703Y-48628173D01*
X81724821Y-48649004D01*
X81732446Y-48659500D01*
X81860500Y-48787554D01*
X81860505Y-48787558D01*
X81988287Y-48880396D01*
X82007006Y-48893996D01*
X82098283Y-48940504D01*
X82168360Y-48976211D01*
X82168363Y-48976212D01*
X82254476Y-49004191D01*
X82340591Y-49032171D01*
X82423429Y-49045291D01*
X82519449Y-49060500D01*
X82519454Y-49060500D01*
X82700551Y-49060500D01*
X82787259Y-49046765D01*
X82879409Y-49032171D01*
X83051639Y-48976211D01*
X83212994Y-48893996D01*
X83301130Y-48829962D01*
X83335971Y-48804649D01*
X83335975Y-48804646D01*
X83348157Y-48795795D01*
X83359501Y-48787553D01*
X83487553Y-48659501D01*
X83593996Y-48512994D01*
X83676211Y-48351639D01*
X83732171Y-48179409D01*
X83746765Y-48087259D01*
X83760500Y-48000551D01*
X83760500Y-47819448D01*
X83733740Y-47650499D01*
X83732171Y-47640591D01*
X83676211Y-47468361D01*
X83676211Y-47468360D01*
X83647740Y-47412484D01*
X83593996Y-47307006D01*
X83531401Y-47220851D01*
X83487558Y-47160505D01*
X83487554Y-47160500D01*
X83359499Y-47032445D01*
X83359494Y-47032441D01*
X83212997Y-46926006D01*
X83212996Y-46926005D01*
X83212994Y-46926004D01*
X83116413Y-46876793D01*
X83051639Y-46843788D01*
X83051636Y-46843787D01*
X82879410Y-46787829D01*
X82747728Y-46766972D01*
X82684594Y-46737042D01*
X82647663Y-46677731D01*
X82648661Y-46607868D01*
X82687271Y-46549636D01*
X82751235Y-46521522D01*
X82767120Y-46520499D01*
X83504864Y-46520499D01*
X83504879Y-46520497D01*
X83504882Y-46520497D01*
X83529987Y-46517586D01*
X83529988Y-46517585D01*
X83529991Y-46517585D01*
X83632765Y-46472206D01*
X83712206Y-46392765D01*
X83757585Y-46289991D01*
X83760500Y-46264865D01*
X83760499Y-44624499D01*
X83780184Y-44557461D01*
X83832988Y-44511706D01*
X83884499Y-44500500D01*
X86653294Y-44500500D01*
X86720333Y-44520185D01*
G37*
%TD.AperFunction*%
%TA.AperFunction,Conductor*%
G36*
X101461917Y-61332959D02*
G01*
X101496277Y-61393796D01*
X101499500Y-61421886D01*
X101499500Y-62511760D01*
X101479815Y-62578799D01*
X101427011Y-62624554D01*
X101357853Y-62634498D01*
X101294297Y-62605473D01*
X101272398Y-62580651D01*
X101217814Y-62498960D01*
X100820728Y-62896045D01*
X100790099Y-62842993D01*
X100697007Y-62749901D01*
X100643953Y-62719270D01*
X101041037Y-62322185D01*
X101041037Y-62322184D01*
X100887368Y-62219505D01*
X100887358Y-62219500D01*
X100696274Y-62140350D01*
X100696266Y-62140348D01*
X100493420Y-62100000D01*
X100286579Y-62100000D01*
X100083733Y-62140348D01*
X100083725Y-62140350D01*
X99892636Y-62219502D01*
X99892635Y-62219502D01*
X99738961Y-62322183D01*
X99738961Y-62322185D01*
X100136046Y-62719270D01*
X100082993Y-62749901D01*
X99989901Y-62842993D01*
X99959270Y-62896046D01*
X99562185Y-62498961D01*
X99562183Y-62498961D01*
X99459502Y-62652635D01*
X99459502Y-62652636D01*
X99380350Y-62843725D01*
X99380348Y-62843733D01*
X99340000Y-63046579D01*
X99340000Y-63253420D01*
X99380348Y-63456266D01*
X99380350Y-63456274D01*
X99459500Y-63647358D01*
X99459505Y-63647368D01*
X99562185Y-63801037D01*
X99959270Y-63403952D01*
X99989901Y-63457007D01*
X100082993Y-63550099D01*
X100136046Y-63580729D01*
X99738961Y-63977814D01*
X99892640Y-64080499D01*
X100083725Y-64159649D01*
X100083733Y-64159651D01*
X100286579Y-64199999D01*
X100286583Y-64200000D01*
X100493417Y-64200000D01*
X100493420Y-64199999D01*
X100696266Y-64159651D01*
X100696274Y-64159649D01*
X100887359Y-64080499D01*
X101041038Y-63977814D01*
X100643953Y-63580729D01*
X100697007Y-63550099D01*
X100790099Y-63457007D01*
X100820729Y-63403953D01*
X101217813Y-63801037D01*
X101272398Y-63719347D01*
X101326010Y-63674542D01*
X101395335Y-63665835D01*
X101458362Y-63695989D01*
X101495082Y-63755432D01*
X101499500Y-63788238D01*
X101499500Y-64878113D01*
X101479815Y-64945152D01*
X101427011Y-64990907D01*
X101357853Y-65000851D01*
X101294297Y-64971826D01*
X101275182Y-64950998D01*
X101267558Y-64940505D01*
X101267554Y-64940500D01*
X101139499Y-64812445D01*
X101139494Y-64812441D01*
X100992997Y-64706006D01*
X100992996Y-64706005D01*
X100992994Y-64706004D01*
X100941300Y-64679664D01*
X100831639Y-64623788D01*
X100831636Y-64623787D01*
X100659410Y-64567829D01*
X100480551Y-64539500D01*
X100480546Y-64539500D01*
X100299454Y-64539500D01*
X100299449Y-64539500D01*
X100120589Y-64567829D01*
X99948363Y-64623787D01*
X99948360Y-64623788D01*
X99787002Y-64706006D01*
X99640505Y-64812441D01*
X99640500Y-64812445D01*
X99512445Y-64940500D01*
X99512441Y-64940505D01*
X99406006Y-65087002D01*
X99323788Y-65248360D01*
X99323787Y-65248363D01*
X99267829Y-65420589D01*
X99239500Y-65599448D01*
X99239500Y-65780551D01*
X99267829Y-65959412D01*
X99314575Y-66103283D01*
X99316570Y-66173124D01*
X99284325Y-66229281D01*
X99049181Y-66464425D01*
X98987858Y-66497910D01*
X98918166Y-66492926D01*
X98862233Y-66451054D01*
X98837816Y-66385590D01*
X98837500Y-66376744D01*
X98837500Y-62780254D01*
X98857185Y-62713215D01*
X98873814Y-62692577D01*
X99850719Y-61715672D01*
X99912040Y-61682189D01*
X99976716Y-61685424D01*
X100120591Y-61732171D01*
X100203429Y-61745291D01*
X100299449Y-61760500D01*
X100299454Y-61760500D01*
X100480551Y-61760500D01*
X100567259Y-61746765D01*
X100659409Y-61732171D01*
X100831639Y-61676211D01*
X100992994Y-61593996D01*
X101139501Y-61487553D01*
X101267553Y-61359501D01*
X101275180Y-61349003D01*
X101330508Y-61306336D01*
X101400121Y-61300355D01*
X101461917Y-61332959D01*
G37*
%TD.AperFunction*%
%TA.AperFunction,Conductor*%
G36*
X101461917Y-48632959D02*
G01*
X101496277Y-48693796D01*
X101499500Y-48721886D01*
X101499500Y-49811760D01*
X101479815Y-49878799D01*
X101427011Y-49924554D01*
X101357853Y-49934498D01*
X101294297Y-49905473D01*
X101272398Y-49880651D01*
X101217814Y-49798960D01*
X100820728Y-50196045D01*
X100790099Y-50142993D01*
X100697007Y-50049901D01*
X100643953Y-50019270D01*
X101041037Y-49622185D01*
X101041037Y-49622184D01*
X100887368Y-49519505D01*
X100887358Y-49519500D01*
X100696274Y-49440350D01*
X100696266Y-49440348D01*
X100493420Y-49400000D01*
X100286579Y-49400000D01*
X100083733Y-49440348D01*
X100083725Y-49440350D01*
X99892636Y-49519502D01*
X99892635Y-49519502D01*
X99738961Y-49622183D01*
X99738961Y-49622185D01*
X100136046Y-50019270D01*
X100082993Y-50049901D01*
X99989901Y-50142993D01*
X99959270Y-50196046D01*
X99562185Y-49798961D01*
X99562183Y-49798961D01*
X99459502Y-49952635D01*
X99459502Y-49952636D01*
X99380350Y-50143725D01*
X99380348Y-50143733D01*
X99340000Y-50346579D01*
X99340000Y-50553420D01*
X99380348Y-50756266D01*
X99380350Y-50756274D01*
X99459500Y-50947358D01*
X99459505Y-50947368D01*
X99562185Y-51101037D01*
X99959270Y-50703952D01*
X99989901Y-50757007D01*
X100082993Y-50850099D01*
X100136046Y-50880729D01*
X99738961Y-51277814D01*
X99892640Y-51380499D01*
X100083725Y-51459649D01*
X100083733Y-51459651D01*
X100286579Y-51499999D01*
X100286583Y-51500000D01*
X100493417Y-51500000D01*
X100493420Y-51499999D01*
X100696266Y-51459651D01*
X100696274Y-51459649D01*
X100887359Y-51380499D01*
X101041038Y-51277814D01*
X100643953Y-50880729D01*
X100697007Y-50850099D01*
X100790099Y-50757007D01*
X100820729Y-50703953D01*
X101217813Y-51101037D01*
X101272398Y-51019347D01*
X101326010Y-50974542D01*
X101395335Y-50965835D01*
X101458362Y-50995989D01*
X101495082Y-51055432D01*
X101499500Y-51088238D01*
X101499500Y-52178113D01*
X101479815Y-52245152D01*
X101427011Y-52290907D01*
X101357853Y-52300851D01*
X101294297Y-52271826D01*
X101275182Y-52250998D01*
X101267558Y-52240505D01*
X101267554Y-52240500D01*
X101139499Y-52112445D01*
X101139494Y-52112441D01*
X100992997Y-52006006D01*
X100992996Y-52006005D01*
X100992994Y-52006004D01*
X100931164Y-51974500D01*
X100831639Y-51923788D01*
X100831636Y-51923787D01*
X100659410Y-51867829D01*
X100480551Y-51839500D01*
X100480546Y-51839500D01*
X100299454Y-51839500D01*
X100299449Y-51839500D01*
X100120589Y-51867829D01*
X99948363Y-51923787D01*
X99948360Y-51923788D01*
X99787002Y-52006006D01*
X99640505Y-52112441D01*
X99640500Y-52112445D01*
X99512445Y-52240500D01*
X99512441Y-52240505D01*
X99406006Y-52387002D01*
X99323788Y-52548360D01*
X99323787Y-52548363D01*
X99267829Y-52720589D01*
X99239500Y-52899448D01*
X99239500Y-53080551D01*
X99267829Y-53259410D01*
X99314575Y-53403281D01*
X99316570Y-53473122D01*
X99284325Y-53529280D01*
X98429522Y-54384084D01*
X98429517Y-54384090D01*
X98381887Y-54466589D01*
X98331320Y-54514805D01*
X98262713Y-54528027D01*
X98197848Y-54502059D01*
X98157320Y-54445145D01*
X98150500Y-54404589D01*
X98150500Y-50767254D01*
X98170185Y-50700215D01*
X98186814Y-50679578D01*
X99850719Y-49015672D01*
X99912040Y-48982189D01*
X99976716Y-48985424D01*
X100120591Y-49032171D01*
X100203429Y-49045291D01*
X100299449Y-49060500D01*
X100299454Y-49060500D01*
X100480551Y-49060500D01*
X100567259Y-49046765D01*
X100659409Y-49032171D01*
X100831639Y-48976211D01*
X100992994Y-48893996D01*
X101139501Y-48787553D01*
X101267553Y-48659501D01*
X101275180Y-48649003D01*
X101330508Y-48606336D01*
X101400121Y-48600355D01*
X101461917Y-48632959D01*
G37*
%TD.AperFunction*%
%TD*%
M02*
