%TF.GenerationSoftware,KiCad,Pcbnew,9.0.7*%
%TF.CreationDate,2026-03-21T23:32:06-04:00*%
%TF.ProjectId,K-Logic-Devboard,4b2d4c6f-6769-4632-9d44-6576626f6172,rev?*%
%TF.SameCoordinates,Original*%
%TF.FileFunction,Soldermask,Top*%
%TF.FilePolarity,Negative*%
%FSLAX46Y46*%
G04 Gerber Fmt 4.6, Leading zero omitted, Abs format (unit mm)*
G04 Created by KiCad (PCBNEW 9.0.7) date 2026-03-21 23:32:06*
%MOMM*%
%LPD*%
G01*
G04 APERTURE LIST*
G04 Aperture macros list*
%AMRoundRect*
0 Rectangle with rounded corners*
0 $1 Rounding radius*
0 $2 $3 $4 $5 $6 $7 $8 $9 X,Y pos of 4 corners*
0 Add a 4 corners polygon primitive as box body*
4,1,4,$2,$3,$4,$5,$6,$7,$8,$9,$2,$3,0*
0 Add four circle primitives for the rounded corners*
1,1,$1+$1,$2,$3*
1,1,$1+$1,$4,$5*
1,1,$1+$1,$6,$7*
1,1,$1+$1,$8,$9*
0 Add four rect primitives between the rounded corners*
20,1,$1+$1,$2,$3,$4,$5,0*
20,1,$1+$1,$4,$5,$6,$7,0*
20,1,$1+$1,$6,$7,$8,$9,0*
20,1,$1+$1,$8,$9,$2,$3,0*%
G04 Aperture macros list end*
%ADD10RoundRect,0.225000X0.225000X0.250000X-0.225000X0.250000X-0.225000X-0.250000X0.225000X-0.250000X0*%
%ADD11RoundRect,0.140000X0.170000X-0.140000X0.170000X0.140000X-0.170000X0.140000X-0.170000X-0.140000X0*%
%ADD12RoundRect,0.140000X-0.170000X0.140000X-0.170000X-0.140000X0.170000X-0.140000X0.170000X0.140000X0*%
%ADD13RoundRect,0.140000X-0.140000X-0.170000X0.140000X-0.170000X0.140000X0.170000X-0.140000X0.170000X0*%
%ADD14RoundRect,0.135000X0.135000X0.185000X-0.135000X0.185000X-0.135000X-0.185000X0.135000X-0.185000X0*%
%ADD15R,1.700000X1.700000*%
%ADD16C,1.700000*%
%ADD17C,0.650000*%
%ADD18R,0.600000X1.450000*%
%ADD19R,0.300000X1.450000*%
%ADD20O,1.000000X2.100000*%
%ADD21O,1.000000X1.600000*%
%ADD22RoundRect,0.135000X0.185000X-0.135000X0.185000X0.135000X-0.185000X0.135000X-0.185000X-0.135000X0*%
%ADD23RoundRect,0.140000X0.140000X0.170000X-0.140000X0.170000X-0.140000X-0.170000X0.140000X-0.170000X0*%
%ADD24RoundRect,0.050000X-0.387500X-0.050000X0.387500X-0.050000X0.387500X0.050000X-0.387500X0.050000X0*%
%ADD25RoundRect,0.050000X-0.050000X-0.387500X0.050000X-0.387500X0.050000X0.387500X-0.050000X0.387500X0*%
%ADD26R,3.200000X3.200000*%
%ADD27RoundRect,0.200000X-0.800000X0.200000X-0.800000X-0.200000X0.800000X-0.200000X0.800000X0.200000X0*%
%ADD28RoundRect,0.150000X0.150000X-0.512500X0.150000X0.512500X-0.150000X0.512500X-0.150000X-0.512500X0*%
%ADD29RoundRect,0.135000X-0.185000X0.135000X-0.185000X-0.135000X0.185000X-0.135000X0.185000X0.135000X0*%
%ADD30RoundRect,0.062500X-0.387500X-0.062500X0.387500X-0.062500X0.387500X0.062500X-0.387500X0.062500X0*%
%ADD31R,0.200000X1.600000*%
%ADD32RoundRect,0.250000X0.450000X0.350000X-0.450000X0.350000X-0.450000X-0.350000X0.450000X-0.350000X0*%
G04 APERTURE END LIST*
D10*
%TO.C,C14*%
X89250000Y-58612500D03*
X87700000Y-58612500D03*
%TD*%
D11*
%TO.C,C16*%
X88181877Y-82132312D03*
X88181877Y-81172312D03*
%TD*%
D12*
%TO.C,C11*%
X94500000Y-78990000D03*
X94500000Y-79950000D03*
%TD*%
D10*
%TO.C,C13*%
X88750000Y-52750000D03*
X87200000Y-52750000D03*
%TD*%
D13*
%TO.C,C5*%
X97040000Y-74500000D03*
X98000000Y-74500000D03*
%TD*%
D11*
%TO.C,C10*%
X94750000Y-68710000D03*
X94750000Y-67750000D03*
%TD*%
D14*
%TO.C,R7*%
X88250000Y-64000000D03*
X87230000Y-64000000D03*
%TD*%
D15*
%TO.C,J4*%
X88960000Y-93390000D03*
D16*
X91500000Y-93390000D03*
X94040000Y-93390000D03*
%TD*%
D17*
%TO.C,J1*%
X94570000Y-49000000D03*
X88790000Y-49000000D03*
D18*
X94930000Y-50445000D03*
X94130000Y-50445000D03*
D19*
X92930000Y-50445000D03*
X91930000Y-50445000D03*
X91430000Y-50445000D03*
X90430000Y-50445000D03*
D18*
X89230000Y-50445000D03*
X88430000Y-50445000D03*
X88430000Y-50445000D03*
X89230000Y-50445000D03*
D19*
X89930000Y-50445000D03*
X90930000Y-50445000D03*
X92430000Y-50445000D03*
X93430000Y-50445000D03*
D18*
X94130000Y-50445000D03*
X94930000Y-50445000D03*
D20*
X96000000Y-49530000D03*
D21*
X96000000Y-45350000D03*
D20*
X87360000Y-49530000D03*
D21*
X87360000Y-45350000D03*
%TD*%
D22*
%TO.C,R4*%
X92250000Y-67876473D03*
X92250000Y-66856473D03*
%TD*%
D23*
%TO.C,C6*%
X86340470Y-74925346D03*
X85380470Y-74925346D03*
%TD*%
D15*
%TO.C,J3*%
X100390000Y-45370000D03*
D16*
X100390000Y-47910000D03*
X100390000Y-50450000D03*
X100390000Y-52990000D03*
X100390000Y-55530000D03*
X100390000Y-58070000D03*
X100390000Y-60610000D03*
X100390000Y-63150000D03*
X100390000Y-65690000D03*
X100390000Y-68230000D03*
X100390000Y-70770000D03*
X100390000Y-73310000D03*
X100390000Y-75850000D03*
X100390000Y-78390000D03*
X100390000Y-80930000D03*
X100390000Y-83470000D03*
X100390000Y-86010000D03*
X100390000Y-88550000D03*
X100390000Y-91090000D03*
X100390000Y-93630000D03*
%TD*%
D22*
%TO.C,R3*%
X93470945Y-67880415D03*
X93470945Y-66860415D03*
%TD*%
D24*
%TO.C,U1*%
X88062500Y-70900000D03*
X88062500Y-71300000D03*
X88062500Y-71700000D03*
X88062500Y-72100000D03*
X88062500Y-72500000D03*
X88062500Y-72900000D03*
X88062500Y-73300000D03*
X88062500Y-73700000D03*
X88062500Y-74100000D03*
X88062500Y-74500000D03*
X88062500Y-74900000D03*
X88062500Y-75300000D03*
X88062500Y-75700000D03*
X88062500Y-76100000D03*
D25*
X88900000Y-76937500D03*
X89300000Y-76937500D03*
X89700000Y-76937500D03*
X90100000Y-76937500D03*
X90500000Y-76937500D03*
X90900000Y-76937500D03*
X91300000Y-76937500D03*
X91700000Y-76937500D03*
X92100000Y-76937500D03*
X92500000Y-76937500D03*
X92900000Y-76937500D03*
X93300000Y-76937500D03*
X93700000Y-76937500D03*
X94100000Y-76937500D03*
D24*
X94937500Y-76100000D03*
X94937500Y-75700000D03*
X94937500Y-75300000D03*
X94937500Y-74900000D03*
X94937500Y-74500000D03*
X94937500Y-74100000D03*
X94937500Y-73700000D03*
X94937500Y-73300000D03*
X94937500Y-72900000D03*
X94937500Y-72500000D03*
X94937500Y-72100000D03*
X94937500Y-71700000D03*
X94937500Y-71300000D03*
X94937500Y-70900000D03*
D25*
X94100000Y-70062500D03*
X93700000Y-70062500D03*
X93300000Y-70062500D03*
X92900000Y-70062500D03*
X92500000Y-70062500D03*
X92100000Y-70062500D03*
X91700000Y-70062500D03*
X91300000Y-70062500D03*
X90900000Y-70062500D03*
X90500000Y-70062500D03*
X90100000Y-70062500D03*
X89700000Y-70062500D03*
X89300000Y-70062500D03*
X88900000Y-70062500D03*
D26*
X91500000Y-73500000D03*
%TD*%
D13*
%TO.C,C2*%
X96119424Y-70755678D03*
X97079424Y-70755678D03*
%TD*%
D11*
%TO.C,C12*%
X91000000Y-63980000D03*
X91000000Y-63020000D03*
%TD*%
D27*
%TO.C,SW1*%
X95250000Y-57900000D03*
X95250000Y-62100000D03*
%TD*%
D12*
%TO.C,C15*%
X93348422Y-81160543D03*
X93348422Y-82120543D03*
%TD*%
D13*
%TO.C,C1*%
X95790000Y-69750000D03*
X96750000Y-69750000D03*
%TD*%
D28*
%TO.C,U2*%
X87412500Y-56750000D03*
X89312500Y-56750000D03*
X88362500Y-54475000D03*
%TD*%
D29*
%TO.C,R2*%
X90000000Y-52490000D03*
X90000000Y-53510000D03*
%TD*%
D14*
%TO.C,R5*%
X92459670Y-79556346D03*
X91439670Y-79556346D03*
%TD*%
D15*
%TO.C,J2*%
X82610000Y-45370000D03*
D16*
X82610000Y-47910000D03*
X82610000Y-50450000D03*
X82610000Y-52990000D03*
X82610000Y-55530000D03*
X82610000Y-58070000D03*
X82610000Y-60610000D03*
X82610000Y-63150000D03*
X82610000Y-65690000D03*
X82610000Y-68230000D03*
X82610000Y-70770000D03*
X82610000Y-73310000D03*
X82610000Y-75850000D03*
X82610000Y-78390000D03*
X82610000Y-80930000D03*
X82610000Y-83470000D03*
X82610000Y-86010000D03*
X82610000Y-88550000D03*
X82610000Y-91090000D03*
X82610000Y-93630000D03*
%TD*%
D30*
%TO.C,U3*%
X86900000Y-65000000D03*
X86900000Y-65500000D03*
X86900000Y-66000000D03*
X86900000Y-66500000D03*
X89750000Y-66500000D03*
X89750000Y-66000000D03*
X89750000Y-65500000D03*
X89750000Y-65000000D03*
D31*
X88325000Y-65750000D03*
%TD*%
D23*
%TO.C,C9*%
X87230000Y-69250000D03*
X86270000Y-69250000D03*
%TD*%
D32*
%TO.C,Y1*%
X91850000Y-81000000D03*
X89650000Y-81000000D03*
X89650000Y-82700000D03*
X91850000Y-82700000D03*
%TD*%
D11*
%TO.C,C7*%
X95750000Y-68710000D03*
X95750000Y-67750000D03*
%TD*%
D13*
%TO.C,C17*%
X89095000Y-64000000D03*
X90055000Y-64000000D03*
%TD*%
D29*
%TO.C,R1*%
X93250000Y-52230000D03*
X93250000Y-53250000D03*
%TD*%
D11*
%TO.C,C4*%
X92000000Y-65000000D03*
X92000000Y-64040000D03*
%TD*%
D12*
%TO.C,C8*%
X93500000Y-78970000D03*
X93500000Y-79930000D03*
%TD*%
D14*
%TO.C,R6*%
X96500000Y-63250000D03*
X95480000Y-63250000D03*
%TD*%
D11*
%TO.C,C3*%
X93000000Y-65250000D03*
X93000000Y-64290000D03*
%TD*%
M02*
