%TF.GenerationSoftware,KiCad,Pcbnew,9.0.7*%
%TF.CreationDate,2026-03-21T23:32:06-04:00*%
%TF.ProjectId,K-Logic-Devboard,4b2d4c6f-6769-4632-9d44-6576626f6172,rev?*%
%TF.SameCoordinates,Original*%
%TF.FileFunction,Legend,Top*%
%TF.FilePolarity,Positive*%
%FSLAX46Y46*%
G04 Gerber Fmt 4.6, Leading zero omitted, Abs format (unit mm)*
G04 Created by KiCad (PCBNEW 9.0.7) date 2026-03-21 23:32:06*
%MOMM*%
%LPD*%
G01*
G04 APERTURE LIST*
%ADD10C,0.150000*%
%ADD11C,0.120000*%
%ADD12C,0.000000*%
G04 APERTURE END LIST*
D10*
X91166666Y-90204819D02*
X91166666Y-90919104D01*
X91166666Y-90919104D02*
X91119047Y-91061961D01*
X91119047Y-91061961D02*
X91023809Y-91157200D01*
X91023809Y-91157200D02*
X90880952Y-91204819D01*
X90880952Y-91204819D02*
X90785714Y-91204819D01*
X92071428Y-90538152D02*
X92071428Y-91204819D01*
X91833333Y-90157200D02*
X91595238Y-90871485D01*
X91595238Y-90871485D02*
X92214285Y-90871485D01*
X91346666Y-51954819D02*
X91346666Y-52669104D01*
X91346666Y-52669104D02*
X91299047Y-52811961D01*
X91299047Y-52811961D02*
X91203809Y-52907200D01*
X91203809Y-52907200D02*
X91060952Y-52954819D01*
X91060952Y-52954819D02*
X90965714Y-52954819D01*
X92346666Y-52954819D02*
X91775238Y-52954819D01*
X92060952Y-52954819D02*
X92060952Y-51954819D01*
X92060952Y-51954819D02*
X91965714Y-52097676D01*
X91965714Y-52097676D02*
X91870476Y-52192914D01*
X91870476Y-52192914D02*
X91775238Y-52240533D01*
X97666666Y-44454819D02*
X97666666Y-45169104D01*
X97666666Y-45169104D02*
X97619047Y-45311961D01*
X97619047Y-45311961D02*
X97523809Y-45407200D01*
X97523809Y-45407200D02*
X97380952Y-45454819D01*
X97380952Y-45454819D02*
X97285714Y-45454819D01*
X98047619Y-44454819D02*
X98666666Y-44454819D01*
X98666666Y-44454819D02*
X98333333Y-44835771D01*
X98333333Y-44835771D02*
X98476190Y-44835771D01*
X98476190Y-44835771D02*
X98571428Y-44883390D01*
X98571428Y-44883390D02*
X98619047Y-44931009D01*
X98619047Y-44931009D02*
X98666666Y-45026247D01*
X98666666Y-45026247D02*
X98666666Y-45264342D01*
X98666666Y-45264342D02*
X98619047Y-45359580D01*
X98619047Y-45359580D02*
X98571428Y-45407200D01*
X98571428Y-45407200D02*
X98476190Y-45454819D01*
X98476190Y-45454819D02*
X98190476Y-45454819D01*
X98190476Y-45454819D02*
X98095238Y-45407200D01*
X98095238Y-45407200D02*
X98047619Y-45359580D01*
X88488095Y-68124819D02*
X88488095Y-68934342D01*
X88488095Y-68934342D02*
X88535714Y-69029580D01*
X88535714Y-69029580D02*
X88583333Y-69077200D01*
X88583333Y-69077200D02*
X88678571Y-69124819D01*
X88678571Y-69124819D02*
X88869047Y-69124819D01*
X88869047Y-69124819D02*
X88964285Y-69077200D01*
X88964285Y-69077200D02*
X89011904Y-69029580D01*
X89011904Y-69029580D02*
X89059523Y-68934342D01*
X89059523Y-68934342D02*
X89059523Y-68124819D01*
X90059523Y-69124819D02*
X89488095Y-69124819D01*
X89773809Y-69124819D02*
X89773809Y-68124819D01*
X89773809Y-68124819D02*
X89678571Y-68267676D01*
X89678571Y-68267676D02*
X89583333Y-68362914D01*
X89583333Y-68362914D02*
X89488095Y-68410533D01*
X93666667Y-56657200D02*
X93809524Y-56704819D01*
X93809524Y-56704819D02*
X94047619Y-56704819D01*
X94047619Y-56704819D02*
X94142857Y-56657200D01*
X94142857Y-56657200D02*
X94190476Y-56609580D01*
X94190476Y-56609580D02*
X94238095Y-56514342D01*
X94238095Y-56514342D02*
X94238095Y-56419104D01*
X94238095Y-56419104D02*
X94190476Y-56323866D01*
X94190476Y-56323866D02*
X94142857Y-56276247D01*
X94142857Y-56276247D02*
X94047619Y-56228628D01*
X94047619Y-56228628D02*
X93857143Y-56181009D01*
X93857143Y-56181009D02*
X93761905Y-56133390D01*
X93761905Y-56133390D02*
X93714286Y-56085771D01*
X93714286Y-56085771D02*
X93666667Y-55990533D01*
X93666667Y-55990533D02*
X93666667Y-55895295D01*
X93666667Y-55895295D02*
X93714286Y-55800057D01*
X93714286Y-55800057D02*
X93761905Y-55752438D01*
X93761905Y-55752438D02*
X93857143Y-55704819D01*
X93857143Y-55704819D02*
X94095238Y-55704819D01*
X94095238Y-55704819D02*
X94238095Y-55752438D01*
X94571429Y-55704819D02*
X94809524Y-56704819D01*
X94809524Y-56704819D02*
X95000000Y-55990533D01*
X95000000Y-55990533D02*
X95190476Y-56704819D01*
X95190476Y-56704819D02*
X95428572Y-55704819D01*
X96333333Y-56704819D02*
X95761905Y-56704819D01*
X96047619Y-56704819D02*
X96047619Y-55704819D01*
X96047619Y-55704819D02*
X95952381Y-55847676D01*
X95952381Y-55847676D02*
X95857143Y-55942914D01*
X95857143Y-55942914D02*
X95761905Y-55990533D01*
X85417319Y-56374404D02*
X86226842Y-56374404D01*
X86226842Y-56374404D02*
X86322080Y-56326785D01*
X86322080Y-56326785D02*
X86369700Y-56279166D01*
X86369700Y-56279166D02*
X86417319Y-56183928D01*
X86417319Y-56183928D02*
X86417319Y-55993452D01*
X86417319Y-55993452D02*
X86369700Y-55898214D01*
X86369700Y-55898214D02*
X86322080Y-55850595D01*
X86322080Y-55850595D02*
X86226842Y-55802976D01*
X86226842Y-55802976D02*
X85417319Y-55802976D01*
X85512557Y-55374404D02*
X85464938Y-55326785D01*
X85464938Y-55326785D02*
X85417319Y-55231547D01*
X85417319Y-55231547D02*
X85417319Y-54993452D01*
X85417319Y-54993452D02*
X85464938Y-54898214D01*
X85464938Y-54898214D02*
X85512557Y-54850595D01*
X85512557Y-54850595D02*
X85607795Y-54802976D01*
X85607795Y-54802976D02*
X85703033Y-54802976D01*
X85703033Y-54802976D02*
X85845890Y-54850595D01*
X85845890Y-54850595D02*
X86417319Y-55422023D01*
X86417319Y-55422023D02*
X86417319Y-54802976D01*
X84916666Y-44454819D02*
X84916666Y-45169104D01*
X84916666Y-45169104D02*
X84869047Y-45311961D01*
X84869047Y-45311961D02*
X84773809Y-45407200D01*
X84773809Y-45407200D02*
X84630952Y-45454819D01*
X84630952Y-45454819D02*
X84535714Y-45454819D01*
X85345238Y-44550057D02*
X85392857Y-44502438D01*
X85392857Y-44502438D02*
X85488095Y-44454819D01*
X85488095Y-44454819D02*
X85726190Y-44454819D01*
X85726190Y-44454819D02*
X85821428Y-44502438D01*
X85821428Y-44502438D02*
X85869047Y-44550057D01*
X85869047Y-44550057D02*
X85916666Y-44645295D01*
X85916666Y-44645295D02*
X85916666Y-44740533D01*
X85916666Y-44740533D02*
X85869047Y-44883390D01*
X85869047Y-44883390D02*
X85297619Y-45454819D01*
X85297619Y-45454819D02*
X85916666Y-45454819D01*
X86238095Y-62204819D02*
X86238095Y-63014342D01*
X86238095Y-63014342D02*
X86285714Y-63109580D01*
X86285714Y-63109580D02*
X86333333Y-63157200D01*
X86333333Y-63157200D02*
X86428571Y-63204819D01*
X86428571Y-63204819D02*
X86619047Y-63204819D01*
X86619047Y-63204819D02*
X86714285Y-63157200D01*
X86714285Y-63157200D02*
X86761904Y-63109580D01*
X86761904Y-63109580D02*
X86809523Y-63014342D01*
X86809523Y-63014342D02*
X86809523Y-62204819D01*
X87190476Y-62204819D02*
X87809523Y-62204819D01*
X87809523Y-62204819D02*
X87476190Y-62585771D01*
X87476190Y-62585771D02*
X87619047Y-62585771D01*
X87619047Y-62585771D02*
X87714285Y-62633390D01*
X87714285Y-62633390D02*
X87761904Y-62681009D01*
X87761904Y-62681009D02*
X87809523Y-62776247D01*
X87809523Y-62776247D02*
X87809523Y-63014342D01*
X87809523Y-63014342D02*
X87761904Y-63109580D01*
X87761904Y-63109580D02*
X87714285Y-63157200D01*
X87714285Y-63157200D02*
X87619047Y-63204819D01*
X87619047Y-63204819D02*
X87333333Y-63204819D01*
X87333333Y-63204819D02*
X87238095Y-63157200D01*
X87238095Y-63157200D02*
X87190476Y-63109580D01*
X89523809Y-83978628D02*
X89523809Y-84454819D01*
X89190476Y-83454819D02*
X89523809Y-83978628D01*
X89523809Y-83978628D02*
X89857142Y-83454819D01*
X90714285Y-84454819D02*
X90142857Y-84454819D01*
X90428571Y-84454819D02*
X90428571Y-83454819D01*
X90428571Y-83454819D02*
X90333333Y-83597676D01*
X90333333Y-83597676D02*
X90238095Y-83692914D01*
X90238095Y-83692914D02*
X90142857Y-83740533D01*
D11*
%TO.C,C14*%
X88615580Y-58102500D02*
X88334420Y-58102500D01*
X88615580Y-59122500D02*
X88334420Y-59122500D01*
%TO.C,C16*%
X87821877Y-81760148D02*
X87821877Y-81544476D01*
X88541877Y-81760148D02*
X88541877Y-81544476D01*
%TO.C,C11*%
X94140000Y-79362164D02*
X94140000Y-79577836D01*
X94860000Y-79362164D02*
X94860000Y-79577836D01*
%TO.C,C13*%
X88115580Y-52240000D02*
X87834420Y-52240000D01*
X88115580Y-53260000D02*
X87834420Y-53260000D01*
%TO.C,C5*%
X97412164Y-74140000D02*
X97627836Y-74140000D01*
X97412164Y-74860000D02*
X97627836Y-74860000D01*
%TO.C,C10*%
X94390000Y-68337836D02*
X94390000Y-68122164D01*
X95110000Y-68337836D02*
X95110000Y-68122164D01*
%TO.C,R7*%
X87893641Y-63620000D02*
X87586359Y-63620000D01*
X87893641Y-64380000D02*
X87586359Y-64380000D01*
%TO.C,J4*%
X87580000Y-94770000D02*
X87580000Y-93390000D01*
X88960000Y-94770000D02*
X87580000Y-94770000D01*
X90230000Y-92010000D02*
X95420000Y-92010000D01*
X90230000Y-94770000D02*
X90230000Y-92010000D01*
X90230000Y-94770000D02*
X95420000Y-94770000D01*
X95420000Y-94770000D02*
X95420000Y-92010000D01*
%TO.C,J1*%
X86980000Y-44400000D02*
X86980000Y-42500000D01*
X86980000Y-48300000D02*
X86980000Y-46300000D01*
X96380000Y-42500000D02*
X86980000Y-42500000D01*
X96380000Y-44400000D02*
X96380000Y-42500000D01*
X96380000Y-48300000D02*
X96380000Y-46300000D01*
%TO.C,R4*%
X91870000Y-67520114D02*
X91870000Y-67212832D01*
X92630000Y-67520114D02*
X92630000Y-67212832D01*
%TO.C,C6*%
X85968306Y-74565346D02*
X85752634Y-74565346D01*
X85968306Y-75285346D02*
X85752634Y-75285346D01*
%TO.C,J3*%
X99010000Y-43990000D02*
X100390000Y-43990000D01*
X99010000Y-45370000D02*
X99010000Y-43990000D01*
X99010000Y-46640000D02*
X99010000Y-95010000D01*
X99010000Y-46640000D02*
X101770000Y-46640000D01*
X99010000Y-95010000D02*
X101770000Y-95010000D01*
X101770000Y-46640000D02*
X101770000Y-95010000D01*
%TO.C,R3*%
X93090945Y-67524056D02*
X93090945Y-67216774D01*
X93850945Y-67524056D02*
X93850945Y-67216774D01*
%TO.C,U1*%
X87890000Y-69890000D02*
X88540000Y-69890000D01*
X87890000Y-70540000D02*
X87890000Y-69890000D01*
X87890000Y-77110000D02*
X87890000Y-76460000D01*
X88540000Y-77110000D02*
X87890000Y-77110000D01*
X94460000Y-69890000D02*
X95110000Y-69890000D01*
X95110000Y-69890000D02*
X95110000Y-70540000D01*
X95110000Y-76460000D02*
X95110000Y-77110000D01*
X95110000Y-77110000D02*
X94460000Y-77110000D01*
X87360000Y-70900000D02*
X87030000Y-71140000D01*
X87030000Y-70660000D01*
X87360000Y-70900000D01*
G36*
X87360000Y-70900000D02*
G01*
X87030000Y-71140000D01*
X87030000Y-70660000D01*
X87360000Y-70900000D01*
G37*
%TO.C,C2*%
X96491588Y-70395678D02*
X96707260Y-70395678D01*
X96491588Y-71115678D02*
X96707260Y-71115678D01*
%TO.C,C12*%
X90640000Y-63607836D02*
X90640000Y-63392164D01*
X91360000Y-63607836D02*
X91360000Y-63392164D01*
%TO.C,SW1*%
X93680000Y-57930000D02*
X93980000Y-57930000D01*
X93680000Y-62070000D02*
X93680000Y-57930000D01*
X93980000Y-62070000D02*
X93680000Y-62070000D01*
X96520000Y-57930000D02*
X96820000Y-57930000D01*
X96820000Y-57930000D02*
X96820000Y-62070000D01*
X96820000Y-62070000D02*
X96520000Y-62070000D01*
%TO.C,C15*%
X92988422Y-81532707D02*
X92988422Y-81748379D01*
X93708422Y-81532707D02*
X93708422Y-81748379D01*
%TO.C,C1*%
X96162164Y-69390000D02*
X96377836Y-69390000D01*
X96162164Y-70110000D02*
X96377836Y-70110000D01*
%TO.C,U2*%
X86802500Y-54702500D02*
X87802500Y-54702500D01*
X86802500Y-56522500D02*
X86802500Y-54702500D01*
X86852500Y-56522500D02*
X86802500Y-56522500D01*
X88752500Y-56522500D02*
X87972500Y-56522500D01*
X88922500Y-54702500D02*
X89922500Y-54702500D01*
X89922500Y-54702500D02*
X89922500Y-56522500D01*
X89922500Y-56522500D02*
X89872500Y-56522500D01*
X88312500Y-57302500D02*
X87982500Y-57062500D01*
X88312500Y-56822500D01*
X88312500Y-57302500D01*
G36*
X88312500Y-57302500D02*
G01*
X87982500Y-57062500D01*
X88312500Y-56822500D01*
X88312500Y-57302500D01*
G37*
%TO.C,R2*%
X89620000Y-52846359D02*
X89620000Y-53153641D01*
X90380000Y-52846359D02*
X90380000Y-53153641D01*
%TO.C,R5*%
X92103311Y-79176346D02*
X91796029Y-79176346D01*
X92103311Y-79936346D02*
X91796029Y-79936346D01*
%TO.C,J2*%
X81230000Y-43990000D02*
X82610000Y-43990000D01*
X81230000Y-45370000D02*
X81230000Y-43990000D01*
X81230000Y-46640000D02*
X81230000Y-95010000D01*
X81230000Y-46640000D02*
X83990000Y-46640000D01*
X81230000Y-95010000D02*
X83990000Y-95010000D01*
X83990000Y-46640000D02*
X83990000Y-95010000D01*
D12*
%TO.C,G\u002A\u002A\u002A*%
G36*
X90192573Y-89525695D02*
G01*
X90212329Y-89526467D01*
X90229618Y-89527548D01*
X90242510Y-89528877D01*
X90249073Y-89530396D01*
X90249372Y-89530614D01*
X90251000Y-89536592D01*
X90252107Y-89550157D01*
X90252652Y-89570390D01*
X90252595Y-89596367D01*
X90252497Y-89602780D01*
X90251320Y-89670643D01*
X90187145Y-89671815D01*
X90164563Y-89672038D01*
X90145059Y-89671872D01*
X90130194Y-89671358D01*
X90121529Y-89670537D01*
X90120023Y-89670040D01*
X90119029Y-89664983D01*
X90118179Y-89652902D01*
X90117532Y-89635295D01*
X90117151Y-89613660D01*
X90117075Y-89597980D01*
X90117075Y-89528868D01*
X90127503Y-89526875D01*
X90137816Y-89525822D01*
X90153386Y-89525313D01*
X90172281Y-89525291D01*
X90192573Y-89525695D01*
G37*
G36*
X87863893Y-88914133D02*
G01*
X87882554Y-88915085D01*
X87897633Y-88916667D01*
X87907134Y-88918867D01*
X87909093Y-88920096D01*
X87911343Y-88927248D01*
X87912658Y-88942288D01*
X87913049Y-88965439D01*
X87912811Y-88985088D01*
X87911622Y-89044167D01*
X87849581Y-89045341D01*
X87827389Y-89045565D01*
X87808291Y-89045387D01*
X87793879Y-89044850D01*
X87785743Y-89043997D01*
X87784589Y-89043566D01*
X87783025Y-89037791D01*
X87782006Y-89025459D01*
X87781499Y-89008517D01*
X87781468Y-88988913D01*
X87781880Y-88968593D01*
X87782702Y-88949505D01*
X87783900Y-88933595D01*
X87785438Y-88922810D01*
X87786753Y-88919298D01*
X87793371Y-88916899D01*
X87806390Y-88915196D01*
X87823815Y-88914176D01*
X87843648Y-88913826D01*
X87863893Y-88914133D01*
G37*
G36*
X95565329Y-88914542D02*
G01*
X95585168Y-88915632D01*
X95597149Y-88917482D01*
X95601089Y-88919298D01*
X95603500Y-88925815D01*
X95605134Y-88939962D01*
X95606018Y-88962057D01*
X95606203Y-88983074D01*
X95606109Y-89006663D01*
X95605705Y-89023150D01*
X95604805Y-89033957D01*
X95603223Y-89040504D01*
X95600773Y-89044213D01*
X95597959Y-89046148D01*
X95589888Y-89049348D01*
X95586240Y-89049689D01*
X95580889Y-89049194D01*
X95568736Y-89048458D01*
X95551498Y-89047577D01*
X95530890Y-89046643D01*
X95527360Y-89046493D01*
X95471958Y-89044167D01*
X95470768Y-88987650D01*
X95470613Y-88962717D01*
X95471234Y-88942597D01*
X95472564Y-88928603D01*
X95474114Y-88922659D01*
X95476539Y-88919263D01*
X95480499Y-88916916D01*
X95487422Y-88915426D01*
X95498736Y-88914601D01*
X95515867Y-88914251D01*
X95537312Y-88914184D01*
X95565329Y-88914542D01*
G37*
G36*
X95598353Y-89243403D02*
G01*
X95598754Y-89321287D01*
X95599036Y-89390801D01*
X95599198Y-89452101D01*
X95599239Y-89505339D01*
X95599160Y-89550670D01*
X95598960Y-89588248D01*
X95598637Y-89618225D01*
X95598191Y-89640758D01*
X95597622Y-89655998D01*
X95596930Y-89664100D01*
X95596643Y-89665316D01*
X95594574Y-89668342D01*
X95590268Y-89670429D01*
X95582347Y-89671745D01*
X95569438Y-89672460D01*
X95550162Y-89672742D01*
X95535884Y-89672774D01*
X95512046Y-89672629D01*
X95495424Y-89672098D01*
X95484715Y-89671039D01*
X95478614Y-89669310D01*
X95475818Y-89666767D01*
X95475552Y-89666178D01*
X95474835Y-89659805D01*
X95474519Y-89646549D01*
X95474603Y-89628045D01*
X95475089Y-89605924D01*
X95475532Y-89592663D01*
X95476060Y-89574243D01*
X95476557Y-89548539D01*
X95477011Y-89516794D01*
X95477409Y-89480248D01*
X95477740Y-89440141D01*
X95477990Y-89397714D01*
X95478148Y-89354209D01*
X95478197Y-89324377D01*
X95478350Y-89123009D01*
X95538015Y-89123009D01*
X95597679Y-89123009D01*
X95598353Y-89243403D01*
G37*
G36*
X87841364Y-89123798D02*
G01*
X87849289Y-89123958D01*
X87907360Y-89125140D01*
X87908071Y-89395729D01*
X87908183Y-89454229D01*
X87908185Y-89504644D01*
X87908070Y-89547413D01*
X87907832Y-89582973D01*
X87907463Y-89611764D01*
X87906958Y-89634222D01*
X87906308Y-89650786D01*
X87905507Y-89661894D01*
X87904549Y-89667984D01*
X87903809Y-89669481D01*
X87897781Y-89670730D01*
X87885426Y-89671674D01*
X87868738Y-89672306D01*
X87849713Y-89672618D01*
X87830346Y-89672602D01*
X87812632Y-89672250D01*
X87798567Y-89671554D01*
X87790145Y-89670507D01*
X87788742Y-89669933D01*
X87788211Y-89665260D01*
X87787737Y-89652948D01*
X87787320Y-89633883D01*
X87786960Y-89608951D01*
X87786658Y-89579035D01*
X87786413Y-89545022D01*
X87786226Y-89507796D01*
X87786098Y-89468242D01*
X87786027Y-89427246D01*
X87786015Y-89385692D01*
X87786062Y-89344467D01*
X87786168Y-89304454D01*
X87786332Y-89266539D01*
X87786556Y-89231607D01*
X87786840Y-89200543D01*
X87787183Y-89174232D01*
X87787587Y-89153560D01*
X87788050Y-89139411D01*
X87788573Y-89132671D01*
X87788617Y-89132481D01*
X87789939Y-89128607D01*
X87792390Y-89125965D01*
X87797365Y-89124358D01*
X87806257Y-89123592D01*
X87820459Y-89123471D01*
X87841364Y-89123798D01*
G37*
G36*
X92645632Y-88909974D02*
G01*
X92662277Y-88910259D01*
X92672999Y-88910967D01*
X92679097Y-88912290D01*
X92681871Y-88914417D01*
X92682621Y-88917541D01*
X92682646Y-88918866D01*
X92681252Y-88925306D01*
X92677204Y-88939186D01*
X92670699Y-88959913D01*
X92661934Y-88986895D01*
X92651108Y-89019540D01*
X92638419Y-89057257D01*
X92624064Y-89099452D01*
X92608242Y-89145533D01*
X92591149Y-89194908D01*
X92573865Y-89244469D01*
X92566040Y-89267002D01*
X92556046Y-89296047D01*
X92544421Y-89330031D01*
X92531698Y-89367383D01*
X92518415Y-89406530D01*
X92505106Y-89445901D01*
X92495440Y-89474603D01*
X92482726Y-89512350D01*
X92469873Y-89550389D01*
X92457368Y-89587282D01*
X92445701Y-89621590D01*
X92435361Y-89651873D01*
X92426838Y-89676692D01*
X92421549Y-89691952D01*
X92399240Y-89755878D01*
X92338510Y-89757061D01*
X92313504Y-89757376D01*
X92295974Y-89757142D01*
X92284882Y-89756285D01*
X92279194Y-89754733D01*
X92277834Y-89752799D01*
X92277859Y-89751665D01*
X92277992Y-89750308D01*
X92278357Y-89748356D01*
X92279078Y-89745443D01*
X92280278Y-89741199D01*
X92282081Y-89735255D01*
X92284610Y-89727242D01*
X92287989Y-89716792D01*
X92292341Y-89703536D01*
X92297790Y-89687104D01*
X92304460Y-89667128D01*
X92312473Y-89643240D01*
X92321955Y-89615069D01*
X92333027Y-89582249D01*
X92345814Y-89544408D01*
X92360439Y-89501180D01*
X92377026Y-89452195D01*
X92395698Y-89397083D01*
X92416579Y-89335477D01*
X92439792Y-89267007D01*
X92465461Y-89191305D01*
X92493710Y-89108002D01*
X92501989Y-89083588D01*
X92560881Y-88909922D01*
X92621763Y-88909922D01*
X92645632Y-88909974D01*
G37*
G36*
X95816094Y-88983320D02*
G01*
X95876823Y-88984502D01*
X95876823Y-89052690D01*
X95876823Y-89120878D01*
X95943946Y-89122052D01*
X96011068Y-89123226D01*
X96011068Y-89176389D01*
X96011068Y-89229553D01*
X95942811Y-89229553D01*
X95874553Y-89229553D01*
X95875688Y-89379974D01*
X95876025Y-89420208D01*
X95876399Y-89452803D01*
X95876857Y-89478642D01*
X95877446Y-89498611D01*
X95878212Y-89513592D01*
X95879204Y-89524471D01*
X95880468Y-89532132D01*
X95882052Y-89537457D01*
X95884003Y-89541333D01*
X95884322Y-89541831D01*
X95892788Y-89552213D01*
X95903273Y-89559318D01*
X95917364Y-89563622D01*
X95936648Y-89565604D01*
X95962711Y-89565742D01*
X95963642Y-89565723D01*
X95982824Y-89565555D01*
X95998954Y-89565890D01*
X96010057Y-89566658D01*
X96013933Y-89567498D01*
X96015960Y-89573038D01*
X96017323Y-89586153D01*
X96017952Y-89605916D01*
X96017949Y-89620463D01*
X96017461Y-89670643D01*
X95953535Y-89671424D01*
X95917507Y-89671229D01*
X95888023Y-89669727D01*
X95865946Y-89666964D01*
X95862613Y-89666291D01*
X95831374Y-89656659D01*
X95806416Y-89642277D01*
X95786339Y-89622017D01*
X95769743Y-89594753D01*
X95767211Y-89589436D01*
X95764773Y-89583928D01*
X95762772Y-89578420D01*
X95761158Y-89572031D01*
X95759881Y-89563879D01*
X95758887Y-89553084D01*
X95758128Y-89538765D01*
X95757550Y-89520040D01*
X95757104Y-89496029D01*
X95756738Y-89465850D01*
X95756401Y-89428623D01*
X95756165Y-89399103D01*
X95754834Y-89229845D01*
X95711416Y-89228633D01*
X95691681Y-89227927D01*
X95679000Y-89226935D01*
X95671905Y-89225360D01*
X95668926Y-89222906D01*
X95668531Y-89219964D01*
X95668802Y-89212734D01*
X95669111Y-89199155D01*
X95669414Y-89181400D01*
X95669596Y-89167757D01*
X95670129Y-89123009D01*
X95712746Y-89123009D01*
X95755364Y-89123009D01*
X95755364Y-89052573D01*
X95755364Y-88982137D01*
X95816094Y-88983320D01*
G37*
G36*
X88186505Y-89052570D02*
G01*
X88186505Y-89123009D01*
X88254693Y-89123009D01*
X88322880Y-89123009D01*
X88322880Y-89176281D01*
X88322880Y-89229553D01*
X88309030Y-89230216D01*
X88299463Y-89230407D01*
X88283561Y-89230439D01*
X88263514Y-89230319D01*
X88241508Y-89230051D01*
X88240842Y-89230041D01*
X88186505Y-89229201D01*
X88186505Y-89375062D01*
X88186524Y-89420369D01*
X88186812Y-89457888D01*
X88187714Y-89488352D01*
X88189577Y-89512496D01*
X88192746Y-89531054D01*
X88197568Y-89544760D01*
X88204388Y-89554349D01*
X88213552Y-89560555D01*
X88225406Y-89564112D01*
X88240296Y-89565755D01*
X88258568Y-89566217D01*
X88276556Y-89566231D01*
X88296649Y-89566216D01*
X88310685Y-89567029D01*
X88319701Y-89569956D01*
X88324730Y-89576283D01*
X88326807Y-89587297D01*
X88326966Y-89604284D01*
X88326257Y-89628026D01*
X88325011Y-89670643D01*
X88256823Y-89671480D01*
X88224539Y-89671521D01*
X88199459Y-89670703D01*
X88180298Y-89668948D01*
X88165773Y-89666181D01*
X88165196Y-89666029D01*
X88134103Y-89654375D01*
X88109535Y-89637547D01*
X88090894Y-89614935D01*
X88077581Y-89585930D01*
X88073714Y-89572793D01*
X88071926Y-89564347D01*
X88070480Y-89553716D01*
X88069343Y-89540003D01*
X88068483Y-89522311D01*
X88067869Y-89499745D01*
X88067468Y-89471407D01*
X88067248Y-89436401D01*
X88067176Y-89393831D01*
X88067176Y-89390604D01*
X88067176Y-89233814D01*
X88043736Y-89233282D01*
X88029937Y-89232802D01*
X88019555Y-89232141D01*
X88016035Y-89231684D01*
X88009308Y-89230875D01*
X87997943Y-89230202D01*
X87994726Y-89230085D01*
X87977679Y-89229553D01*
X87977679Y-89176281D01*
X87977679Y-89123009D01*
X87997922Y-89122435D01*
X88014492Y-89122236D01*
X88033662Y-89122381D01*
X88042564Y-89122582D01*
X88066963Y-89123303D01*
X88068135Y-89053903D01*
X88069307Y-88984502D01*
X88127906Y-88983317D01*
X88186505Y-88982131D01*
X88186505Y-89052570D01*
G37*
G36*
X89429704Y-89121969D02*
G01*
X89436960Y-89122434D01*
X89437696Y-89122654D01*
X89438055Y-89127148D01*
X89438384Y-89139306D01*
X89438675Y-89158266D01*
X89438919Y-89183169D01*
X89439112Y-89213155D01*
X89439244Y-89247362D01*
X89439309Y-89284932D01*
X89439309Y-89316563D01*
X89439188Y-89368196D01*
X89438901Y-89411939D01*
X89438431Y-89448424D01*
X89437762Y-89478282D01*
X89436876Y-89502147D01*
X89435758Y-89520650D01*
X89434392Y-89534422D01*
X89433449Y-89540660D01*
X89423936Y-89578037D01*
X89409743Y-89608512D01*
X89390409Y-89632584D01*
X89365475Y-89650758D01*
X89334480Y-89663535D01*
X89316723Y-89668024D01*
X89302597Y-89669933D01*
X89281973Y-89671329D01*
X89256537Y-89672227D01*
X89227974Y-89672642D01*
X89197972Y-89672589D01*
X89168217Y-89672081D01*
X89140394Y-89671134D01*
X89116190Y-89669763D01*
X89097291Y-89667981D01*
X89086179Y-89666030D01*
X89051152Y-89653061D01*
X89022678Y-89634667D01*
X89000595Y-89610676D01*
X88984741Y-89580916D01*
X88975309Y-89547164D01*
X88974111Y-89536079D01*
X88973076Y-89516924D01*
X88972213Y-89490154D01*
X88971532Y-89456222D01*
X88971040Y-89415581D01*
X88970749Y-89368684D01*
X88970666Y-89322528D01*
X88970666Y-89123009D01*
X89002629Y-89122681D01*
X89021142Y-89122516D01*
X89038804Y-89122398D01*
X89051639Y-89122353D01*
X89065650Y-89122437D01*
X89077798Y-89122642D01*
X89079178Y-89122681D01*
X89089669Y-89123009D01*
X89090897Y-89317984D01*
X89091208Y-89364120D01*
X89091529Y-89402521D01*
X89091896Y-89433973D01*
X89092342Y-89459265D01*
X89092901Y-89479182D01*
X89093609Y-89494514D01*
X89094500Y-89506048D01*
X89095608Y-89514571D01*
X89096967Y-89520870D01*
X89098612Y-89525733D01*
X89100109Y-89529024D01*
X89108774Y-89542081D01*
X89119683Y-89553275D01*
X89121418Y-89554595D01*
X89126975Y-89558177D01*
X89132988Y-89560728D01*
X89140946Y-89562421D01*
X89152343Y-89563430D01*
X89168668Y-89563928D01*
X89191414Y-89564090D01*
X89202931Y-89564100D01*
X89229124Y-89563996D01*
X89248322Y-89563580D01*
X89262056Y-89562692D01*
X89271852Y-89561171D01*
X89279240Y-89558860D01*
X89285747Y-89555598D01*
X89286035Y-89555431D01*
X89292690Y-89551493D01*
X89298273Y-89547577D01*
X89302878Y-89542942D01*
X89306600Y-89536846D01*
X89309532Y-89528546D01*
X89311769Y-89517300D01*
X89313404Y-89502366D01*
X89314533Y-89483002D01*
X89315248Y-89458465D01*
X89315645Y-89428014D01*
X89315817Y-89390906D01*
X89315859Y-89346400D01*
X89315860Y-89320339D01*
X89315867Y-89123458D01*
X89375900Y-89122168D01*
X89397595Y-89121824D01*
X89416056Y-89121762D01*
X89429704Y-89121969D01*
G37*
G36*
X96785681Y-89126391D02*
G01*
X96786787Y-89336468D01*
X96817559Y-89335217D01*
X96848331Y-89333965D01*
X96902880Y-89257254D01*
X96920238Y-89232749D01*
X96937198Y-89208635D01*
X96952684Y-89186455D01*
X96965616Y-89167755D01*
X96974918Y-89154081D01*
X96976452Y-89151776D01*
X96995476Y-89123009D01*
X97065822Y-89123009D01*
X97089229Y-89123217D01*
X97109338Y-89123793D01*
X97124744Y-89124663D01*
X97134043Y-89125757D01*
X97136169Y-89126642D01*
X97133758Y-89131043D01*
X97127035Y-89141191D01*
X97116765Y-89155986D01*
X97103714Y-89174328D01*
X97088647Y-89195118D01*
X97086094Y-89198607D01*
X97056969Y-89238329D01*
X97032477Y-89271750D01*
X97012250Y-89299470D01*
X96995917Y-89322090D01*
X96983109Y-89340209D01*
X96973457Y-89354429D01*
X96966591Y-89365348D01*
X96962143Y-89373567D01*
X96959742Y-89379687D01*
X96959020Y-89384307D01*
X96959607Y-89388027D01*
X96961134Y-89391449D01*
X96963231Y-89395172D01*
X96964115Y-89396818D01*
X96968209Y-89403622D01*
X96976428Y-89416394D01*
X96988061Y-89434082D01*
X97002397Y-89455635D01*
X97018726Y-89480002D01*
X97036335Y-89506132D01*
X97054515Y-89532973D01*
X97072553Y-89559475D01*
X97089740Y-89584586D01*
X97105363Y-89607256D01*
X97118713Y-89626432D01*
X97129078Y-89641064D01*
X97132630Y-89645956D01*
X97141021Y-89657694D01*
X97146911Y-89666567D01*
X97148954Y-89670461D01*
X97144921Y-89671213D01*
X97133734Y-89671862D01*
X97116762Y-89672367D01*
X97095374Y-89672684D01*
X97074969Y-89672774D01*
X97000985Y-89672774D01*
X96969363Y-89624830D01*
X96955808Y-89604370D01*
X96939143Y-89579356D01*
X96921039Y-89552290D01*
X96903169Y-89525671D01*
X96893886Y-89511893D01*
X96850031Y-89446902D01*
X96818369Y-89446902D01*
X96786706Y-89446902D01*
X96786706Y-89557251D01*
X96786653Y-89591163D01*
X96786458Y-89617511D01*
X96786062Y-89637254D01*
X96785408Y-89651349D01*
X96784439Y-89660757D01*
X96783098Y-89666436D01*
X96781328Y-89669345D01*
X96779965Y-89670187D01*
X96773268Y-89671182D01*
X96759951Y-89672000D01*
X96741915Y-89672558D01*
X96721064Y-89672774D01*
X96720167Y-89672774D01*
X96695845Y-89672495D01*
X96679154Y-89671601D01*
X96669218Y-89670008D01*
X96665159Y-89667631D01*
X96665078Y-89667447D01*
X96664787Y-89662479D01*
X96664533Y-89649609D01*
X96664318Y-89629459D01*
X96664143Y-89602650D01*
X96664010Y-89569805D01*
X96663920Y-89531544D01*
X96663875Y-89488489D01*
X96663876Y-89441263D01*
X96663924Y-89390486D01*
X96664023Y-89336780D01*
X96664146Y-89289217D01*
X96665246Y-88916314D01*
X96724911Y-88916314D01*
X96784575Y-88916314D01*
X96785681Y-89126391D01*
G37*
G36*
X95035129Y-89040190D02*
G01*
X95035129Y-89166197D01*
X95053899Y-89150817D01*
X95076143Y-89135976D01*
X95102022Y-89125436D01*
X95133025Y-89118737D01*
X95167657Y-89115552D01*
X95213778Y-89116321D01*
X95254823Y-89123272D01*
X95290500Y-89136238D01*
X95320517Y-89155052D01*
X95344582Y-89179547D01*
X95362404Y-89209556D01*
X95370428Y-89231684D01*
X95372143Y-89238540D01*
X95373592Y-89246657D01*
X95374805Y-89256816D01*
X95375812Y-89269802D01*
X95376643Y-89286398D01*
X95377327Y-89307386D01*
X95377893Y-89333551D01*
X95378373Y-89365676D01*
X95378795Y-89404543D01*
X95379190Y-89450937D01*
X95379297Y-89465014D01*
X95380845Y-89672774D01*
X95325533Y-89672774D01*
X95304177Y-89672582D01*
X95285552Y-89672058D01*
X95271509Y-89671278D01*
X95263898Y-89670320D01*
X95263481Y-89670187D01*
X95261882Y-89668865D01*
X95260554Y-89665754D01*
X95259473Y-89660133D01*
X95258614Y-89651284D01*
X95257952Y-89638484D01*
X95257462Y-89621014D01*
X95257120Y-89598153D01*
X95256902Y-89569180D01*
X95256782Y-89533374D01*
X95256736Y-89490016D01*
X95256733Y-89473082D01*
X95256708Y-89426869D01*
X95256619Y-89388400D01*
X95256437Y-89356893D01*
X95256136Y-89331569D01*
X95255686Y-89311646D01*
X95255060Y-89296344D01*
X95254232Y-89284883D01*
X95253171Y-89276483D01*
X95251852Y-89270363D01*
X95250246Y-89265742D01*
X95249275Y-89263647D01*
X95240959Y-89251438D01*
X95229159Y-89242468D01*
X95212640Y-89236271D01*
X95190168Y-89232385D01*
X95160801Y-89230354D01*
X95125072Y-89230121D01*
X95096637Y-89232664D01*
X95074628Y-89238292D01*
X95058180Y-89247313D01*
X95046428Y-89260035D01*
X95039662Y-89273513D01*
X95038422Y-89281275D01*
X95037373Y-89297381D01*
X95036520Y-89321650D01*
X95035867Y-89353906D01*
X95035416Y-89393968D01*
X95035174Y-89441659D01*
X95035129Y-89476555D01*
X95035104Y-89522255D01*
X95035011Y-89560159D01*
X95034827Y-89590994D01*
X95034524Y-89615487D01*
X95034078Y-89634365D01*
X95033464Y-89648355D01*
X95032656Y-89658185D01*
X95031629Y-89664582D01*
X95030358Y-89668273D01*
X95028817Y-89669984D01*
X95028388Y-89670187D01*
X95020763Y-89671451D01*
X95007092Y-89672262D01*
X94989487Y-89672644D01*
X94970057Y-89672619D01*
X94950913Y-89672207D01*
X94934163Y-89671431D01*
X94921919Y-89670313D01*
X94916490Y-89669029D01*
X94915481Y-89667165D01*
X94914605Y-89662618D01*
X94913856Y-89654905D01*
X94913230Y-89643545D01*
X94912721Y-89628055D01*
X94912322Y-89607952D01*
X94912030Y-89582755D01*
X94911839Y-89551981D01*
X94911742Y-89515149D01*
X94911735Y-89471775D01*
X94911813Y-89421379D01*
X94911969Y-89363476D01*
X94912199Y-89297586D01*
X94912229Y-89289801D01*
X94913669Y-88914187D01*
X94974399Y-88914185D01*
X95035129Y-88914184D01*
X95035129Y-89040190D01*
G37*
G36*
X88527444Y-89042619D02*
G01*
X88527444Y-89171055D01*
X88547902Y-89151919D01*
X88562826Y-89139357D01*
X88578013Y-89130057D01*
X88595076Y-89123576D01*
X88615629Y-89119471D01*
X88641288Y-89117300D01*
X88673667Y-89116620D01*
X88676605Y-89116616D01*
X88709593Y-89117171D01*
X88735918Y-89119132D01*
X88757386Y-89122943D01*
X88775803Y-89129048D01*
X88792975Y-89137891D01*
X88810037Y-89149421D01*
X88835641Y-89173035D01*
X88854465Y-89201455D01*
X88866904Y-89235112D01*
X88868686Y-89246007D01*
X88870320Y-89263721D01*
X88871797Y-89287252D01*
X88873107Y-89315600D01*
X88874238Y-89347762D01*
X88875180Y-89382737D01*
X88875924Y-89419525D01*
X88876458Y-89457122D01*
X88876772Y-89494529D01*
X88876856Y-89530743D01*
X88876699Y-89564763D01*
X88876291Y-89595587D01*
X88875622Y-89622215D01*
X88874680Y-89643643D01*
X88873457Y-89658872D01*
X88871940Y-89666900D01*
X88871401Y-89667777D01*
X88865036Y-89670176D01*
X88852417Y-89671599D01*
X88832761Y-89672097D01*
X88810256Y-89671840D01*
X88755448Y-89670643D01*
X88755216Y-89483127D01*
X88755113Y-89434632D01*
X88754890Y-89393897D01*
X88754478Y-89360158D01*
X88753810Y-89332652D01*
X88752817Y-89310616D01*
X88751432Y-89293286D01*
X88749587Y-89279898D01*
X88747213Y-89269690D01*
X88744243Y-89261897D01*
X88740609Y-89255756D01*
X88736243Y-89250503D01*
X88734333Y-89248537D01*
X88723430Y-89240369D01*
X88708903Y-89234705D01*
X88689545Y-89231327D01*
X88664154Y-89230018D01*
X88633988Y-89230472D01*
X88604677Y-89232130D01*
X88582431Y-89235056D01*
X88565828Y-89239738D01*
X88553445Y-89246664D01*
X88543861Y-89256323D01*
X88539231Y-89263035D01*
X88536967Y-89266829D01*
X88535078Y-89270798D01*
X88533522Y-89275728D01*
X88532253Y-89282402D01*
X88531230Y-89291602D01*
X88530407Y-89304113D01*
X88529742Y-89320719D01*
X88529190Y-89342203D01*
X88528709Y-89369349D01*
X88528254Y-89402940D01*
X88527782Y-89443760D01*
X88527444Y-89474603D01*
X88525313Y-89670643D01*
X88466714Y-89671829D01*
X88442244Y-89672147D01*
X88425232Y-89671894D01*
X88414631Y-89670995D01*
X88409389Y-89669371D01*
X88408346Y-89667567D01*
X88408358Y-89662568D01*
X88408326Y-89649679D01*
X88408253Y-89629533D01*
X88408141Y-89602764D01*
X88407994Y-89570005D01*
X88407814Y-89531890D01*
X88407605Y-89489052D01*
X88407369Y-89442124D01*
X88407109Y-89391739D01*
X88406829Y-89338532D01*
X88406634Y-89302140D01*
X88406364Y-89247173D01*
X88406159Y-89194437D01*
X88406017Y-89144583D01*
X88405938Y-89098267D01*
X88405921Y-89056140D01*
X88405965Y-89018856D01*
X88406071Y-88987069D01*
X88406238Y-88961432D01*
X88406464Y-88942599D01*
X88406750Y-88931222D01*
X88406961Y-88928171D01*
X88409231Y-88914184D01*
X88468337Y-88914184D01*
X88527444Y-88914184D01*
X88527444Y-89042619D01*
G37*
G36*
X85874508Y-89070134D02*
G01*
X85903892Y-89070330D01*
X85926142Y-89070697D01*
X85942649Y-89071367D01*
X85954801Y-89072473D01*
X85963988Y-89074148D01*
X85971601Y-89076525D01*
X85979028Y-89079738D01*
X85980073Y-89080233D01*
X86001376Y-89094160D01*
X86020629Y-89113565D01*
X86035329Y-89135659D01*
X86040396Y-89147444D01*
X86044183Y-89163907D01*
X86046536Y-89185388D01*
X86047109Y-89202611D01*
X86047109Y-89238076D01*
X86465825Y-89238141D01*
X86524909Y-89238185D01*
X86581618Y-89238294D01*
X86635367Y-89238463D01*
X86685570Y-89238688D01*
X86731643Y-89238963D01*
X86772998Y-89239284D01*
X86809051Y-89239646D01*
X86839216Y-89240044D01*
X86862907Y-89240473D01*
X86879539Y-89240929D01*
X86888526Y-89241407D01*
X86889970Y-89241652D01*
X86891999Y-89245074D01*
X86893402Y-89252975D01*
X86894227Y-89266302D01*
X86894527Y-89286000D01*
X86894351Y-89313016D01*
X86894232Y-89321494D01*
X86893065Y-89397892D01*
X86470594Y-89398978D01*
X86048123Y-89400064D01*
X86048123Y-89437703D01*
X86047446Y-89460504D01*
X86045146Y-89477545D01*
X86040824Y-89491502D01*
X86039685Y-89494150D01*
X86024915Y-89517912D01*
X86004023Y-89538978D01*
X85979405Y-89554976D01*
X85977136Y-89556064D01*
X85971225Y-89558738D01*
X85965540Y-89560891D01*
X85959129Y-89562576D01*
X85951037Y-89563849D01*
X85940311Y-89564765D01*
X85925997Y-89565378D01*
X85907140Y-89565744D01*
X85882787Y-89565917D01*
X85851984Y-89565952D01*
X85813776Y-89565905D01*
X85806320Y-89565892D01*
X85764361Y-89565754D01*
X85730043Y-89565473D01*
X85702482Y-89565015D01*
X85680795Y-89564345D01*
X85664101Y-89563430D01*
X85651517Y-89562233D01*
X85642159Y-89560722D01*
X85636341Y-89559245D01*
X85618708Y-89550806D01*
X85600289Y-89537093D01*
X85583443Y-89520358D01*
X85570528Y-89502848D01*
X85565059Y-89491245D01*
X85563355Y-89483037D01*
X85561911Y-89469202D01*
X85560705Y-89449206D01*
X85559713Y-89422512D01*
X85559288Y-89404468D01*
X85718954Y-89404468D01*
X85800993Y-89403311D01*
X85883031Y-89402153D01*
X85884187Y-89317984D01*
X85885343Y-89233814D01*
X85802148Y-89233814D01*
X85718954Y-89233814D01*
X85718954Y-89319141D01*
X85718954Y-89404468D01*
X85559288Y-89404468D01*
X85558913Y-89388582D01*
X85558282Y-89346881D01*
X85558073Y-89327966D01*
X85557989Y-89319141D01*
X85557698Y-89288378D01*
X85557488Y-89256296D01*
X85557484Y-89230705D01*
X85557729Y-89210589D01*
X85558263Y-89194931D01*
X85559128Y-89182716D01*
X85560367Y-89172928D01*
X85562021Y-89164552D01*
X85564131Y-89156570D01*
X85565272Y-89152733D01*
X85578127Y-89123703D01*
X85597184Y-89100285D01*
X85622037Y-89082971D01*
X85623248Y-89082361D01*
X85633278Y-89079026D01*
X85649034Y-89076249D01*
X85670925Y-89074010D01*
X85699362Y-89072290D01*
X85734753Y-89071069D01*
X85777510Y-89070327D01*
X85828041Y-89070043D01*
X85874508Y-89070134D01*
G37*
G36*
X86895196Y-89564100D02*
G01*
X86895196Y-89642942D01*
X86834466Y-89643248D01*
X86810337Y-89643418D01*
X86782302Y-89643696D01*
X86751939Y-89644057D01*
X86720829Y-89644479D01*
X86690549Y-89644937D01*
X86662680Y-89645407D01*
X86638801Y-89645866D01*
X86620490Y-89646290D01*
X86610309Y-89646613D01*
X86603318Y-89647809D01*
X86595625Y-89651434D01*
X86585945Y-89658417D01*
X86572994Y-89669688D01*
X86555488Y-89686176D01*
X86554906Y-89686735D01*
X86537681Y-89703080D01*
X86520795Y-89718740D01*
X86506134Y-89731987D01*
X86495589Y-89741090D01*
X86495212Y-89741398D01*
X86476655Y-89756530D01*
X86475545Y-89895621D01*
X86474436Y-90034712D01*
X86462987Y-90058111D01*
X86448036Y-90081856D01*
X86428418Y-90100131D01*
X86405095Y-90113453D01*
X86399510Y-90115857D01*
X86393573Y-90117794D01*
X86386322Y-90119321D01*
X86376794Y-90120494D01*
X86364028Y-90121372D01*
X86347061Y-90122010D01*
X86324931Y-90122465D01*
X86296676Y-90122796D01*
X86261334Y-90123059D01*
X86241018Y-90123181D01*
X86205963Y-90123265D01*
X86173009Y-90123122D01*
X86143286Y-90122773D01*
X86117922Y-90122239D01*
X86098044Y-90121543D01*
X86084781Y-90120707D01*
X86080071Y-90120058D01*
X86050080Y-90109026D01*
X86025690Y-90091815D01*
X86006113Y-90067802D01*
X85999546Y-90056331D01*
X85996951Y-90051153D01*
X85994843Y-90045999D01*
X85993162Y-90039953D01*
X85991850Y-90032102D01*
X85990848Y-90021528D01*
X85990097Y-90007317D01*
X85989539Y-89988554D01*
X85989115Y-89964321D01*
X85988767Y-89933705D01*
X85988683Y-89924169D01*
X86145513Y-89924169D01*
X86145680Y-89941033D01*
X86146076Y-89952688D01*
X86146674Y-89957369D01*
X86151325Y-89958268D01*
X86163161Y-89958952D01*
X86180845Y-89959391D01*
X86203040Y-89959553D01*
X86228410Y-89959406D01*
X86231018Y-89959374D01*
X86313468Y-89958305D01*
X86313468Y-89874139D01*
X86313468Y-89789972D01*
X86231784Y-89789972D01*
X86150100Y-89789972D01*
X86148284Y-89809150D01*
X86147466Y-89821434D01*
X86146765Y-89838748D01*
X86146201Y-89859385D01*
X86145792Y-89881638D01*
X86145556Y-89903801D01*
X86145513Y-89924169D01*
X85988683Y-89924169D01*
X85988435Y-89895790D01*
X85988316Y-89881211D01*
X85988008Y-89840427D01*
X85987834Y-89807224D01*
X85987834Y-89780659D01*
X85988046Y-89759789D01*
X85988511Y-89743672D01*
X85989267Y-89731366D01*
X85990354Y-89721928D01*
X85991810Y-89714415D01*
X85993676Y-89707886D01*
X85995780Y-89701956D01*
X86008629Y-89676940D01*
X86027027Y-89657142D01*
X86052287Y-89641153D01*
X86052467Y-89641063D01*
X86074353Y-89630157D01*
X86227500Y-89630157D01*
X86380648Y-89630157D01*
X86433741Y-89580081D01*
X86453462Y-89561509D01*
X86473073Y-89543087D01*
X86490866Y-89526419D01*
X86505132Y-89513104D01*
X86510956Y-89507699D01*
X86535078Y-89485392D01*
X86715137Y-89485325D01*
X86895196Y-89485257D01*
X86895196Y-89564100D01*
G37*
G36*
X93931067Y-88914392D02*
G01*
X93948781Y-88915073D01*
X93959839Y-88916309D01*
X93965168Y-88918181D01*
X93965994Y-88919511D01*
X93966408Y-88927460D01*
X93966831Y-88943040D01*
X93967253Y-88965356D01*
X93967664Y-88993516D01*
X93968053Y-89026627D01*
X93968409Y-89063794D01*
X93968723Y-89104125D01*
X93968984Y-89146726D01*
X93969181Y-89190704D01*
X93969195Y-89194393D01*
X93969693Y-89336096D01*
X93998522Y-89336096D01*
X94027352Y-89336096D01*
X94069151Y-89277497D01*
X94086041Y-89253731D01*
X94103576Y-89228902D01*
X94120883Y-89204264D01*
X94137087Y-89181070D01*
X94151314Y-89160572D01*
X94162689Y-89144023D01*
X94170338Y-89132677D01*
X94172125Y-89129928D01*
X94175064Y-89127318D01*
X94180880Y-89125419D01*
X94190811Y-89124102D01*
X94206093Y-89123239D01*
X94227966Y-89122701D01*
X94243596Y-89122493D01*
X94266670Y-89122387D01*
X94286636Y-89122572D01*
X94301988Y-89123011D01*
X94311221Y-89123669D01*
X94313194Y-89124150D01*
X94313748Y-89127908D01*
X94310656Y-89135293D01*
X94303438Y-89147120D01*
X94291616Y-89164207D01*
X94281372Y-89178333D01*
X94268954Y-89195352D01*
X94256716Y-89212273D01*
X94246734Y-89226224D01*
X94244140Y-89229898D01*
X94237213Y-89239573D01*
X94226340Y-89254524D01*
X94212664Y-89273193D01*
X94197327Y-89294017D01*
X94185116Y-89310526D01*
X94170284Y-89330658D01*
X94157221Y-89348623D01*
X94146780Y-89363225D01*
X94139819Y-89373270D01*
X94137237Y-89377422D01*
X94138748Y-89382663D01*
X94144354Y-89393376D01*
X94153208Y-89408090D01*
X94164463Y-89425332D01*
X94166660Y-89428563D01*
X94178024Y-89445166D01*
X94193111Y-89467195D01*
X94210821Y-89493047D01*
X94230056Y-89521118D01*
X94249717Y-89549804D01*
X94262918Y-89569060D01*
X94280080Y-89594258D01*
X94295534Y-89617266D01*
X94308651Y-89637122D01*
X94318800Y-89652862D01*
X94325352Y-89663524D01*
X94327679Y-89668144D01*
X94327679Y-89668145D01*
X94323869Y-89670078D01*
X94312290Y-89671480D01*
X94292716Y-89672367D01*
X94264923Y-89672754D01*
X94255275Y-89672774D01*
X94182872Y-89672774D01*
X94109957Y-89563034D01*
X94091720Y-89535717D01*
X94074835Y-89510673D01*
X94059916Y-89488795D01*
X94047579Y-89470974D01*
X94038436Y-89458103D01*
X94033104Y-89451073D01*
X94032134Y-89450067D01*
X94025632Y-89448595D01*
X94013287Y-89447828D01*
X93997763Y-89447933D01*
X93997655Y-89447937D01*
X93968083Y-89449033D01*
X93967823Y-89559838D01*
X93967562Y-89670643D01*
X93909788Y-89671824D01*
X93888396Y-89672049D01*
X93870133Y-89671844D01*
X93856657Y-89671255D01*
X93849622Y-89670331D01*
X93849058Y-89670048D01*
X93848619Y-89665441D01*
X93848200Y-89652925D01*
X93847805Y-89633112D01*
X93847440Y-89606615D01*
X93847109Y-89574049D01*
X93846816Y-89536027D01*
X93846567Y-89493162D01*
X93846366Y-89446068D01*
X93846219Y-89395358D01*
X93846129Y-89341645D01*
X93846102Y-89290638D01*
X93846102Y-88914184D01*
X93905766Y-88914184D01*
X93931067Y-88914392D01*
G37*
G36*
X86273662Y-88448206D02*
G01*
X86311128Y-88448543D01*
X86341191Y-88449135D01*
X86364408Y-88450000D01*
X86381337Y-88451154D01*
X86392537Y-88452617D01*
X86395957Y-88453408D01*
X86411889Y-88460877D01*
X86429190Y-88473524D01*
X86445702Y-88489242D01*
X86459264Y-88505926D01*
X86467718Y-88521471D01*
X86468599Y-88524234D01*
X86469953Y-88533777D01*
X86471093Y-88551389D01*
X86472005Y-88576616D01*
X86472679Y-88609006D01*
X86473101Y-88648105D01*
X86473259Y-88693460D01*
X86473259Y-88696014D01*
X86473283Y-88850748D01*
X86519137Y-88902709D01*
X86536423Y-88922370D01*
X86553341Y-88941742D01*
X86568363Y-88959066D01*
X86579961Y-88972583D01*
X86583730Y-88977044D01*
X86602470Y-88999418D01*
X86748833Y-88999418D01*
X86895196Y-88999418D01*
X86895196Y-89080392D01*
X86895196Y-89161365D01*
X86712559Y-89161365D01*
X86529922Y-89161365D01*
X86509061Y-89138950D01*
X86499667Y-89128540D01*
X86486083Y-89113064D01*
X86469583Y-89093995D01*
X86451444Y-89072808D01*
X86432939Y-89050976D01*
X86432797Y-89050806D01*
X86414314Y-89028979D01*
X86396212Y-89007781D01*
X86379761Y-88988687D01*
X86366230Y-88973170D01*
X86356887Y-88962702D01*
X86356826Y-88962635D01*
X86336259Y-88940194D01*
X86201273Y-88938908D01*
X86163684Y-88938529D01*
X86133624Y-88938136D01*
X86110100Y-88937661D01*
X86092116Y-88937034D01*
X86078678Y-88936185D01*
X86068792Y-88935044D01*
X86061464Y-88933540D01*
X86055700Y-88931605D01*
X86050505Y-88929169D01*
X86048632Y-88928181D01*
X86035141Y-88919063D01*
X86021209Y-88906794D01*
X86015724Y-88900919D01*
X86008751Y-88892338D01*
X86003024Y-88883831D01*
X85998423Y-88874485D01*
X85994824Y-88863388D01*
X85992107Y-88849626D01*
X85990147Y-88832288D01*
X85988824Y-88810460D01*
X85988016Y-88783229D01*
X85987600Y-88749683D01*
X85987463Y-88711340D01*
X86146877Y-88711340D01*
X86147062Y-88733886D01*
X86147420Y-88752293D01*
X86147920Y-88765039D01*
X86148455Y-88770350D01*
X86149782Y-88772933D01*
X86152987Y-88774845D01*
X86159199Y-88776184D01*
X86169546Y-88777050D01*
X86185156Y-88777543D01*
X86207159Y-88777762D01*
X86232992Y-88777808D01*
X86315599Y-88777808D01*
X86315599Y-88694704D01*
X86315599Y-88611600D01*
X86242084Y-88611093D01*
X86217148Y-88610893D01*
X86194546Y-88610661D01*
X86175928Y-88610418D01*
X86162947Y-88610184D01*
X86157914Y-88610027D01*
X86147260Y-88609469D01*
X86146892Y-88686180D01*
X86146877Y-88711340D01*
X85987463Y-88711340D01*
X85987454Y-88708908D01*
X85987444Y-88689480D01*
X85987489Y-88646055D01*
X85987719Y-88610252D01*
X85988278Y-88581168D01*
X85989307Y-88557900D01*
X85990950Y-88539546D01*
X85993350Y-88525204D01*
X85996650Y-88513972D01*
X86000992Y-88504946D01*
X86006519Y-88497226D01*
X86013374Y-88489909D01*
X86020039Y-88483621D01*
X86029814Y-88474744D01*
X86038646Y-88467488D01*
X86047492Y-88461688D01*
X86057309Y-88457180D01*
X86069055Y-88453803D01*
X86083689Y-88451391D01*
X86102169Y-88449782D01*
X86125451Y-88448812D01*
X86154495Y-88448318D01*
X86190257Y-88448137D01*
X86228233Y-88448106D01*
X86273662Y-88448206D01*
G37*
G36*
X96211060Y-88915133D02*
G01*
X96216834Y-88916390D01*
X96219424Y-88918595D01*
X96220166Y-88921943D01*
X96220244Y-88923652D01*
X96220314Y-88930400D01*
X96220331Y-88944439D01*
X96220298Y-88964538D01*
X96220218Y-88989464D01*
X96220094Y-89017986D01*
X96219938Y-89047363D01*
X96219833Y-89084021D01*
X96220003Y-89112782D01*
X96220473Y-89134266D01*
X96221265Y-89149096D01*
X96222403Y-89157894D01*
X96223910Y-89161281D01*
X96224237Y-89161365D01*
X96230062Y-89158772D01*
X96239623Y-89152127D01*
X96246452Y-89146592D01*
X96261511Y-89135337D01*
X96277575Y-89127160D01*
X96296305Y-89121641D01*
X96319362Y-89118362D01*
X96348407Y-89116903D01*
X96364793Y-89116727D01*
X96399094Y-89117296D01*
X96426700Y-89119402D01*
X96449362Y-89123421D01*
X96468831Y-89129730D01*
X96486855Y-89138706D01*
X96497302Y-89145258D01*
X96522227Y-89165070D01*
X96540345Y-89187429D01*
X96553370Y-89214619D01*
X96556618Y-89224312D01*
X96558552Y-89230979D01*
X96560168Y-89237897D01*
X96561495Y-89245862D01*
X96562560Y-89255672D01*
X96563393Y-89268123D01*
X96564022Y-89284012D01*
X96564475Y-89304136D01*
X96564780Y-89329291D01*
X96564966Y-89360275D01*
X96565061Y-89397884D01*
X96565093Y-89442914D01*
X96565095Y-89462267D01*
X96565095Y-89672774D01*
X96505629Y-89672774D01*
X96446163Y-89672774D01*
X96444899Y-89475668D01*
X96444583Y-89429279D01*
X96444258Y-89390629D01*
X96443891Y-89358936D01*
X96443447Y-89333417D01*
X96442893Y-89313289D01*
X96442194Y-89297767D01*
X96441316Y-89286070D01*
X96440225Y-89277413D01*
X96438887Y-89271014D01*
X96437267Y-89266089D01*
X96435603Y-89262393D01*
X96429256Y-89251480D01*
X96421741Y-89243461D01*
X96411709Y-89237907D01*
X96397814Y-89234390D01*
X96378706Y-89232479D01*
X96353038Y-89231744D01*
X96339223Y-89231684D01*
X96314284Y-89231809D01*
X96296104Y-89232322D01*
X96282923Y-89233430D01*
X96272978Y-89235339D01*
X96264508Y-89238255D01*
X96258157Y-89241182D01*
X96250013Y-89245183D01*
X96243197Y-89248968D01*
X96237584Y-89253289D01*
X96233053Y-89258900D01*
X96229480Y-89266554D01*
X96226743Y-89277004D01*
X96224719Y-89291005D01*
X96223285Y-89309309D01*
X96222319Y-89332669D01*
X96221697Y-89361839D01*
X96221298Y-89397573D01*
X96220997Y-89440623D01*
X96220813Y-89470341D01*
X96220523Y-89510085D01*
X96220175Y-89547278D01*
X96219784Y-89581039D01*
X96219364Y-89610486D01*
X96218928Y-89634736D01*
X96218490Y-89652906D01*
X96218063Y-89664115D01*
X96217750Y-89667447D01*
X96214263Y-89669815D01*
X96205130Y-89671436D01*
X96189463Y-89672391D01*
X96166372Y-89672762D01*
X96160229Y-89672774D01*
X96135321Y-89672515D01*
X96118040Y-89671685D01*
X96107505Y-89670201D01*
X96102834Y-89667983D01*
X96102528Y-89667447D01*
X96102237Y-89662479D01*
X96101983Y-89649609D01*
X96101768Y-89629459D01*
X96101593Y-89602650D01*
X96101460Y-89569805D01*
X96101370Y-89531544D01*
X96101324Y-89488489D01*
X96101325Y-89441263D01*
X96101374Y-89390486D01*
X96101472Y-89336780D01*
X96101596Y-89289217D01*
X96102696Y-88916314D01*
X96161295Y-88915129D01*
X96184626Y-88914696D01*
X96200769Y-88914633D01*
X96211060Y-88915133D01*
G37*
G36*
X90660468Y-89116791D02*
G01*
X90692967Y-89120622D01*
X90720311Y-89126978D01*
X90743566Y-89136133D01*
X90763798Y-89148360D01*
X90782073Y-89163934D01*
X90788139Y-89170157D01*
X90806046Y-89195428D01*
X90818249Y-89226564D01*
X90824568Y-89262939D01*
X90825111Y-89298926D01*
X90824525Y-89310766D01*
X90765926Y-89309581D01*
X90707327Y-89308395D01*
X90704800Y-89284904D01*
X90702374Y-89269976D01*
X90698923Y-89257404D01*
X90696711Y-89252507D01*
X90691766Y-89245535D01*
X90686001Y-89240302D01*
X90678160Y-89236530D01*
X90666987Y-89233943D01*
X90651225Y-89232264D01*
X90629618Y-89231217D01*
X90600910Y-89230524D01*
X90596521Y-89230445D01*
X90568610Y-89230034D01*
X90547813Y-89230001D01*
X90532726Y-89230450D01*
X90521943Y-89231484D01*
X90514061Y-89233204D01*
X90507675Y-89235713D01*
X90504894Y-89237138D01*
X90496800Y-89241856D01*
X90490319Y-89246968D01*
X90485272Y-89253425D01*
X90481479Y-89262179D01*
X90478762Y-89274181D01*
X90476944Y-89290380D01*
X90475844Y-89311729D01*
X90475285Y-89339178D01*
X90475087Y-89373677D01*
X90475068Y-89395923D01*
X90475090Y-89431403D01*
X90475209Y-89459432D01*
X90475499Y-89481081D01*
X90476031Y-89497422D01*
X90476879Y-89509527D01*
X90478117Y-89518469D01*
X90479817Y-89525319D01*
X90482052Y-89531149D01*
X90484651Y-89536546D01*
X90492478Y-89548916D01*
X90501255Y-89558365D01*
X90504894Y-89560826D01*
X90514079Y-89563120D01*
X90529923Y-89564812D01*
X90550583Y-89565909D01*
X90574216Y-89566419D01*
X90598979Y-89566349D01*
X90623028Y-89565706D01*
X90644521Y-89564497D01*
X90661616Y-89562731D01*
X90672468Y-89560414D01*
X90673119Y-89560160D01*
X90686773Y-89550270D01*
X90697531Y-89534505D01*
X90703980Y-89515386D01*
X90705196Y-89502930D01*
X90706893Y-89489545D01*
X90711937Y-89483582D01*
X90719662Y-89482292D01*
X90733422Y-89481474D01*
X90751105Y-89481105D01*
X90770595Y-89481159D01*
X90789779Y-89481611D01*
X90806543Y-89482436D01*
X90818773Y-89483609D01*
X90824119Y-89484916D01*
X90827047Y-89491198D01*
X90828135Y-89503798D01*
X90827517Y-89520743D01*
X90825324Y-89540061D01*
X90821690Y-89559778D01*
X90818166Y-89573410D01*
X90808144Y-89596232D01*
X90792714Y-89618833D01*
X90774197Y-89638218D01*
X90759613Y-89648886D01*
X90746127Y-89656100D01*
X90732353Y-89661734D01*
X90717041Y-89665964D01*
X90698938Y-89668965D01*
X90676793Y-89670912D01*
X90649357Y-89671981D01*
X90615377Y-89672347D01*
X90592430Y-89672307D01*
X90563159Y-89672015D01*
X90535701Y-89671457D01*
X90511559Y-89670686D01*
X90492240Y-89669754D01*
X90479248Y-89668714D01*
X90475813Y-89668214D01*
X90454258Y-89662031D01*
X90431299Y-89652348D01*
X90410660Y-89640885D01*
X90400285Y-89633321D01*
X90388773Y-89620614D01*
X90376935Y-89602745D01*
X90366569Y-89582807D01*
X90359473Y-89563891D01*
X90359086Y-89562461D01*
X90358045Y-89554446D01*
X90357006Y-89539086D01*
X90356013Y-89517559D01*
X90355111Y-89491042D01*
X90354343Y-89460715D01*
X90353751Y-89427754D01*
X90353559Y-89412808D01*
X90353180Y-89363480D01*
X90353399Y-89321801D01*
X90354445Y-89286905D01*
X90356544Y-89257926D01*
X90359926Y-89233997D01*
X90364817Y-89214251D01*
X90371445Y-89197824D01*
X90380038Y-89183848D01*
X90390824Y-89171457D01*
X90404030Y-89159785D01*
X90419884Y-89147965D01*
X90423921Y-89145140D01*
X90438003Y-89136469D01*
X90453162Y-89129691D01*
X90470718Y-89124552D01*
X90491987Y-89120795D01*
X90518290Y-89118163D01*
X90550943Y-89116401D01*
X90575744Y-89115611D01*
X90621749Y-89115212D01*
X90660468Y-89116791D01*
G37*
G36*
X92849601Y-89307330D02*
G01*
X92849949Y-89351875D01*
X92850292Y-89388717D01*
X92850672Y-89418675D01*
X92851129Y-89442571D01*
X92851708Y-89461224D01*
X92852449Y-89475453D01*
X92853394Y-89486080D01*
X92854587Y-89493925D01*
X92856068Y-89499807D01*
X92857879Y-89504546D01*
X92859924Y-89508697D01*
X92866521Y-89519846D01*
X92873845Y-89528079D01*
X92883269Y-89533851D01*
X92896162Y-89537615D01*
X92913896Y-89539824D01*
X92937842Y-89540932D01*
X92958414Y-89541289D01*
X92987205Y-89541312D01*
X93008970Y-89540369D01*
X93025190Y-89538056D01*
X93037344Y-89533968D01*
X93046911Y-89527702D01*
X93055371Y-89518854D01*
X93059365Y-89513716D01*
X93061503Y-89510622D01*
X93063278Y-89507072D01*
X93064729Y-89502281D01*
X93065896Y-89495462D01*
X93066819Y-89485828D01*
X93067537Y-89472594D01*
X93068090Y-89454972D01*
X93068518Y-89432178D01*
X93068860Y-89403424D01*
X93069157Y-89367924D01*
X93069447Y-89324892D01*
X93069527Y-89312349D01*
X93070720Y-89123009D01*
X93132387Y-89123009D01*
X93194055Y-89123009D01*
X93193981Y-89409611D01*
X93193947Y-89469339D01*
X93193853Y-89521201D01*
X93193662Y-89565859D01*
X93193336Y-89603969D01*
X93192839Y-89636192D01*
X93192133Y-89663185D01*
X93191180Y-89685609D01*
X93189944Y-89704122D01*
X93188388Y-89719383D01*
X93186473Y-89732050D01*
X93184163Y-89742783D01*
X93181420Y-89752241D01*
X93178208Y-89761083D01*
X93174488Y-89769967D01*
X93173470Y-89772282D01*
X93157757Y-89798049D01*
X93135673Y-89820720D01*
X93109222Y-89838774D01*
X93080409Y-89850689D01*
X93065979Y-89853835D01*
X93056251Y-89854683D01*
X93039793Y-89855438D01*
X93017846Y-89856092D01*
X92991651Y-89856640D01*
X92962450Y-89857075D01*
X92931484Y-89857390D01*
X92899993Y-89857579D01*
X92869220Y-89857634D01*
X92840404Y-89857549D01*
X92814788Y-89857317D01*
X92793612Y-89856932D01*
X92778118Y-89856387D01*
X92769546Y-89855675D01*
X92768537Y-89855438D01*
X92764959Y-89853394D01*
X92762606Y-89849394D01*
X92761233Y-89841893D01*
X92760599Y-89829349D01*
X92760461Y-89810218D01*
X92760476Y-89804137D01*
X92760892Y-89784332D01*
X92761894Y-89767458D01*
X92763325Y-89755469D01*
X92764783Y-89750551D01*
X92768115Y-89748953D01*
X92775830Y-89747680D01*
X92788631Y-89746706D01*
X92807225Y-89746001D01*
X92832315Y-89745537D01*
X92864609Y-89745288D01*
X92899187Y-89745224D01*
X92935972Y-89745205D01*
X92965219Y-89745106D01*
X92987914Y-89744862D01*
X93005044Y-89744411D01*
X93017595Y-89743688D01*
X93026551Y-89742630D01*
X93032901Y-89741173D01*
X93037628Y-89739253D01*
X93041720Y-89736806D01*
X93043026Y-89735922D01*
X93052913Y-89728433D01*
X93059856Y-89720661D01*
X93064439Y-89710896D01*
X93067247Y-89697429D01*
X93068865Y-89678549D01*
X93069712Y-89657858D01*
X93071353Y-89606717D01*
X93062283Y-89618173D01*
X93053488Y-89626277D01*
X93040149Y-89635352D01*
X93028984Y-89641484D01*
X93017802Y-89646574D01*
X93007399Y-89650066D01*
X92995617Y-89652335D01*
X92980297Y-89653754D01*
X92959278Y-89654699D01*
X92951309Y-89654953D01*
X92906570Y-89654983D01*
X92868889Y-89651970D01*
X92837269Y-89645665D01*
X92810715Y-89635818D01*
X92788232Y-89622180D01*
X92774904Y-89610752D01*
X92765480Y-89601048D01*
X92757459Y-89591177D01*
X92750728Y-89580392D01*
X92745175Y-89567943D01*
X92740689Y-89553081D01*
X92737155Y-89535057D01*
X92734463Y-89513124D01*
X92732500Y-89486531D01*
X92731152Y-89454530D01*
X92730309Y-89416372D01*
X92729856Y-89371309D01*
X92729683Y-89318592D01*
X92729673Y-89309460D01*
X92729525Y-89123009D01*
X92788871Y-89123009D01*
X92848216Y-89123009D01*
X92849601Y-89307330D01*
G37*
G36*
X91167729Y-89114985D02*
G01*
X91200236Y-89116431D01*
X91229862Y-89118906D01*
X91254705Y-89122360D01*
X91272033Y-89126465D01*
X91300436Y-89139102D01*
X91326613Y-89157088D01*
X91348396Y-89178667D01*
X91362527Y-89199849D01*
X91367844Y-89211079D01*
X91372175Y-89222391D01*
X91375608Y-89234758D01*
X91378230Y-89249153D01*
X91380130Y-89266550D01*
X91381393Y-89287921D01*
X91382109Y-89314240D01*
X91382365Y-89346480D01*
X91382248Y-89385615D01*
X91382004Y-89416223D01*
X91380683Y-89559838D01*
X91368411Y-89586407D01*
X91350477Y-89615541D01*
X91326425Y-89639659D01*
X91297654Y-89657429D01*
X91290970Y-89660298D01*
X91282839Y-89663375D01*
X91275001Y-89665768D01*
X91266253Y-89667577D01*
X91255393Y-89668898D01*
X91241216Y-89669829D01*
X91222519Y-89670469D01*
X91198098Y-89670916D01*
X91166750Y-89671267D01*
X91154810Y-89671377D01*
X91117654Y-89671592D01*
X91087916Y-89671465D01*
X91064500Y-89670953D01*
X91046304Y-89670014D01*
X91032232Y-89668604D01*
X91021183Y-89666682D01*
X91018647Y-89666088D01*
X90984676Y-89653773D01*
X90956384Y-89635119D01*
X90933850Y-89610196D01*
X90917271Y-89579354D01*
X90914767Y-89572899D01*
X90912740Y-89566572D01*
X90911141Y-89559430D01*
X90909918Y-89550528D01*
X90909021Y-89538923D01*
X90908399Y-89523669D01*
X90908001Y-89503825D01*
X90907778Y-89478445D01*
X90907677Y-89446586D01*
X90907665Y-89429642D01*
X91025342Y-89429642D01*
X91025524Y-89464048D01*
X91026190Y-89490554D01*
X91027347Y-89509466D01*
X91029004Y-89521088D01*
X91029283Y-89522176D01*
X91036607Y-89538339D01*
X91047928Y-89552685D01*
X91060763Y-89562210D01*
X91063183Y-89563232D01*
X91069409Y-89564021D01*
X91082608Y-89564735D01*
X91101228Y-89565323D01*
X91123717Y-89565731D01*
X91142025Y-89565887D01*
X91169751Y-89565885D01*
X91190391Y-89565511D01*
X91205382Y-89564648D01*
X91216156Y-89563179D01*
X91224150Y-89560987D01*
X91229246Y-89558766D01*
X91241462Y-89549834D01*
X91251724Y-89537892D01*
X91252597Y-89536462D01*
X91255100Y-89531684D01*
X91257061Y-89526338D01*
X91258541Y-89519386D01*
X91259603Y-89509789D01*
X91260312Y-89496508D01*
X91260730Y-89478506D01*
X91260920Y-89454743D01*
X91260945Y-89424182D01*
X91260901Y-89399755D01*
X91260779Y-89363886D01*
X91260549Y-89335487D01*
X91260149Y-89313507D01*
X91259513Y-89296891D01*
X91258578Y-89284588D01*
X91257280Y-89275545D01*
X91255555Y-89268710D01*
X91253338Y-89263028D01*
X91252466Y-89261184D01*
X91246554Y-89250639D01*
X91239682Y-89242687D01*
X91230644Y-89236998D01*
X91218234Y-89233244D01*
X91201247Y-89231097D01*
X91178478Y-89230227D01*
X91148721Y-89230307D01*
X91139692Y-89230442D01*
X91109782Y-89231108D01*
X91087081Y-89232208D01*
X91070273Y-89234090D01*
X91058044Y-89237101D01*
X91049078Y-89241586D01*
X91042061Y-89247892D01*
X91035678Y-89256367D01*
X91034475Y-89258179D01*
X91032211Y-89262439D01*
X91030416Y-89268204D01*
X91029020Y-89276494D01*
X91027953Y-89288328D01*
X91027147Y-89304724D01*
X91026530Y-89326701D01*
X91026032Y-89355278D01*
X91025635Y-89387031D01*
X91025342Y-89429642D01*
X90907665Y-89429642D01*
X90907649Y-89407303D01*
X90907648Y-89400022D01*
X90907687Y-89354630D01*
X90907921Y-89316865D01*
X90908510Y-89285833D01*
X90909612Y-89260638D01*
X90911389Y-89240386D01*
X90913998Y-89224180D01*
X90917598Y-89211125D01*
X90922350Y-89200326D01*
X90928413Y-89190887D01*
X90935945Y-89181914D01*
X90945107Y-89172511D01*
X90948760Y-89168920D01*
X90967729Y-89151724D01*
X90985355Y-89139436D01*
X91004308Y-89130738D01*
X91027261Y-89124313D01*
X91046945Y-89120497D01*
X91071950Y-89117323D01*
X91101684Y-89115380D01*
X91134244Y-89114618D01*
X91167729Y-89114985D01*
G37*
G36*
X93586090Y-89116625D02*
G01*
X93618569Y-89120300D01*
X93645853Y-89126392D01*
X93668989Y-89135120D01*
X93689025Y-89146701D01*
X93702808Y-89157531D01*
X93714328Y-89167950D01*
X93723913Y-89177706D01*
X93731743Y-89187678D01*
X93737995Y-89198744D01*
X93742847Y-89211782D01*
X93746477Y-89227672D01*
X93749064Y-89247290D01*
X93750784Y-89271516D01*
X93751815Y-89301228D01*
X93752336Y-89337304D01*
X93752525Y-89380623D01*
X93752549Y-89403120D01*
X93752510Y-89447746D01*
X93752264Y-89484764D01*
X93751701Y-89515087D01*
X93750714Y-89539631D01*
X93749193Y-89559310D01*
X93747029Y-89575037D01*
X93744113Y-89587729D01*
X93740338Y-89598299D01*
X93735594Y-89607661D01*
X93729772Y-89616731D01*
X93726601Y-89621195D01*
X93706367Y-89642241D01*
X93680206Y-89657510D01*
X93650726Y-89666614D01*
X93635733Y-89668755D01*
X93614146Y-89670439D01*
X93587498Y-89671670D01*
X93557322Y-89672451D01*
X93525151Y-89672785D01*
X93492519Y-89672677D01*
X93460958Y-89672130D01*
X93432000Y-89671147D01*
X93407179Y-89669732D01*
X93388029Y-89667889D01*
X93377310Y-89665977D01*
X93347409Y-89655280D01*
X93323464Y-89640345D01*
X93305098Y-89620559D01*
X93291937Y-89595312D01*
X93283607Y-89563992D01*
X93279731Y-89525988D01*
X93279340Y-89506287D01*
X93279601Y-89500579D01*
X93398845Y-89500579D01*
X93400296Y-89521879D01*
X93404561Y-89538109D01*
X93408653Y-89547011D01*
X93413287Y-89553807D01*
X93419598Y-89558780D01*
X93428720Y-89562215D01*
X93441790Y-89564394D01*
X93459941Y-89565601D01*
X93484309Y-89566118D01*
X93516027Y-89566230D01*
X93517191Y-89566231D01*
X93604035Y-89566231D01*
X93617909Y-89552356D01*
X93623964Y-89545956D01*
X93628068Y-89539889D01*
X93630750Y-89532241D01*
X93632536Y-89521099D01*
X93633953Y-89504549D01*
X93634879Y-89490719D01*
X93635891Y-89471160D01*
X93636268Y-89454637D01*
X93635998Y-89443064D01*
X93635243Y-89438536D01*
X93629963Y-89436946D01*
X93616539Y-89435693D01*
X93595341Y-89434793D01*
X93566744Y-89434264D01*
X93536453Y-89434116D01*
X93501467Y-89434247D01*
X93473955Y-89434789D01*
X93452869Y-89435967D01*
X93437160Y-89438004D01*
X93425781Y-89441126D01*
X93417684Y-89445556D01*
X93411821Y-89451520D01*
X93407143Y-89459241D01*
X93405732Y-89462106D01*
X93400677Y-89479346D01*
X93398845Y-89500579D01*
X93279601Y-89500579D01*
X93281258Y-89464365D01*
X93287224Y-89429519D01*
X93297698Y-89401094D01*
X93313142Y-89378433D01*
X93334017Y-89360880D01*
X93360784Y-89347780D01*
X93393904Y-89338477D01*
X93397848Y-89337678D01*
X93411999Y-89335408D01*
X93428681Y-89333791D01*
X93449187Y-89332775D01*
X93474810Y-89332312D01*
X93506843Y-89332353D01*
X93530733Y-89332612D01*
X93630884Y-89333965D01*
X93632112Y-89296924D01*
X93632555Y-89278875D01*
X93632084Y-89266995D01*
X93630179Y-89258940D01*
X93626319Y-89252365D01*
X93620750Y-89245783D01*
X93608161Y-89231684D01*
X93523151Y-89230375D01*
X93438141Y-89229067D01*
X93426903Y-89242422D01*
X93419696Y-89252908D01*
X93415859Y-89262233D01*
X93415666Y-89263974D01*
X93415151Y-89267226D01*
X93412734Y-89269483D01*
X93407106Y-89270926D01*
X93396958Y-89271734D01*
X93380982Y-89272088D01*
X93357869Y-89272170D01*
X93356253Y-89272170D01*
X93334632Y-89271934D01*
X93316211Y-89271285D01*
X93302595Y-89270314D01*
X93295384Y-89269112D01*
X93294690Y-89268692D01*
X93294223Y-89263037D01*
X93295001Y-89251390D01*
X93296855Y-89236166D01*
X93297080Y-89234627D01*
X93304557Y-89204411D01*
X93317879Y-89179082D01*
X93338227Y-89156567D01*
X93344883Y-89150862D01*
X93359079Y-89140595D01*
X93374531Y-89132535D01*
X93392514Y-89126396D01*
X93414304Y-89121890D01*
X93441177Y-89118730D01*
X93474409Y-89116629D01*
X93501353Y-89115658D01*
X93547367Y-89115151D01*
X93586090Y-89116625D01*
G37*
G36*
X94625187Y-89116784D02*
G01*
X94653483Y-89117416D01*
X94676070Y-89118709D01*
X94694354Y-89120857D01*
X94709740Y-89124056D01*
X94723634Y-89128500D01*
X94737439Y-89134385D01*
X94745330Y-89138219D01*
X94771333Y-89155746D01*
X94791231Y-89179101D01*
X94804842Y-89207979D01*
X94811983Y-89242080D01*
X94812647Y-89249924D01*
X94814655Y-89280949D01*
X94757997Y-89279756D01*
X94701339Y-89278563D01*
X94696623Y-89261516D01*
X94693032Y-89251229D01*
X94687961Y-89243376D01*
X94680337Y-89237662D01*
X94669084Y-89233789D01*
X94653128Y-89231462D01*
X94631394Y-89230385D01*
X94602807Y-89230260D01*
X94584090Y-89230485D01*
X94505955Y-89231684D01*
X94493528Y-89245601D01*
X94485974Y-89255494D01*
X94482255Y-89265534D01*
X94481127Y-89279489D01*
X94481102Y-89283172D01*
X94481697Y-89298406D01*
X94484086Y-89310458D01*
X94489178Y-89319759D01*
X94497881Y-89326740D01*
X94511101Y-89331831D01*
X94529747Y-89335465D01*
X94554727Y-89338071D01*
X94586948Y-89340081D01*
X94602562Y-89340837D01*
X94648283Y-89343521D01*
X94686390Y-89347191D01*
X94717764Y-89352167D01*
X94743288Y-89358766D01*
X94763845Y-89367309D01*
X94780315Y-89378112D01*
X94793583Y-89391494D01*
X94804531Y-89407775D01*
X94808449Y-89415153D01*
X94817654Y-89439681D01*
X94822983Y-89469256D01*
X94824605Y-89505016D01*
X94824248Y-89521482D01*
X94822823Y-89547239D01*
X94820334Y-89567032D01*
X94816123Y-89583408D01*
X94809531Y-89598918D01*
X94799901Y-89616111D01*
X94799765Y-89616337D01*
X94789805Y-89630919D01*
X94778599Y-89642832D01*
X94765235Y-89652322D01*
X94748799Y-89659634D01*
X94728376Y-89665014D01*
X94703053Y-89668706D01*
X94671916Y-89670957D01*
X94634052Y-89672010D01*
X94591907Y-89672131D01*
X94562349Y-89671915D01*
X94535153Y-89671587D01*
X94511635Y-89671172D01*
X94493110Y-89670696D01*
X94480892Y-89670186D01*
X94476840Y-89669830D01*
X94453114Y-89663878D01*
X94429588Y-89654623D01*
X94410377Y-89643692D01*
X94410025Y-89643438D01*
X94394364Y-89627937D01*
X94380293Y-89606191D01*
X94369085Y-89580475D01*
X94363362Y-89560122D01*
X94359533Y-89542663D01*
X94357512Y-89530396D01*
X94358388Y-89522412D01*
X94363248Y-89517799D01*
X94373181Y-89515647D01*
X94389275Y-89515045D01*
X94412616Y-89515085D01*
X94417176Y-89515090D01*
X94441062Y-89515200D01*
X94457685Y-89515628D01*
X94468303Y-89516516D01*
X94474175Y-89518008D01*
X94476559Y-89520249D01*
X94476840Y-89521904D01*
X94479742Y-89534578D01*
X94486951Y-89548019D01*
X94496221Y-89558509D01*
X94500686Y-89561378D01*
X94508873Y-89563114D01*
X94523856Y-89564475D01*
X94543921Y-89565458D01*
X94567354Y-89566061D01*
X94592442Y-89566282D01*
X94617473Y-89566116D01*
X94640732Y-89565562D01*
X94660507Y-89564617D01*
X94675084Y-89563278D01*
X94682499Y-89561666D01*
X94693776Y-89553536D01*
X94701045Y-89540496D01*
X94705038Y-89521079D01*
X94705577Y-89515466D01*
X94704719Y-89491462D01*
X94697921Y-89473113D01*
X94685343Y-89460749D01*
X94677142Y-89456984D01*
X94668583Y-89455326D01*
X94652970Y-89453505D01*
X94631765Y-89451645D01*
X94606435Y-89449867D01*
X94578441Y-89448294D01*
X94566337Y-89447728D01*
X94528293Y-89445802D01*
X94497592Y-89443524D01*
X94473054Y-89440598D01*
X94453500Y-89436729D01*
X94437749Y-89431620D01*
X94424621Y-89424975D01*
X94412937Y-89416498D01*
X94402160Y-89406540D01*
X94389870Y-89392548D01*
X94380801Y-89377628D01*
X94374529Y-89360235D01*
X94370630Y-89338823D01*
X94368683Y-89311848D01*
X94368245Y-89282825D01*
X94368373Y-89258766D01*
X94368864Y-89241320D01*
X94369989Y-89228578D01*
X94372019Y-89218628D01*
X94375227Y-89209560D01*
X94379882Y-89199466D01*
X94380178Y-89198858D01*
X94398722Y-89170280D01*
X94423421Y-89147282D01*
X94453429Y-89130585D01*
X94465610Y-89126179D01*
X94476397Y-89122997D01*
X94486736Y-89120606D01*
X94498068Y-89118894D01*
X94511836Y-89117751D01*
X94529482Y-89117064D01*
X94552450Y-89116724D01*
X94582180Y-89116619D01*
X94589776Y-89116616D01*
X94625187Y-89116784D01*
G37*
G36*
X91739733Y-89115386D02*
G01*
X91753485Y-89116944D01*
X91767141Y-89119579D01*
X91778218Y-89122250D01*
X91805783Y-89131240D01*
X91829134Y-89142843D01*
X91846753Y-89156164D01*
X91856002Y-89168010D01*
X91861482Y-89178250D01*
X91880302Y-89160902D01*
X91907539Y-89140740D01*
X91939357Y-89126494D01*
X91976333Y-89118005D01*
X92019042Y-89115117D01*
X92045515Y-89115878D01*
X92077826Y-89118802D01*
X92104257Y-89123869D01*
X92127333Y-89131811D01*
X92149580Y-89143359D01*
X92157488Y-89148291D01*
X92179982Y-89165695D01*
X92196589Y-89185806D01*
X92208853Y-89210791D01*
X92214623Y-89228503D01*
X92216537Y-89235902D01*
X92218152Y-89243980D01*
X92219504Y-89253556D01*
X92220631Y-89265448D01*
X92221569Y-89280476D01*
X92222355Y-89299457D01*
X92223027Y-89323211D01*
X92223621Y-89352557D01*
X92224174Y-89388312D01*
X92224722Y-89431296D01*
X92225054Y-89459938D01*
X92225563Y-89507457D01*
X92225912Y-89547157D01*
X92226087Y-89579741D01*
X92226077Y-89605910D01*
X92225866Y-89626367D01*
X92225442Y-89641816D01*
X92224792Y-89652959D01*
X92223900Y-89660498D01*
X92222755Y-89665137D01*
X92221343Y-89667577D01*
X92221070Y-89667829D01*
X92214574Y-89670218D01*
X92201586Y-89671624D01*
X92181394Y-89672096D01*
X92159987Y-89671840D01*
X92105179Y-89670643D01*
X92103048Y-89472472D01*
X92102523Y-89423626D01*
X92102011Y-89382573D01*
X92101395Y-89348582D01*
X92100561Y-89320923D01*
X92099394Y-89298865D01*
X92097776Y-89281680D01*
X92095594Y-89268636D01*
X92092732Y-89259004D01*
X92089074Y-89252053D01*
X92084504Y-89247053D01*
X92078908Y-89243274D01*
X92072169Y-89239986D01*
X92065839Y-89237202D01*
X92056089Y-89233401D01*
X92046162Y-89231032D01*
X92033931Y-89229885D01*
X92017268Y-89229749D01*
X91996376Y-89230330D01*
X91970797Y-89231689D01*
X91952067Y-89234045D01*
X91938523Y-89237979D01*
X91928499Y-89244074D01*
X91920332Y-89252910D01*
X91916656Y-89258184D01*
X91914892Y-89261462D01*
X91913405Y-89265961D01*
X91912161Y-89272432D01*
X91911126Y-89281627D01*
X91910265Y-89294300D01*
X91909545Y-89311202D01*
X91908930Y-89333086D01*
X91908387Y-89360705D01*
X91907882Y-89394810D01*
X91907380Y-89436155D01*
X91907008Y-89470146D01*
X91904877Y-89670643D01*
X91849820Y-89671841D01*
X91823689Y-89672028D01*
X91804619Y-89671325D01*
X91793158Y-89669765D01*
X91790156Y-89668425D01*
X91788919Y-89663531D01*
X91787884Y-89651389D01*
X91787044Y-89631791D01*
X91786396Y-89604527D01*
X91785934Y-89569390D01*
X91785653Y-89526169D01*
X91785549Y-89474657D01*
X91785548Y-89469056D01*
X91785539Y-89420896D01*
X91785451Y-89380514D01*
X91785188Y-89347168D01*
X91784659Y-89320112D01*
X91783770Y-89298602D01*
X91782428Y-89281894D01*
X91780538Y-89269243D01*
X91778008Y-89259906D01*
X91774745Y-89253138D01*
X91770654Y-89248194D01*
X91765643Y-89244331D01*
X91759618Y-89240803D01*
X91756709Y-89239214D01*
X91745511Y-89235691D01*
X91728137Y-89233172D01*
X91706879Y-89231689D01*
X91684030Y-89231274D01*
X91661881Y-89231956D01*
X91642725Y-89233769D01*
X91628854Y-89236743D01*
X91627006Y-89237442D01*
X91620589Y-89240151D01*
X91615198Y-89242885D01*
X91610735Y-89246364D01*
X91607104Y-89251313D01*
X91604207Y-89258454D01*
X91601947Y-89268509D01*
X91600225Y-89282203D01*
X91598946Y-89300256D01*
X91598010Y-89323393D01*
X91597322Y-89352336D01*
X91596783Y-89387808D01*
X91596295Y-89430532D01*
X91595901Y-89468210D01*
X91593770Y-89670643D01*
X91535171Y-89671829D01*
X91476572Y-89673015D01*
X91476572Y-89460256D01*
X91476588Y-89411913D01*
X91476654Y-89371301D01*
X91476798Y-89337630D01*
X91477049Y-89310106D01*
X91477434Y-89287939D01*
X91477981Y-89270337D01*
X91478719Y-89256507D01*
X91479676Y-89245659D01*
X91480878Y-89237000D01*
X91482355Y-89229739D01*
X91484135Y-89223083D01*
X91485074Y-89219972D01*
X91498771Y-89189611D01*
X91519375Y-89163633D01*
X91546087Y-89142775D01*
X91578108Y-89127774D01*
X91588383Y-89124594D01*
X91600695Y-89122224D01*
X91619346Y-89119907D01*
X91642152Y-89117859D01*
X91666930Y-89116295D01*
X91676874Y-89115854D01*
X91703530Y-89114974D01*
X91723782Y-89114774D01*
X91739733Y-89115386D01*
G37*
G36*
X89661068Y-89035643D02*
G01*
X89661187Y-89066827D01*
X89661521Y-89095048D01*
X89662040Y-89119237D01*
X89662714Y-89138327D01*
X89663510Y-89151247D01*
X89664399Y-89156929D01*
X89664587Y-89157103D01*
X89669627Y-89154277D01*
X89677224Y-89147384D01*
X89678074Y-89146492D01*
X89687632Y-89138987D01*
X89701611Y-89130973D01*
X89711846Y-89126320D01*
X89721512Y-89122748D01*
X89731048Y-89120184D01*
X89742105Y-89118463D01*
X89756337Y-89117418D01*
X89775395Y-89116885D01*
X89800933Y-89116699D01*
X89808099Y-89116687D01*
X89835950Y-89116786D01*
X89857110Y-89117259D01*
X89873409Y-89118278D01*
X89886677Y-89120014D01*
X89898744Y-89122639D01*
X89911441Y-89126324D01*
X89911667Y-89126395D01*
X89927800Y-89132007D01*
X89940418Y-89138193D01*
X89952256Y-89146703D01*
X89966051Y-89159287D01*
X89971618Y-89164751D01*
X89982379Y-89175555D01*
X89991284Y-89185289D01*
X89998511Y-89194864D01*
X90004233Y-89205192D01*
X90008627Y-89217183D01*
X90011868Y-89231750D01*
X90014131Y-89249802D01*
X90015593Y-89272251D01*
X90016427Y-89300009D01*
X90016811Y-89333986D01*
X90016919Y-89375094D01*
X90016924Y-89400022D01*
X90016914Y-89440534D01*
X90016846Y-89473482D01*
X90016666Y-89499828D01*
X90016319Y-89520532D01*
X90015749Y-89536555D01*
X90014902Y-89548858D01*
X90013723Y-89558402D01*
X90012157Y-89566146D01*
X90010149Y-89573052D01*
X90007643Y-89580080D01*
X90006437Y-89583278D01*
X89990842Y-89613058D01*
X89968965Y-89637508D01*
X89941647Y-89655763D01*
X89931437Y-89660338D01*
X89923696Y-89663289D01*
X89916241Y-89665615D01*
X89907947Y-89667399D01*
X89897687Y-89668728D01*
X89884334Y-89669687D01*
X89866763Y-89670361D01*
X89843847Y-89670836D01*
X89814460Y-89671197D01*
X89784659Y-89671469D01*
X89746306Y-89671700D01*
X89715469Y-89671641D01*
X89691143Y-89671259D01*
X89672326Y-89670516D01*
X89658013Y-89669377D01*
X89647199Y-89667806D01*
X89640828Y-89666336D01*
X89611661Y-89656155D01*
X89588862Y-89643066D01*
X89570461Y-89625931D01*
X89570130Y-89625545D01*
X89564682Y-89619274D01*
X89559926Y-89613641D01*
X89555812Y-89608051D01*
X89552292Y-89601912D01*
X89549317Y-89594630D01*
X89546838Y-89585611D01*
X89544805Y-89574262D01*
X89543171Y-89559988D01*
X89541886Y-89542196D01*
X89540900Y-89520294D01*
X89540166Y-89493686D01*
X89539634Y-89461779D01*
X89539255Y-89423980D01*
X89539100Y-89399094D01*
X89661075Y-89399094D01*
X89661147Y-89437494D01*
X89661464Y-89468352D01*
X89662174Y-89492649D01*
X89663421Y-89511367D01*
X89665351Y-89525487D01*
X89668111Y-89535989D01*
X89671847Y-89543855D01*
X89676704Y-89550067D01*
X89682829Y-89555604D01*
X89684566Y-89556992D01*
X89689190Y-89560261D01*
X89694402Y-89562654D01*
X89701532Y-89564306D01*
X89711911Y-89565354D01*
X89726867Y-89565933D01*
X89747730Y-89566180D01*
X89774791Y-89566231D01*
X89804445Y-89566086D01*
X89826819Y-89565591D01*
X89843150Y-89564657D01*
X89854679Y-89563194D01*
X89862644Y-89561112D01*
X89866032Y-89559631D01*
X89877172Y-89551265D01*
X89886723Y-89540013D01*
X89887113Y-89539388D01*
X89889519Y-89534950D01*
X89891412Y-89529758D01*
X89892854Y-89522799D01*
X89893906Y-89513059D01*
X89894629Y-89499526D01*
X89895083Y-89481187D01*
X89895331Y-89457030D01*
X89895432Y-89426040D01*
X89895448Y-89400951D01*
X89895495Y-89358520D01*
X89895275Y-89323831D01*
X89894270Y-89296106D01*
X89891960Y-89274567D01*
X89887824Y-89258436D01*
X89881345Y-89246935D01*
X89872001Y-89239287D01*
X89859273Y-89234713D01*
X89842642Y-89232435D01*
X89821588Y-89231676D01*
X89795592Y-89231657D01*
X89782376Y-89231684D01*
X89753689Y-89231741D01*
X89732231Y-89231996D01*
X89716708Y-89232567D01*
X89705827Y-89233577D01*
X89698294Y-89235147D01*
X89692814Y-89237397D01*
X89688094Y-89240448D01*
X89688010Y-89240510D01*
X89680605Y-89246302D01*
X89674696Y-89252288D01*
X89670115Y-89259460D01*
X89666694Y-89268810D01*
X89664264Y-89281329D01*
X89662656Y-89298010D01*
X89661703Y-89319844D01*
X89661235Y-89347824D01*
X89661084Y-89382941D01*
X89661075Y-89399094D01*
X89539100Y-89399094D01*
X89538980Y-89379695D01*
X89538761Y-89328331D01*
X89538548Y-89269293D01*
X89538446Y-89241272D01*
X89537225Y-88914184D01*
X89599146Y-88914184D01*
X89661068Y-88914184D01*
X89661068Y-89035643D01*
G37*
G36*
X87493913Y-89116883D02*
G01*
X87527021Y-89117841D01*
X87554001Y-89119731D01*
X87576043Y-89122792D01*
X87594338Y-89127262D01*
X87610079Y-89133381D01*
X87624455Y-89141388D01*
X87638659Y-89151522D01*
X87642509Y-89154565D01*
X87662993Y-89176323D01*
X87676960Y-89203502D01*
X87683182Y-89227422D01*
X87684249Y-89238325D01*
X87685118Y-89257421D01*
X87685785Y-89284383D01*
X87686247Y-89318883D01*
X87686498Y-89360593D01*
X87686536Y-89409185D01*
X87686356Y-89464331D01*
X87686253Y-89483127D01*
X87685929Y-89535296D01*
X87685589Y-89579705D01*
X87685171Y-89617115D01*
X87684612Y-89648288D01*
X87683851Y-89673986D01*
X87682826Y-89694972D01*
X87681474Y-89712007D01*
X87679734Y-89725855D01*
X87677543Y-89737277D01*
X87674839Y-89747035D01*
X87671560Y-89755892D01*
X87667644Y-89764610D01*
X87663030Y-89773951D01*
X87662473Y-89775056D01*
X87648199Y-89799748D01*
X87633081Y-89817917D01*
X87615447Y-89831523D01*
X87613157Y-89832899D01*
X87601933Y-89839092D01*
X87590823Y-89844133D01*
X87578809Y-89848148D01*
X87564874Y-89851259D01*
X87548004Y-89853589D01*
X87527180Y-89855262D01*
X87501387Y-89856402D01*
X87469608Y-89857131D01*
X87430826Y-89857574D01*
X87408700Y-89857725D01*
X87374972Y-89857845D01*
X87343613Y-89857808D01*
X87315737Y-89857626D01*
X87292461Y-89857313D01*
X87274900Y-89856881D01*
X87264170Y-89856343D01*
X87261669Y-89856028D01*
X87257016Y-89854609D01*
X87253927Y-89851925D01*
X87252028Y-89846409D01*
X87250948Y-89836492D01*
X87250314Y-89820608D01*
X87249976Y-89806834D01*
X87249898Y-89787216D01*
X87250521Y-89770396D01*
X87251729Y-89758425D01*
X87253017Y-89753747D01*
X87255255Y-89751913D01*
X87259933Y-89750442D01*
X87267916Y-89749289D01*
X87280070Y-89748411D01*
X87297262Y-89747762D01*
X87320358Y-89747297D01*
X87350223Y-89746971D01*
X87387724Y-89746741D01*
X87388750Y-89746736D01*
X87428766Y-89746488D01*
X87461159Y-89746062D01*
X87486829Y-89745316D01*
X87506676Y-89744107D01*
X87521601Y-89742291D01*
X87532505Y-89739726D01*
X87540286Y-89736270D01*
X87545847Y-89731778D01*
X87550086Y-89726109D01*
X87553124Y-89720642D01*
X87558444Y-89705194D01*
X87562023Y-89684397D01*
X87563528Y-89661306D01*
X87562623Y-89638980D01*
X87562336Y-89636486D01*
X87559399Y-89612984D01*
X87541787Y-89628059D01*
X87526895Y-89638405D01*
X87509773Y-89646999D01*
X87502973Y-89649431D01*
X87487101Y-89652505D01*
X87464979Y-89654600D01*
X87438824Y-89655719D01*
X87410853Y-89655866D01*
X87383282Y-89655045D01*
X87358328Y-89653261D01*
X87338207Y-89650518D01*
X87331855Y-89649113D01*
X87296876Y-89636139D01*
X87267803Y-89617085D01*
X87244855Y-89592181D01*
X87228255Y-89561653D01*
X87219619Y-89532992D01*
X87217998Y-89520672D01*
X87216702Y-89501452D01*
X87215724Y-89476709D01*
X87215061Y-89447820D01*
X87214706Y-89416160D01*
X87214655Y-89383105D01*
X87214669Y-89381274D01*
X87334162Y-89381274D01*
X87334274Y-89417226D01*
X87334722Y-89445763D01*
X87335665Y-89467990D01*
X87337261Y-89485014D01*
X87339671Y-89497942D01*
X87343053Y-89507879D01*
X87347567Y-89515932D01*
X87353372Y-89523207D01*
X87354819Y-89524791D01*
X87362507Y-89531911D01*
X87371333Y-89537082D01*
X87382755Y-89540606D01*
X87398227Y-89542782D01*
X87419206Y-89543913D01*
X87447148Y-89544299D01*
X87449223Y-89544306D01*
X87475933Y-89544077D01*
X87495859Y-89543123D01*
X87510721Y-89541284D01*
X87522240Y-89538399D01*
X87525495Y-89537232D01*
X87539108Y-89530110D01*
X87550565Y-89521005D01*
X87553196Y-89517976D01*
X87555772Y-89514198D01*
X87557800Y-89509904D01*
X87559347Y-89504095D01*
X87560477Y-89495775D01*
X87561256Y-89483943D01*
X87561748Y-89467604D01*
X87562019Y-89445758D01*
X87562135Y-89417407D01*
X87562159Y-89381555D01*
X87562159Y-89380634D01*
X87562159Y-89255322D01*
X87550345Y-89243503D01*
X87538531Y-89231684D01*
X87455839Y-89231684D01*
X87427085Y-89231741D01*
X87405564Y-89231993D01*
X87389984Y-89232561D01*
X87379057Y-89233563D01*
X87371490Y-89235122D01*
X87365994Y-89237356D01*
X87361278Y-89240387D01*
X87361109Y-89240510D01*
X87353202Y-89246794D01*
X87347008Y-89253416D01*
X87342320Y-89261460D01*
X87338929Y-89272012D01*
X87336629Y-89286158D01*
X87335211Y-89304983D01*
X87334467Y-89329572D01*
X87334191Y-89361010D01*
X87334162Y-89381274D01*
X87214669Y-89381274D01*
X87214901Y-89350033D01*
X87215440Y-89318319D01*
X87216266Y-89289340D01*
X87217375Y-89264473D01*
X87218759Y-89245092D01*
X87220416Y-89232576D01*
X87220784Y-89230997D01*
X87233599Y-89198217D01*
X87253146Y-89170623D01*
X87279304Y-89148339D01*
X87311949Y-89131485D01*
X87325856Y-89126584D01*
X87336836Y-89123315D01*
X87347121Y-89120847D01*
X87358138Y-89119069D01*
X87371315Y-89117870D01*
X87388080Y-89117137D01*
X87409862Y-89116760D01*
X87438087Y-89116627D01*
X87453485Y-89116616D01*
X87493913Y-89116883D01*
G37*
D11*
%TO.C,U3*%
X87139432Y-64615000D02*
X89935000Y-64615000D01*
X89935000Y-66885000D02*
X86715000Y-66885000D01*
X86845000Y-64610000D02*
X86705000Y-64420000D01*
X86985000Y-64420000D01*
X86845000Y-64610000D01*
G36*
X86845000Y-64610000D02*
G01*
X86705000Y-64420000D01*
X86985000Y-64420000D01*
X86845000Y-64610000D01*
G37*
%TO.C,C9*%
X86857836Y-68890000D02*
X86642164Y-68890000D01*
X86857836Y-69610000D02*
X86642164Y-69610000D01*
%TO.C,Y1*%
X92810000Y-80140000D02*
X88690000Y-80140000D01*
X92810000Y-83560000D02*
X92810000Y-80140000D01*
%TO.C,C7*%
X95390000Y-68337836D02*
X95390000Y-68122164D01*
X96110000Y-68337836D02*
X96110000Y-68122164D01*
%TO.C,C17*%
X89467164Y-63640000D02*
X89682836Y-63640000D01*
X89467164Y-64360000D02*
X89682836Y-64360000D01*
%TO.C,R1*%
X92870000Y-52586359D02*
X92870000Y-52893641D01*
X93630000Y-52586359D02*
X93630000Y-52893641D01*
%TO.C,C4*%
X91640000Y-64627836D02*
X91640000Y-64412164D01*
X92360000Y-64627836D02*
X92360000Y-64412164D01*
%TO.C,C8*%
X93140000Y-79342164D02*
X93140000Y-79557836D01*
X93860000Y-79342164D02*
X93860000Y-79557836D01*
%TO.C,R6*%
X96143641Y-62870000D02*
X95836359Y-62870000D01*
X96143641Y-63630000D02*
X95836359Y-63630000D01*
%TO.C,C3*%
X92640000Y-64877836D02*
X92640000Y-64662164D01*
X93360000Y-64877836D02*
X93360000Y-64662164D01*
%TD*%
M02*
