M48
; DRILL file {KiCad 9.0.7} date 2026-03-21T23:32:29-0400
; FORMAT={-:-/ absolute / metric / decimal}
; #@! TF.CreationDate,2026-03-21T23:32:29-04:00
; #@! TF.GenerationSoftware,Kicad,Pcbnew,9.0.7
; #@! TF.FileFunction,Plated,1,2,PTH
FMAT,2
METRIC
; #@! TA.AperFunction,Plated,PTH,ViaDrill
T1C0.300
; #@! TA.AperFunction,Plated,PTH,ComponentDrill
T2C0.600
; #@! TA.AperFunction,Plated,PTH,ComponentDrill
T3C1.000
%
G90
G05
T1
X46.5Y-47.0
X84.25Y-76.75
X84.5Y-75.0
X84.5Y-88.5
X85.338Y-60.605
X85.4Y-63.5
X85.5Y-51.25
X85.75Y-64.5
X86.0Y-75.75
X86.053Y-70.651
X86.053Y-71.451
X86.25Y-57.75
X86.25Y-58.75
X86.25Y-68.25
X86.27Y-69.25
X86.75Y-70.25
X87.25Y-88.0
X88.174Y-67.326
X88.5Y-57.25
X88.5Y-62.25
X89.0Y-75.0
X89.0Y-75.8
X89.0Y-75.8
X89.095Y-64.0
X89.275Y-72.974
X90.0Y-79.25
X90.345Y-70.99
X90.701Y-65.0
X91.0Y-73.5
X91.15Y-75.75
X91.25Y-56.75
X92.0Y-63.0
X92.0Y-66.0
X92.0Y-68.75
X92.0Y-75.75
X92.5Y-71.25
X92.786Y-75.6
X93.75Y-72.25
X93.75Y-73.75
X93.75Y-74.75
X94.0Y-75.724
X94.018Y-71.231
X94.75Y-66.75
X95.0Y-85.0
X95.5Y-64.25
X95.5Y-80.25
X96.25Y-52.25
X96.75Y-66.25
X96.75Y-67.75
X97.0Y-57.35
X97.75Y-58.3
X98.25Y-85.25
X98.5Y-52.25
X99.25Y-64.25
X99.25Y-74.75
T3
X82.61Y-45.37
X82.61Y-47.91
X82.61Y-50.45
X82.61Y-52.99
X82.61Y-55.53
X82.61Y-58.07
X82.61Y-60.61
X82.61Y-63.15
X82.61Y-65.69
X82.61Y-68.23
X82.61Y-70.77
X82.61Y-73.31
X82.61Y-75.85
X82.61Y-78.39
X82.61Y-80.93
X82.61Y-83.47
X82.61Y-86.01
X82.61Y-88.55
X82.61Y-91.09
X82.61Y-93.63
X88.96Y-93.39
X91.5Y-93.39
X94.04Y-93.39
X100.39Y-45.37
X100.39Y-47.91
X100.39Y-50.45
X100.39Y-52.99
X100.39Y-55.53
X100.39Y-58.07
X100.39Y-60.61
X100.39Y-63.15
X100.39Y-65.69
X100.39Y-68.23
X100.39Y-70.77
X100.39Y-73.31
X100.39Y-75.85
X100.39Y-78.39
X100.39Y-80.93
X100.39Y-83.47
X100.39Y-86.01
X100.39Y-88.55
X100.39Y-91.09
X100.39Y-93.63
T2
G00X87.36Y-45.65
M15
G01X87.36Y-45.05
M16
G05
G00X87.36Y-50.08
M15
G01X87.36Y-48.98
M16
G05
G00X96.0Y-45.65
M15
G01X96.0Y-45.05
M16
G05
G00X96.0Y-50.08
M15
G01X96.0Y-48.98
M16
G05
M30
