%TF.GenerationSoftware,KiCad,Pcbnew,9.0.7*%
%TF.CreationDate,2026-03-21T23:32:06-04:00*%
%TF.ProjectId,K-Logic-Devboard,4b2d4c6f-6769-4632-9d44-6576626f6172,rev?*%
%TF.SameCoordinates,Original*%
%TF.FileFunction,Soldermask,Bot*%
%TF.FilePolarity,Negative*%
%FSLAX46Y46*%
G04 Gerber Fmt 4.6, Leading zero omitted, Abs format (unit mm)*
G04 Created by KiCad (PCBNEW 9.0.7) date 2026-03-21 23:32:06*
%MOMM*%
%LPD*%
G01*
G04 APERTURE LIST*
%ADD10R,1.700000X1.700000*%
%ADD11C,1.700000*%
%ADD12C,0.650000*%
%ADD13O,1.000000X2.100000*%
%ADD14O,1.000000X1.600000*%
G04 APERTURE END LIST*
D10*
%TO.C,J4*%
X88960000Y-93390000D03*
D11*
X91500000Y-93390000D03*
X94040000Y-93390000D03*
%TD*%
D12*
%TO.C,J1*%
X94570000Y-49000000D03*
X88790000Y-49000000D03*
D13*
X96000000Y-49530000D03*
D14*
X96000000Y-45350000D03*
D13*
X87360000Y-49530000D03*
D14*
X87360000Y-45350000D03*
%TD*%
D10*
%TO.C,J3*%
X100390000Y-45370000D03*
D11*
X100390000Y-47910000D03*
X100390000Y-50450000D03*
X100390000Y-52990000D03*
X100390000Y-55530000D03*
X100390000Y-58070000D03*
X100390000Y-60610000D03*
X100390000Y-63150000D03*
X100390000Y-65690000D03*
X100390000Y-68230000D03*
X100390000Y-70770000D03*
X100390000Y-73310000D03*
X100390000Y-75850000D03*
X100390000Y-78390000D03*
X100390000Y-80930000D03*
X100390000Y-83470000D03*
X100390000Y-86010000D03*
X100390000Y-88550000D03*
X100390000Y-91090000D03*
X100390000Y-93630000D03*
%TD*%
D10*
%TO.C,J2*%
X82610000Y-45370000D03*
D11*
X82610000Y-47910000D03*
X82610000Y-50450000D03*
X82610000Y-52990000D03*
X82610000Y-55530000D03*
X82610000Y-58070000D03*
X82610000Y-60610000D03*
X82610000Y-63150000D03*
X82610000Y-65690000D03*
X82610000Y-68230000D03*
X82610000Y-70770000D03*
X82610000Y-73310000D03*
X82610000Y-75850000D03*
X82610000Y-78390000D03*
X82610000Y-80930000D03*
X82610000Y-83470000D03*
X82610000Y-86010000D03*
X82610000Y-88550000D03*
X82610000Y-91090000D03*
X82610000Y-93630000D03*
%TD*%
M02*
